<?xml version="1.0" encoding="utf-8"?>
<!-- Generator: Adobe Illustrator 26.0.3, SVG Export Plug-In . SVG Version: 6.00 Build 0)  -->
<svg version="1.1" id="Layer_1" xmlns="http://www.w3.org/2000/svg" xmlns:xlink="http://www.w3.org/1999/xlink" x="0px" y="0px"
	 viewBox="0 0 99.21 99.21" style="enable-background:new 0 0 99.21 99.21;" xml:space="preserve">
<style type="text/css">
	.st0{fill:#1DA1F2;}
	.st1{fill:#FFFFFF;}
</style>
<g>
	<circle id="XMLID_3_" class="st0" cx="49.61" cy="49.61" r="49.61"/>
	<path id="XMLID_2_" class="st1" d="M38.34,73.29c21.74,0,33.63-18.22,33.63-34.02c0-0.52-0.01-1.03-0.03-1.55
		c2.31-1.69,4.31-3.79,5.9-6.19c-2.12,0.95-4.4,1.59-6.79,1.88c2.44-1.48,4.31-3.82,5.2-6.62c-2.28,1.37-4.81,2.37-7.5,2.9
		c-2.16-2.32-5.23-3.78-8.63-3.78c-6.53,0-11.82,5.36-11.82,11.96c0,0.94,0.1,1.85,0.31,2.73c-9.82-0.5-18.53-5.26-24.36-12.49
		c-1.02,1.77-1.6,3.82-1.6,6.01c0,4.15,2.09,7.81,5.26,9.95c-1.94-0.06-3.76-0.6-5.35-1.5c0,0.05,0,0.1,0,0.15
		c0,5.79,4.08,10.63,9.48,11.72c-0.99,0.27-2.04,0.42-3.12,0.42c-0.76,0-1.5-0.08-2.22-0.22c1.5,4.75,5.87,8.21,11.04,8.31
		c-4.05,3.21-9.14,5.12-14.68,5.12c-0.95,0-1.9-0.05-2.82-0.16C25.45,71.31,31.66,73.29,38.34,73.29"/>
</g>
</svg>
