<?xml version="1.0" encoding="utf-8"?>
<!-- Generator: Adobe Illustrator 26.0.3, SVG Export Plug-In . SVG Version: 6.00 Build 0)  -->
<svg version="1.1" id="레이어_1" xmlns="http://www.w3.org/2000/svg" xmlns:xlink="http://www.w3.org/1999/xlink" x="0px"
	 y="0px" viewBox="0 0 640 480" style="enable-background:new 0 0 640 480;" xml:space="preserve">
<style type="text/css">
	.st0{fill-rule:evenodd;clip-rule:evenodd;fill:url(#SVGID_1_);}
	.st1{fill-rule:evenodd;clip-rule:evenodd;fill:url(#SVGID_00000079465158483053508520000001643667030675232946_);}
	.st2{opacity:0.2;fill-rule:evenodd;clip-rule:evenodd;fill:#6EC3B5;enable-background:new    ;}
	.st3{fill-rule:evenodd;clip-rule:evenodd;fill:#BBE1E8;}
	.st4{fill-rule:evenodd;clip-rule:evenodd;fill:#DBEFF2;}
</style>
<g>
	<g>
		
			<radialGradient id="SVGID_1_" cx="-1727.8423" cy="271.0366" r="36.8245" gradientTransform="matrix(1.6929 -1.6929 -1.6785 -1.6785 3698.709 -2247.0552)" gradientUnits="userSpaceOnUse">
			<stop  offset="0" style="stop-color:#4AC1EF"/>
			<stop  offset="0.2204" style="stop-color:#47BFED"/>
			<stop  offset="0.3562" style="stop-color:#45B9E5"/>
			<stop  offset="0.4692" style="stop-color:#41AED6"/>
			<stop  offset="0.5696" style="stop-color:#389EC5"/>
			<stop  offset="0.6618" style="stop-color:#318BAC"/>
			<stop  offset="0.7478" style="stop-color:#277490"/>
			<stop  offset="0.8292" style="stop-color:#1A576C"/>
			<stop  offset="0.9069" style="stop-color:#0E3441"/>
			<stop  offset="0.979" style="stop-color:#040D10"/>
			<stop  offset="1" style="stop-color:#040000"/>
		</radialGradient>
		<path class="st0" d="M381.05,160.73c34.14,34.14,33.9,89.72-0.53,124.15c-34.43,34.43-90.02,34.67-124.15,0.53
			c-34.14-34.14-33.9-89.72,0.53-124.15S346.91,126.59,381.05,160.73z"/>
	</g>
	
		<radialGradient id="SVGID_00000069358319783916312080000003533123207042168962_" cx="295.7509" cy="298.1696" r="185.2894" gradientTransform="matrix(1 0 0 -1 0 489.6906)" gradientUnits="userSpaceOnUse">
		<stop  offset="0" style="stop-color:#63C4F1"/>
		<stop  offset="0.1194" style="stop-color:#82CEEE"/>
		<stop  offset="0.2577" style="stop-color:#9ED7EC"/>
		<stop  offset="0.4057" style="stop-color:#B5E0ED"/>
		<stop  offset="0.566" style="stop-color:#C3E5EE"/>
		<stop  offset="0.7472" style="stop-color:#CCE9EE"/>
		<stop  offset="0.9944" style="stop-color:#CFEAEF"/>
	</radialGradient>
	<path style="fill-rule:evenodd;clip-rule:evenodd;fill:url(#SVGID_00000069358319783916312080000003533123207042168962_);" d="
		M408.85,223.15c0,21.75-7.76,41.69-20.67,57.2c-16.41,19.74-41.14,32.3-68.83,32.3c-42.01,0-77.25-28.95-86.9-67.97
		c-1.7-6.9-2.6-14.11-2.6-21.52c0-3.29,0.18-6.52,0.52-9.72c0.22-2.01,0.5-3.98,0.84-5.95c7.41-41.96,44.05-73.84,88.14-73.84
		c12.28,0,23.97,2.48,34.62,6.95c0.01,0,0.01,0,0.01,0c16.54,6.95,30.54,18.72,40.27,33.55
		C403.48,188.22,408.85,205.06,408.85,223.15z"/>
	<path class="st2" d="M408.86,223.15c0,49.43-40.07,89.5-89.5,89.5c-42.01,0-77.26-28.94-86.9-67.97c0.24,0.33,0.48,0.65,0.72,0.98
		c0.49,0.68,0.78,1.37,1.02,2.16c0.14,0.45,0.12,0.97,0.25,1.39c0.23,0.73,0.83,1.11,0.55,0.24c0.39,0.82,0.48,1.58,0.85,2.38
		c0.53,1.18,0.95,2.25,1.32,3.5c0.29,1,0.48,2.04,0.79,3.03c0.28,0.9,0.75,1.74,1.09,2.63c1.1,2.78,2.66,5.09,4.32,7.54
		c0.43,0.63,0.68,1.37,1.12,1.98c0.48,0.65,1.1,1.24,1.62,1.88c0.54,0.68,1.38,1.17,2.11,1.62c0.77,0.47,1.42,1.06,2.16,1.57
		c1.25,0.87,2.82,1.13,4.3,1.12c1.69-0.01,3.35-0.51,5.01-0.08c2.85,0.75,3.22,4.46,4.69,6.56c0.63,0.9,1.67,1.4,2.7,1.68
		c1.25,0.33,2.25,0.77,3.25,1.55c0.75,0.59,1.77,1.04,2.72,1.08c1.04,0.04,0.81-0.53,0.8-1.41c-0.01-1.3-0.92-1.96-1.63-2.98
		c-0.4-0.57-0.53-1.15-0.8-1.78c-0.18-0.41-0.42-0.63-0.22-1.1c0.67,0.06,1.35,0.62,1.86,1.04c1.1,0.91,2.49,1.45,3.79,2.04
		c0.62,0.27,1.12,0.54,1.66,0.94c0.28,0.21,0.68,0.64,1,0.78c1,0.41,2.2-1.2,2.41-2.01c0.23-0.93-0.14-2.3-0.8-2.95
		c-1.2-1.2-2.19-2.5-3.19-3.88c-1.03-1.42-2.35-2.8-3.08-4.4c-0.73-1.61-1.41-3.52-1.24-5.32c0.1-1.12,0.58-2.3,0.93-3.36
		c0.17-0.53,0.28-1.36,0.59-1.82c0.46-0.68,1.51-0.58,2.21-0.45c1.27,0.24,2.93,0.24,4.06,0.88c1.12,0.64,1.84,2.11,3.22,2.29
		c2.14,0.29,4.03-1.54,5.37-2.9c1.21-1.23,2.68-3.3,4.44-3.79c1.05-0.29,2.02,0.37,3,0.63c0.45,0.12,0.91,0.33,1.37,0.39
		c0.8,0.11,1.42-0.3,2.09-0.67c1.54-0.85,2.93-0.78,4.61-0.34c0.78,0.21,1.3,0.73,1.94,1.17c1.03,0.72,2.06,1.42,3.12,2.11
		c0.95,0.61,1.83,1.17,2.24,2.26c0.19,0.52,0.2,0.72,0.06,1.28c-0.09,0.36-0.28,0.85-0.11,1.22c0.28,0.58,1.18,0.76,1.68,1.08
		c0.72,0.46,1.41,1.02,2.04,1.59c1.65,1.49,2.24,3.24,2.43,5.39c0.11,1.21-0.09,2.55-0.97,3.47c-0.99,1.05-2.71,1.07-3.56,2.2
		c-0.69,0.9-0.95,2.14-1.09,3.25c-0.09,0.69,0.01,1.28-0.26,1.95c-0.34,0.81-0.86,1.61-1.28,2.38c-0.33,0.63-0.75,1.15-0.99,1.82
		c-0.14,0.38-0.23,0.77-0.38,1.15c-0.37,0.9-1.11,1.68-1.95,2.15c-1.16,0.65-2.31,1.38-3.66,1.35c-0.78-0.01-1.82,0.19-2.57,0.01
		c-0.24-0.06-0.41-0.22-0.65-0.29c-0.31-0.09-0.55-0.12-0.84-0.23c-0.82-0.31-1.07-0.61-1.54-1.39c-0.38-0.67-0.8-1.04-1.43-1.48
		c-0.48-0.33-1.04-0.51-1.57-0.78c-0.34-0.18-0.92-0.25-1.2-0.51c-0.56-0.51,0.13-1.03,0.43-1.54c0.65-1.12,1.52-2.26,2.5-3.1
		c0.41-0.36,0.89-0.61,1.41-0.77c0.76-0.23,1.11-0.06,1.77,0.28c0.73,0.39,0.91,0.8,1.3,1.49c-0.36,0.3-0.83,0.71-1.24,0.88
		c-0.36,0.14-0.96,0.06-1.04,0.59c1.15,1.23,2.09,1.96,3.67,0.81c0.83-0.61,2.78-1.6,2.75-2.75c-0.01-0.63-1.21-1.42-1.66-1.76
		s-0.97-0.58-1.41-0.94c-0.47-0.38-0.7-0.92-1.12-1.33c-0.43-0.43-0.99-0.82-1.45-1.25c-0.44-0.41-0.9-0.51-1.42-0.78
		c-0.55-0.29-0.93-0.65-1.54-0.84c-0.69-0.2-1.72-0.58-2.45-0.56c-1.6,0.03-3.15,1.62-4.06,2.79c-0.8,1.01-2.29,2.92-1.83,4.33
		c0.19,0.56,0.75,0.78,1,1.27c0.11,0.23,0.23,0.7,0.29,0.94c0.17,0.8-0.04,1.56,0.22,2.36c0.78,2.48,1.19,5.38,3.69,6.68
		c0.41,0.21,0.72,0.41,1.17,0.55c0.45,0.14,0.97,0.14,1.41,0.31c0.96,0.36,1.69,0.84,2.74,1c1.15,0.18,2.28,0.3,3.45,0.3
		c1.55,0,3.17,0.16,4.62-0.53c0.75-0.36,1.78-1.02,2.36-1.62c0.72-0.75,0.84-1.79,1.06-2.76c0.21-0.88,0.17-2.24,0.88-2.93
		c0.61-0.59,1.54-0.7,2.17-1.32c0.9-0.9,1.71-2.14,2.29-3.27c0.8-1.56,1.87-2.91,2.7-4.44c0.47-0.85,1.17-1.96,1.89-2.64
		c0.68-0.65,1.64-0.89,2.56-0.99c0.8-0.09,1.67-0.32,2.43-0.6c0.77-0.28,1.63-0.6,2.38-0.95c0.63-0.3,1.12-0.93,1.65-1.42
		c1.37-1.24,2.88-1.61,4.61-1.96c0.71-0.14,1.19-0.28,1.89-0.06c0.56,0.19,1.1,0.47,1.69,0.6c0.79,0.18,1.82,0.52,2.63,0.28
		c2.96-0.88,0.93-3.52,0.42-5.47c-1.01-3.96-0.95-7.94-0.95-11.99c0-1.25-0.21-2.63,0.26-3.8c0.22-0.56,0.28-1.2,0.53-1.74
		c0.17-0.38,0.61-0.65,0.76-1.01c0.31-0.68,0.13-0.98,0.92-1.37c0.81-0.4,1.49-0.46,2.38-0.46c2.36-0.01,5-0.36,7.22,0.59
		c0.94,0.41,1.69,1.1,2.49,1.7c0.85,0.63,1.51,1.1,1.62,2.23c0.14,1.34,0.75,2.67,2.19,3.05c1.2,0.32,2.51,0.79,3.75,0.79
		c0.82-0.01,1.64-0.41,2.43-0.28c0.23,0.04,0.52,0.24,0.69,0.26c0.39,0.03,0.8-0.25,1.19-0.39c0.93-0.36,1.64-0.42,2.63-0.41
		c1.74,0.02,2.25-1.12,3.49-2.16c1.4-1.19,2.59-2.12,4.46-2.15c2.26-0.03,3.92-1.86,4.94-3.7c1.59-2.89,3.1-6.62,1.82-9.87
		c-0.48-1.2-1.4-2.13-2.11-3.2c-0.75-1.14-1.09-2.46-1.46-3.74c-0.33-1.11-1.54-2.34-2.71-2.65c-0.98-0.26-2.05-0.09-2.82-0.85
		c-0.71-0.71-1.55-1.68-2.06-2.55c-0.75-1.28-1.05-3.3-1.06-4.76c0-0.49-0.13-0.56-0.24-0.94c-0.11-0.36,0.06-0.76-0.01-1.13
		c-0.19-1.06-0.52-2.13-0.75-3.22c-0.25-1.2-0.96-2.56-0.91-3.8c0.04-0.98,0.63-2.16,1.38-2.77c0.88-0.7,1.52-1.58,2.16-2.52
		c0.34-0.5,0.67-0.95,0.88-1.51c0.22-0.58,0.12-1.03,0.21-1.62c0.14-0.88,0.88-1.43,1.73-1.6c0.53-0.11,1.08,0.06,1.62-0.02
		c0.78-0.14,1.52-0.61,2.02-1.2c1.14-1.35,0.89-3.53,0.83-5.2c-0.06-1.82-1.27-2.66-2.19-4.04c-0.86-1.31-1.23-3.31-0.2-4.67
		c0.41-0.53,1.01-0.89,1.23-1.6c0.23-0.74-0.23-1.8-0.53-2.48c-0.59-1.27-1.41-2.37-2.38-3.36c-0.45-0.45-0.51-0.89-0.78-1.45
		c-0.34-0.7-0.79-1.29-1.1-2.01c-0.27-0.61-0.52-1.03-0.97-1.49c-0.26-0.26-0.37-0.54-0.61-0.81c-0.62-0.72-1.49-1.1-2.06-1.91
		c-0.46-0.65-1-1.42-1.37-2.14c-0.37-0.74-0.33-1.51-0.37-2.31c-0.05-1.14-0.62-1.84-1.17-2.76c-0.25-0.41-0.46-0.69-0.8-1.07
		c-0.56-0.61-0.9-1.27-1.33-1.96c-0.43-0.68-1.2-1-1.85-1.35c-0.31-0.17-0.39-0.31-0.78-0.23c-0.47,0.09-1.2,0.75-1.53,1.06
		c-0.83,0.77-1.82,1.1-2.92,1.47c-1.05,0.35-2.11,0.65-3.17,0.95c-1.39,0.4-2.81,0.45-4.21,0.79c-1.89,0.46-3.62,0.85-4.52,2.69
		c-0.65,1.32-0.38,2.9-0.39,4.34c0,0.52-0.06,1.05,0.06,1.55c0.16,0.74,0.56,1.42,0.7,2.16c0.41,2.01-0.25,4.11-0.9,5.99
		c-0.65,1.89-1.89,3.27-3.35,4.61c-1.91,1.76-4.8,1.73-7.06,2.74c-1.53,0.69-3.84,1.63-4.26,3.45c-0.31,1.37,0.47,2.27,0.72,3.51
		c0.16,0.81-0.02,1.67,0.19,2.43c0.27,0.97-0.04,1.49-0.88,2.17c-0.43,0.35-0.93,0.7-1.1,1.27c-0.1,0.34,0.04,0.68-0.03,1.01
		c-0.12,0.6-0.69,1.02-1.24,1.18c-0.92,0.26-1.9,0.26-2.76,0.82c-0.78,0.51-1.1,1.3-2.06,1.5c-0.75,0.17-1.31,0.02-2.09-0.07
		c-1.3-0.16-2.6-0.13-3.89-0.4c-2.27-0.47-4.38-0.87-6.73-0.76c-1.85,0.09-2.9,0.59-4.65-0.44c-1.11-0.66-2.21-1.4-3.36-1.99
		c-1.32-0.66-2.75-1.13-4.13-1.67c-2.09-0.83-4.26-1.27-6.41-1.87c-2.19-0.61-3.72-2.56-5.25-4.07c-1.51-1.47-2.8-3.29-3.32-5.37
		c-0.34-1.38-0.19-2.36-0.01-3.72c0.41-3.02-1.13-5.78-0.65-8.78c0.5-3.12,0.72-6.3,2.01-9.23c0.57-1.28,1.52-2.28,2.16-3.5
		c0.67-1.3,1.94-1.87,3.21-2.45c0.9-0.41,2.02-0.92,3.03-0.89c1.27,0.04,0.91,0.8,1.33,1.66c0.31,0.61,0.83,1.01,1.35,1.47
		c1.07,0.95,2.58,0,3.63-0.66c1.22-0.76,2.89-2.16,4.44-1.79c1.19,0.29,2.26,0.8,3.37,0.02c0.74-0.51,1.28-1.47,0.73-2.37
		c-0.92-1.51-3.12-1.56-4.65-1.54c-1.82,0.01-3.62-0.07-5.43,0.2c-1.12,0.17-2.21,0.43-3.32,0.21c-1.22-0.24-2.19-0.89-3.3-1.37
		c-1.86-0.79-3.42-0.07-5.18,0.61c-2.14,0.82-4.21,2.28-5.15,4.4c-0.79,1.81-0.36,3.76-0.55,5.64c-0.08,0.85-0.21,1.77-0.48,2.58
		c-0.42,1.29-1.32,2.31-2.13,3.37c-1.45,1.89-2.23,3.87-1.81,6.21c0.18,1.01,0.13,1.54-0.33,2.45c-0.36,0.73-1.1,1.6-1.3,2.38
		c-0.21,0.8,0.36,0.93,0.95,1.41c0.7,0.56,1.4,1.54,1.58,2.43c0.47,2.21-0.62,4.31-2.36,5.61c-1.15,0.86-2.72,1.17-3.54,2.41
		c-0.43,0.67-0.82,1.37-1.23,2.05c-0.66,1.09-1.54,1.7-2.67,2.24c-1.25,0.58-2.66,0.68-3.66,1.67c-0.58,0.57-0.78,1.12-1.12,1.86
		c-0.53,1.13-1.17,2.19-1.77,3.28c-0.58,1.07-1.16,1.79-2.24,2.4c-1.26,0.71-2.52,1.35-3.74,2.14c-1.31,0.85-2.16,2.09-3.25,3.17
		c-1.27,1.25-2.7,1.67-4.38,2.05c-2.47,0.55-4.98,1.23-7.49,1.59c-2.2,0.31-4.12,0.19-6.21-0.55c-1.68-0.58-3.31-1.23-4.88-2.05
		c4.84-44.87,42.83-79.8,88.99-79.8C368.79,133.64,408.86,173.71,408.86,223.15z"/>
</g>
<path class="st3" d="M354.98,143.38c-0.24-0.04-4.27-0.73-7.94-1.2c-3.8-0.49-3.11-2.08-6.41-3.02c-3.3-0.94-9.33-2.07-10.32-1.91
	c-0.98,0.17-2.15,1.07-4.32,0.99c-2.17-0.08-6.12-0.31-8.98-0.1c-2.87,0.21-7.64-1.04-9.34,0.36c-1.71,1.39-8.09,3.17-12.87,4.53
	c-4.78,1.34-5.87,2-9.43,4.03c-3.55,2.03-5.12,4.68-9.26,7.48c-4.14,2.8-6.11,1.92-8.87,2.53c-2.76,0.6-1.97,0.78-6.14,3.92
	c-4.16,3.14-4.31,6.13-6.45,8.86c-2.13,2.74-7.2,6.74-7.2,6.74l-3.29,6.3l-2.73,4.69c0,0,1.96,2.98-2.27,7.71
	c-4.22,4.73-6.9,15.01-6.9,15.01l-0.06-0.03c7.41-41.96,44.05-73.84,88.14-73.84C332.63,136.43,344.32,138.91,354.98,143.38z"/>
<path class="st4" d="M332,311.33c0,0,6.8-4.93,7.44-9.2c0.64-4.27-3.25-4.76-3.47-7.27c-0.23-2.52,5-9.54,5.74-14.01
	s0.04-8.5-1.78-11.31c-1.82-2.82-11.92-7.32-13.47-12.85c-1.56-5.54-10.69-12.27-10.56-17.67s4.58-9.8,5.41-17.66
	c0.83-7.86-0.68-10.22-0.68-10.22s2.31,3.77,1.91,10.85c-0.39,7.09-5.63,11.98-6.02,17.03c-0.39,5.04,11.16,15.21,11.4,16.93
	c0.24,1.71,0.03,2.3,2.06,4.42s9.59,6.67,11.52,9.77s4.2,0.57,4.79-3.93s-0.13-10.51,2.99-13.47s5.14-3.16,5.95-7.49
	s0.89-7.87-0.97-10.78c-1.86-2.91-5.43-5.05-4.98-8.86c0.46-3.81-2.3-16.63-7.23-23.03c-4.93-6.4-5.59-10.64-5.59-10.64
	s2.24,5.9,7.07,10.64c4.83,4.73,5.81,21.98,6.66,24.98c0.86,3.01,4.23,1.24,5.58,9.32c1.35,8.08-0.15,11.56-1.52,13.12
	s-4.85,2.5-6,4.84c-1.15,2.33-0.69,11.63-0.99,14.53s-2.49,3.31-3.56,5.66c-1.07,2.36-0.68,5.34-3.78,11.93s-2.81,8.53,0,10.96
	s10.36,2.75,10.97,4.51c0.61,1.76-2.36,3.32-2.17,3.98c0.19,0.65,3.79-0.73,3.79-0.73S341.36,310.37,332,311.33z"/>
<path class="st4" d="M258.44,290.56c0,0,11.81,3.9,15.6-0.28c3.79-4.19,2.4-8.81,3.36-15.38c0.96-6.56,1.28-8.91,6.44-11.01
	c5.15-2.1,9.99-1.32,11.78-4.87c1.79-3.54,7.38-9.19,7.38-9.19s-5.93,5.15-6.48,9.93c-0.55,4.78-10.88,0.71-15.95,7.2
	c-3.54,4.54-0.43,15.19-3.16,21.76s-14.22,5.74-14.22,5.74S260.5,292.9,258.44,290.56z"/>
<path class="st4" d="M408.13,224.22c0,21.75-7.76,41.69-20.67,57.2c-1.28-1.58-2.58-4.25-2.75-8.65c-0.32-9.03-0.27-13.4-3.55-19.5
	c-3.29-6.09-7.07-3.01-7.94-9.78c-0.83-6.55-3.84-13.66-4.03-14.1c0.26,0.37,3.67,5.42,4.15,7.71c0.49,2.39,0.11,6.76,1.28,9
	c1.15,2.24,5.42,3.96,7.1,5.23c1.67,1.27,3.25,8.69,3.25,12.32s2.62,4.14,3.63,4.04s6.03-5.01,6.52-6.95
	c0.5-1.92,5.32-13.4,1.32-18.71c-3.98-5.31-8.19-4.04-11.2-8.42c-3.02-4.37-4.85-4.08-12.56-8.83c0.61,0.26,5.65,2.42,9.53,4.45
	c4.14,2.17,3.54,3.96,5.72,6.01c2.17,2.06,5.82,2.76,7.89,4.14c2.06,1.38,3.28,7.6,4.6,10.06c1.31,2.46,5.94-1.32,4.41-10.77
	c-1.52-9.45-5.04-9.27-5.64-13.2c-0.61-3.92,4.53-1.62,6.29-5.64c1.76-4.01-0.63-10.74-1.8-13.88c-1.17-3.13-4.46-4.55-8.14-7.39
	c-3.67-2.85-2.88-4.38-7.52-6.96c-3.6-2.01-7.88-2.5-9.6-2.62c2.02,0.09,7.41,0.43,9.88,1.22c3.07,0.99,4.9,5.82,7.24,7.58
	c2.33,1.78,6.64,2.37,7.32,0.78c0.7-1.6-0.32-5.73-3.82-10.63c-2.66-3.72-4.7-9.97-5.52-12.74
	C402.76,189.29,408.13,206.13,408.13,224.22z"/>
<path class="st4" d="M230.87,227.53c0,0,4.38,2.35,6.88,2.6s6.2-1.58,10.56-1.95c4.36-0.37,9.17,1.33,13.07,0.97
	c0,0-6.61,0.29-9.24,0s-1.55-0.34-4.66-0.32c-3.12,0.02-6.18,1.81-9.13,2.26c-2.96,0.46-3-0.73-5.12,0.33s-2.01,2.47-2.01,2.47
	S230.89,228.43,230.87,227.53z"/>
<path class="st4" d="M235.78,196.57c0,0,9.45,7.53,23.35,9.93c4.98,0.86,10.81-0.86,13.57,4.43c1.92,3.68,9.01,4.93,9.01,4.93
	s-4.21,0.47-7.66-1.92s-1.41-4.36-5.95-5.94c-4.54-1.58-6.84-0.13-9.96-0.62s-10.71-5.36-12.9-3.29c-2.39,2.26,0.58,5.31,4.42,8.02
	c3.84,2.7,8.13,0.62,10.79,1.31c2.66,0.69,3.35,1.06,3.35,1.06s-2.42-0.32-5.99-0.54c-3.57-0.22-4.1,1.3-6.84,0
	c-2.74-1.3-6.09-4.85-7.38-7.46c-1.28-2.61-0.81-4.4-2.99-6.18c-2.18-1.77-6.03,0-6.03,0L235.78,196.57z"/>
<path class="st4" d="M338.33,138.58c0,0,4.39,5.88,4.39,8.12c0,5.43-3.33,10.76-4.74,14.02c-1.77,4.1-1.74,8.62-1.74,8.62v5.09
	c0,0,0.1-5.45,0.99-8.11c0.89-2.66,2.66-2.87,3.15-4.89c0.49-2.01-0.29-4.47,0.94-7.53s2.32-3.13,2.26-5.22s-0.26-5.48,1.62-6.44
	s4-1.06,4-1.06S343.28,139.04,338.33,138.58z"/>
<path class="st4" d="M284.94,143.64c0,0,1.65,0.84,2.81,5.51c0.36,1.46,0.04,3.23,2.5,5.83c2.45,2.61,3.71,3.84,4.3,5.52
	s1.48,5.25,1.48,5.25s-1.87-5.55-3.15-7.13c-1.28-1.58-1.58-1.06-2.96-2.35s-1.04-2.41-2.46-5.76c-1.43-3.36-6.52-4.95-6.52-4.95
	L284.94,143.64z"/>
</svg>
