<svg id="Layer_1" data-name="Layer 1" xmlns="http://www.w3.org/2000/svg" viewBox="0 0 150 100"><defs><style>.cls-1{fill:#1c85ff;}.cls-2{fill:#fff;}</style></defs><rect class="cls-1" x="63.9" y="32.4" width="0.21" height="60.17"/><rect class="cls-1" x="63.9" y="9.65" width="0.21" height="18"/><rect class="cls-1" x="66.37" y="33.49" width="0.21" height="58.61"/><rect class="cls-1" x="66.37" y="11.48" width="0.21" height="17.53"/><rect class="cls-1" x="68.75" y="34.74" width="0.21" height="56.85"/><rect class="cls-1" x="68.75" y="13.31" width="0.21" height="17"/><rect class="cls-1" x="70.88" y="35.73" width="0.21" height="55.39"/><rect class="cls-1" x="70.88" y="14.97" width="0.21" height="16.54"/><rect class="cls-1" x="72.92" y="36.79" width="0.21" height="53.87"/><rect class="cls-1" x="72.92" y="16.58" width="0.21" height="16.04"/><rect class="cls-1" x="3.81" y="73.73" width="143.96" height="0.05"/><polygon class="cls-1" points="60.92 99.95 60.89 99.85 147.75 73.71 147.78 73.81 60.92 99.95"/><rect class="cls-1" x="3.53" y="71.41" width="18.84" height="0.1" transform="translate(-16.96 5.28) rotate(-14.05)"/><polygon class="cls-1" points="87.85 40.77 74.93 33.65 74.98 33.55 87.9 40.68 87.85 40.77"/><rect class="cls-1" x="93.74" y="75.27" width="0.21" height="12.11" transform="translate(4.94 168.03) rotate(-85.19)"/><rect class="cls-1" x="35.27" y="61.29" width="0.21" height="6.93" transform="matrix(0.08, -1, 1, 0.08, -32, 94.84)"/><polygon class="cls-1" points="147.74 73.8 113.33 54.85 113.38 54.76 147.79 73.71 147.74 73.8"/><rect class="cls-1" x="-11.47" y="53.75" width="41.26" height="0.1" transform="matrix(0.25, -0.97, 0.97, 0.25, -45.21, 49.06)"/><polygon class="cls-1" points="147.75 73.81 113.42 61.19 113.45 61.1 147.78 73.71 147.75 73.81"/><polygon class="cls-1" points="85.23 40.33 85.19 40.23 97.38 35.21 97.42 35.31 85.23 40.33"/><rect class="cls-2" x="21.96" y="58.72" width="0.21" height="1.56" transform="translate(-39.55 74.69) rotate(-83.51)"/><rect class="cls-2" x="21.26" y="59.04" width="0.21" height="0.47"/><rect class="cls-2" x="111.98" y="54.07" width="0.21" height="0.48"/><rect class="cls-2" x="111.93" y="43.95" width="0.31" height="1.06"/><polygon class="cls-1" points="147.76 73.81 111.28 67.76 111.29 67.66 147.78 73.7 147.76 73.81"/><polygon class="cls-1" points="76.16 99.85 76.13 99.75 147.75 73.71 147.78 73.81 76.16 99.85"/><polygon class="cls-1" points="147.72 73.77 134.19 35.8 134.28 35.77 147.81 73.74 147.72 73.77"/><rect class="cls-1" x="131.57" y="23.57" width="0.1" height="55.38" transform="translate(-5.2 86.36) rotate(-35.67)"/><rect class="cls-2" x="22.25" y="51.22" width="0.21" height="1.08" transform="translate(-32.49 64.82) rotate(-80.04)"/><polygon class="cls-1" points="41.51 42.4 33.07 39.9 33.1 39.8 41.54 42.3 41.51 42.4"/><rect class="cls-2" x="21.75" y="50.9" width="0.21" height="0.82"/><rect class="cls-1" x="30.6" y="39.81" width="0.21" height="1.12"/><polygon class="cls-2" points="109.39 45.77 109.31 45.47 112.06 44.74 112.14 45.04 109.39 45.77"/><polygon class="cls-1" points="147.73 73.79 115.51 44.57 115.58 44.5 147.8 73.72 147.73 73.79"/><rect class="cls-2" x="79.87" y="36.28" width="0.31" height="1"/><rect class="cls-2" x="101.14" y="48.1" width="0.21" height="0.57"/><polygon class="cls-1" points="3.85 73.8 3.78 73.72 21.25 59.15 21.32 59.23 3.85 73.8"/><rect class="cls-1" x="40.05" y="43.4" width="0.21" height="0.78"/><rect class="cls-2" x="31.1" y="50.88" width="0.1" height="0.56"/><rect class="cls-2" x="88.47" y="51.41" width="0.21" height="0.53"/><polygon class="cls-1" points="87.87 41.71 79.67 37.29 79.72 37.2 87.92 41.62 87.87 41.71"/><polygon class="cls-2" points="109.35 55.08 109.32 54.88 112.1 54.38 112.14 54.59 109.35 55.08"/><polygon class="cls-1" points="42.02 41.97 33.54 39.41 33.57 39.31 42.05 41.87 42.02 41.97"/><rect class="cls-1" x="38.82" y="35.02" width="0.1" height="9.09" transform="translate(-10.52 64.8) rotate(-72.57)"/><polygon class="cls-1" points="43.7 40.55 34.98 37.77 35.02 37.67 43.73 40.45 43.7 40.55"/><rect class="cls-1" x="39.91" y="33.59" width="0.1" height="8.19" transform="translate(-8.45 63.62) rotate(-71.5)"/><rect class="cls-1" x="40.16" y="33.24" width="0.1" height="7.66" transform="translate(-7.85 63.16) rotate(-71.17)"/><rect class="cls-1" x="40.76" y="32.26" width="0.1" height="6.4" transform="translate(-6.33 61.94) rotate(-70.3)"/><rect class="cls-1" x="41.03" y="31.91" width="0.1" height="5.87" transform="translate(-5.73 61.51) rotate(-69.96)"/><rect class="cls-1" x="41.64" y="30.88" width="0.1" height="4.62" transform="translate(-4.2 60.28) rotate(-69.08)"/><rect class="cls-1" x="41.9" y="30.53" width="0.1" height="4.07" transform="translate(-3.61 59.85) rotate(-68.73)"/><polygon class="cls-1" points="43.8 31.47 41.28 30.44 41.32 30.35 43.84 31.38 43.8 31.47"/><polygon class="cls-1" points="43.8 30.73 41.8 29.91 41.84 29.81 43.84 30.64 43.8 30.73"/><polygon class="cls-1" points="35.3 39.33 33.96 38.92 33.99 38.82 35.33 39.23 35.3 39.33"/><polygon class="cls-1" points="37.53 40.02 36.21 39.61 36.24 39.51 37.56 39.92 37.53 40.02"/><polygon class="cls-1" points="39.86 40.73 38.56 40.33 38.59 40.23 39.89 40.63 39.86 40.73"/><polygon class="cls-1" points="42.52 41.55 40.95 41.07 40.98 40.97 42.55 41.45 42.52 41.55"/><rect class="cls-1" x="36.01" y="36.76" width="0.1" height="1.46" transform="translate(-10.73 60.22) rotate(-72.03)"/><rect class="cls-1" x="38.34" y="37.54" width="0.1" height="1.42" transform="translate(-9.84 62.95) rotate(-72.01)"/><rect class="cls-1" x="40.75" y="38.31" width="0.1" height="1.44" transform="translate(-8.93 65.78) rotate(-72.01)"/><rect class="cls-1" x="43.17" y="39.15" width="0.1" height="1.33" transform="translate(-7.99 68.64) rotate(-72.02)"/><rect class="cls-1" x="37.66" y="34.87" width="0.1" height="1.48" transform="translate(-8.28 59.59) rotate(-70.89)"/><rect class="cls-1" x="40.08" y="35.72" width="0.1" height="1.46" transform="translate(-7.44 62.45) rotate(-70.9)"/><rect class="cls-1" x="42.58" y="36.55" width="0.1" height="1.54" transform="translate(-6.58 65.4) rotate(-70.9)"/><rect class="cls-1" x="39.42" y="32.89" width="0.1" height="1.61" transform="translate(-5.83 59.02) rotate(-69.69)"/><rect class="cls-1" x="41.89" y="33.83" width="0.1" height="1.56" transform="translate(-5.06 61.95) rotate(-69.7)"/><polygon class="cls-1" points="43.81 32.71 40.48 31.39 40.52 31.3 43.84 32.61 43.81 32.71"/><rect class="cls-1" x="42.97" y="28.79" width="0.1" height="1.72" transform="translate(-1 57.8) rotate(-67.17)"/><polygon class="cls-1" points="33.94 40.85 30.66 39.9 30.69 39.8 33.97 40.75 33.94 40.85"/><rect class="cls-1" x="35.43" y="40.59" width="0.1" height="1.3" transform="translate(-14 63.85) rotate(-73.85)"/><polygon class="cls-1" points="38.38 42.14 37.1 41.77 37.13 41.67 38.41 42.04 38.38 42.14"/><polygon class="cls-1" points="40.91 42.87 39.39 42.43 39.42 42.33 40.94 42.77 40.91 42.87"/><rect class="cls-1" x="85.46" y="38.13" width="13.05" height="0.1" transform="translate(-7.61 37.25) rotate(-22.01)"/><polygon class="cls-1" points="82.92 39.05 82.87 38.96 95.24 33.53 95.28 33.62 82.92 39.05"/><polygon class="cls-1" points="83.59 39.42 83.55 39.32 95.88 34.01 95.92 34.1 83.59 39.42"/><polygon class="cls-1" points="80.4 37.73 80.36 37.63 92.87 31.74 92.91 31.83 80.4 37.73"/><rect class="cls-1" x="82.36" y="35.39" width="12.48" height="0.1" transform="translate(-6.76 38.93) rotate(-23.9)"/><polygon class="cls-1" points="81.09 38.08 81.05 37.98 93.5 32.22 93.55 32.32 81.09 38.08"/><polygon class="cls-1" points="3.86 73.78 3.77 73.73 18.09 43.42 18.18 43.47 3.86 73.78"/><rect class="cls-1" x="78.06" y="32.78" width="13.02" height="0.1" transform="translate(-5.72 41.68) rotate(-26.81)"/><rect class="cls-1" x="90.66" y="63.75" width="9.25" height="0.21" transform="translate(-6.06 10.14) rotate(-5.9)"/><polygon class="cls-1" points="79.47 36.17 79.42 36.08 90.99 30.32 91.04 30.41 79.47 36.17"/><polygon class="cls-1" points="75.99 34.23 75.94 34.13 87.6 27.74 87.65 27.83 75.99 34.23"/><polygon class="cls-1" points="76.61 34.6 76.56 34.51 88.24 28.22 88.29 28.31 76.61 34.6"/><polygon class="cls-1" points="74.95 31.51 74.89 31.42 84.76 25.56 84.81 25.64 74.95 31.51"/><polygon class="cls-1" points="74.94 32.27 74.89 32.18 85.4 26.04 85.45 26.13 74.94 32.27"/><rect class="cls-1" x="74.29" y="25.23" width="7.88" height="0.1" transform="translate(-1.1 46.86) rotate(-33.13)"/><polygon class="cls-1" points="74.96 28.29 74.9 28.21 82.15 23.57 82.2 23.66 74.96 28.29"/><rect class="cls-1" x="74.56" y="21.71" width="4.02" height="0.1" transform="translate(1.59 48.49) rotate(-35.49)"/><polygon class="cls-1" points="74.97 23.87 74.91 23.79 78.81 21.03 78.88 21.12 74.97 23.87"/><polygon class="cls-1" points="33.6 41.73 33.52 41.66 43.81 30.58 43.88 30.65 33.6 41.73"/><rect class="cls-1" x="85.21" y="39.24" width="0.1" height="1.02"/><rect class="cls-1" x="82.86" y="38.01" width="0.1" height="0.98"/><rect class="cls-1" x="80.37" y="36.59" width="0.1" height="1.08"/><polygon class="cls-1" points="85.25 39.38 85.21 39.29 96.49 34.52 96.53 34.62 85.25 39.38"/><polygon class="cls-1" points="74.96 30.39 74.91 30.31 83.85 24.85 83.91 24.93 74.96 30.39"/><polygon class="cls-1" points="74.97 33.73 74.92 33.64 86.64 27.04 86.69 27.13 74.97 33.73"/><polygon class="cls-1" points="77.77 35.28 77.72 35.19 89.47 29.12 89.52 29.21 77.77 35.28"/><polygon class="cls-1" points="80.41 36.69 80.36 36.59 91.89 31.01 91.93 31.1 80.41 36.69"/><rect class="cls-1" x="64.1" y="27.63" width="0.1" height="1.08"/><rect class="cls-1" x="74.67" y="20.72" width="2.96" height="0.1" transform="translate(2.44 48.99) rotate(-36.21)"/><polygon class="cls-1" points="74.97 26.26 74.91 26.17 80.71 22.29 80.77 22.38 74.97 26.26"/><polygon class="cls-1" points="61.09 83.56 61.08 83.56 43.78 80.63 43.81 80.43 61.09 83.36 75.2 81.78 75.23 81.98 61.09 83.56"/><rect class="cls-1" x="99.73" y="78.49" width="9.72" height="0.21" transform="translate(-8.16 12.23) rotate(-6.44)"/><polygon class="cls-1" points="61.09 88.46 61.07 88.46 43.8 84.06 43.85 83.85 61.1 88.25 75.14 85.88 75.17 86.09 61.09 88.46"/><polygon class="cls-1" points="99.8 81.94 99.77 81.73 109.37 80.12 109.41 80.32 99.8 81.94"/><polygon class="cls-1" points="61.09 78.8 61.08 78.8 43.79 77.31 43.81 77.1 61.09 78.59 75.05 77.79 75.06 78 61.09 78.8"/><rect class="cls-1" x="99.75" y="76.11" width="9.69" height="0.21" transform="translate(-4.12 5.99) rotate(-3.22)"/><polygon class="cls-1" points="22.75 72.29 22.73 72.08 61.09 68.89 61.1 68.89 109.43 71.55 109.42 71.75 61.09 69.1 22.75 72.29"/><rect class="cls-1" x="61.18" y="88.31" width="0.1" height="4.85"/><polygon class="cls-1" points="22.76 70.71 22.73 70.5 61.13 64.12 61.15 64.12 109.4 69.43 109.38 69.64 61.14 64.33 22.76 70.71"/><rect class="cls-1" x="22.5" y="65.88" width="9.7" height="0.21" transform="matrix(0.95, -0.31, 0.31, 0.95, -19.29, 11.89)"/><polygon class="cls-1" points="43.82 60.65 43.76 60.45 61.1 54.72 61.13 54.73 74.93 57.77 74.89 57.97 61.11 54.94 43.82 60.65"/><polygon class="cls-1" points="109.36 65.57 99.76 63.45 99.8 63.25 109.41 65.37 109.36 65.57"/><rect class="cls-1" x="22.35" y="64.14" width="9.99" height="0.21" transform="translate(-21.98 14.83) rotate(-21.89)"/><polygon class="cls-1" points="43.8 57.71 43.72 57.52 61.1 50.49 61.13 50.5 75.14 54.24 75.08 54.44 61.11 50.71 43.8 57.71"/><rect class="cls-1" x="104.45" y="57.21" width="0.21" height="10" transform="translate(17.47 147.17) rotate(-75.04)"/><rect class="cls-1" x="22.25" y="62.49" width="10.22" height="0.21" transform="translate(-24.18 17.76) rotate(-25.37)"/><polygon class="cls-1" points="43.79 54.92 43.7 54.73 61.1 46.49 75.04 50.86 74.98 51.06 61.11 46.71 43.79 54.92"/><polygon class="cls-1" points="109.38 61.84 99.78 58.83 99.84 58.63 109.44 61.64 109.38 61.84"/><rect class="cls-1" x="22.08" y="60.86" width="10.56" height="0.21" transform="translate(-25.84 20.53) rotate(-28.6)"/><polygon class="cls-1" points="43.81 52.14 43.71 51.96 61.1 42.51 61.14 42.53 75.15 47.56 75.08 47.76 61.12 42.74 43.81 52.14"/><rect class="cls-1" x="104.5" y="53.17" width="0.21" height="10.16" transform="translate(14.42 137) rotate(-70.24)"/><rect class="cls-1" x="21.95" y="59.19" width="10.87" height="0.21" transform="matrix(0.85, -0.52, 0.52, 0.85, -26.92, 23.01)"/><polygon class="cls-1" points="43.77 49.37 43.67 49.19 61.1 38.5 75.06 44.16 74.99 44.35 61.12 38.73 43.77 49.37"/><polygon class="cls-1" points="109.37 58.3 99.79 54.42 99.87 54.22 109.45 58.11 109.37 58.3"/><rect class="cls-1" x="31.9" y="36.69" width="14.15" height="0.1" transform="translate(-14.5 39.73) rotate(-46.51)"/><polygon class="cls-1" points="33.61 41.18 33.54 41.11 34.38 40.18 34.46 40.25 33.61 41.18"/><rect class="cls-1" x="35.09" y="38.92" width="0.93" height="0.1" transform="translate(-17.2 39.01) rotate(-47.66)"/><rect class="cls-1" x="36.5" y="37.24" width="1.2" height="0.1" transform="translate(-15.46 39.44) rotate(-47.5)"/><polygon class="cls-1" points="38.43 35.9 38.35 35.83 39.23 34.87 39.31 34.94 38.43 35.9"/><rect class="cls-1" x="39.93" y="33.41" width="1.33" height="0.1" transform="translate(-11.41 41.45) rotate(-48.23)"/><polygon class="cls-1" points="41.98 32.01 41.9 31.94 43.81 29.85 43.89 29.92 41.98 32.01"/><rect class="cls-1" x="34.12" y="38.25" width="11.35" height="0.1" transform="translate(-15.43 38.95) rotate(-44.57)"/><polygon class="cls-1" points="36.4 42.48 36.32 42.41 43.82 35.19 43.89 35.27 36.4 42.48"/><polygon class="cls-1" points="35.79 41.78 35.72 41.71 36.59 40.83 36.66 40.91 35.79 41.78"/><polygon class="cls-1" points="37.53 40.04 37.46 39.96 38.11 39.3 38.19 39.38 37.53 40.04"/><polygon class="cls-1" points="39.06 38.5 38.99 38.43 39.8 37.61 39.88 37.68 39.06 38.5"/><polygon class="cls-1" points="40.82 36.73 40.75 36.66 41.65 35.76 41.73 35.83 40.82 36.73"/><polygon class="cls-1" points="42.67 34.88 42.6 34.81 43.55 33.85 43.62 33.93 42.67 34.88"/><polygon class="cls-1" points="38.03 42.97 37.96 42.89 43.81 37.62 43.88 37.69 38.03 42.97"/><rect class="cls-1" x="37.74" y="40.75" width="7" height="0.1" transform="translate(-16.68 37.41) rotate(-41.34)"/><rect class="cls-1" x="37.81" y="41.91" width="1.29" height="0.1" transform="translate(-18.26 37.09) rotate(-42.58)"/><rect class="cls-1" x="39.7" y="40.33" width="0.96" height="0.1" transform="translate(-16.73 37.79) rotate(-42.54)"/><rect class="cls-1" x="41.27" y="38.79" width="1.18" height="0.1" transform="translate(-15.24 38.49) rotate(-42.51)"/><rect class="cls-1" x="43.17" y="37.23" width="0.77" height="0.1" transform="translate(-13.74 39.43) rotate(-42.71)"/><rect class="cls-1" x="37.96" y="42.33" width="0.1" height="0.61"/><rect class="cls-1" x="35.71" y="41.69" width="0.1" height="0.6"/><rect class="cls-1" x="33.53" y="41.08" width="0.1" height="0.6"/><rect class="cls-1" x="35.19" y="39.3" width="0.1" height="0.6"/><rect class="cls-1" x="36.67" y="37.68" width="0.1" height="0.6"/><rect class="cls-1" x="38.37" y="35.85" width="0.1" height="0.6"/><rect class="cls-1" x="40.16" y="33.89" width="0.1" height="0.67"/><rect class="cls-1" x="41.96" y="31.93" width="0.1" height="0.69"/><rect class="cls-1" x="42.63" y="34.77" width="0.1" height="0.69"/><rect class="cls-1" x="40.75" y="36.63" width="0.1" height="0.69"/><rect class="cls-1" x="39.01" y="38.39" width="0.1" height="0.69"/><rect class="cls-1" x="37.46" y="39.91" width="0.1" height="0.69"/><rect class="cls-1" x="39.79" y="40.62" width="0.1" height="0.69"/><rect class="cls-1" x="41.42" y="39.18" width="0.1" height="0.63"/><rect class="cls-1" x="43.24" y="37.48" width="0.1" height="0.69"/><rect class="cls-1" x="81.22" y="37.11" width="0.21" height="14.29" transform="translate(7.87 100.62) rotate(-66.06)"/><rect class="cls-1" x="21.75" y="57.61" width="11.23" height="0.21" transform="translate(-27.74 25.42) rotate(-34.26)"/><polygon class="cls-1" points="43.79 46.65 43.67 46.47 61.1 34.6 75.05 40.89 74.97 41.08 61.12 34.84 43.79 46.65"/><rect class="cls-1" x="104.5" y="49.06" width="0.21" height="10.5" transform="translate(12.12 127.38) rotate(-65.75)"/><rect class="cls-1" x="100" y="47.75" width="0.21" height="0.79" transform="translate(10.37 113.61) rotate(-61.8)"/><rect class="cls-1" x="21.19" y="53.07" width="12.28" height="0.21" transform="translate(-28.23 31.08) rotate(-41.11)"/><polygon class="cls-1" points="43.86 38.84 43.73 38.69 61.09 23.49 75.07 31.57 74.97 31.75 61.12 23.74 43.86 38.84"/><rect class="cls-1" x="104.46" y="43.18" width="0.21" height="11.17" transform="translate(10 114.85) rotate(-59.95)"/><rect class="cls-1" x="20.94" y="51.13" width="12.79" height="0.21" transform="translate(-27.85 33.15) rotate(-43.77)"/><polygon class="cls-1" points="43.86 35.54 43.71 35.39 61.09 18.74 75.07 27.59 74.95 27.77 61.12 19.01 43.86 35.54"/><rect class="cls-1" x="104.5" y="40.74" width="0.21" height="11.37" transform="translate(9.42 109.95) rotate(-57.65)"/><polygon class="cls-1" points="22.8 54.27 22.66 54.12 31.87 44.59 32.02 44.73 22.8 54.27"/><polygon class="cls-1" points="43.87 32.48 43.72 32.34 61.09 14.37 61.16 14.42 75.1 23.94 74.98 24.12 61.12 14.64 43.87 32.48"/><rect class="cls-1" x="104.5" y="38.44" width="0.21" height="11.6" transform="translate(9.04 105.62) rotate(-55.64)"/><polygon class="cls-1" points="22.82 53.04 22.66 52.9 31.89 42.78 32.04 42.92 22.82 53.04"/><polygon class="cls-1" points="43.83 29.97 43.68 29.83 61.09 10.71 75.17 20.92 75.04 21.09 61.12 10.98 43.83 29.97"/><polygon class="cls-1" points="109.31 45.96 99.76 39.03 99.88 38.86 99.89 38.87 109.43 45.79 109.31 45.96"/><rect class="cls-1" x="87.81" y="61.64" width="12.08" height="0.21" transform="translate(-7.3 12.86) rotate(-7.55)"/><rect class="cls-1" x="87.81" y="59.57" width="12.12" height="0.21" transform="translate(-8.09 15.21) rotate(-8.88)"/><polygon class="cls-1" points="87.89 58.8 87.85 58.59 99.84 56.45 99.88 56.65 87.89 58.8"/><rect class="cls-1" x="87.73" y="55.44" width="12.24" height="0.21" transform="translate(-9.07 19.48) rotate(-11.31)"/><polygon class="cls-1" points="87.88 54.98 87.83 54.77 99.82 52.09 99.86 52.29 87.88 54.98"/><polygon class="cls-1" points="87.88 51.29 87.83 51.09 99.82 47.88 99.88 48.08 87.88 51.29"/><rect class="cls-1" x="87.61" y="47.64" width="12.49" height="0.21" transform="translate(-9.55 27.83) rotate(-16.06)"/><rect class="cls-1" x="87.53" y="45.19" width="12.6" height="0.21" transform="matrix(0.95, -0.3, 0.3, 0.95, -9.33, 30.71)"/><polygon class="cls-1" points="87.91 43.41 87.84 43.22 99.84 38.88 99.91 39.08 87.91 43.41"/><polygon class="cls-1" points="87.86 45.16 87.8 44.97 99.8 40.88 99.86 41.08 87.86 45.16"/><rect class="cls-1" x="37.77" y="57.01" width="0.21" height="11.91" transform="translate(-28.49 94.5) rotate(-84.39)"/><polygon class="cls-1" points="43.79 61.89 31.95 60.52 31.97 60.31 43.81 61.68 43.79 61.89"/><rect class="cls-1" x="37.81" y="53.26" width="0.21" height="11.99" transform="translate(-25.79 89.08) rotate(-82.48)"/><rect class="cls-1" x="37.8" y="51.38" width="0.21" height="12.03" transform="translate(-24.44 86.43) rotate(-81.53)"/><polygon class="cls-1" points="43.81 56.67 31.94 54.7 31.98 54.5 43.84 56.46 43.81 56.67"/><rect class="cls-1" x="37.81" y="44.32" width="0.21" height="12.2" transform="translate(-19.28 77.03) rotate(-78)"/><rect class="cls-1" x="37.79" y="42.1" width="0.21" height="12.21" transform="translate(-17.64 74.2) rotate(-76.91)"/><rect class="cls-1" x="37.81" y="40.01" width="0.21" height="12.34" transform="translate(-16.11 71.72) rotate(-75.91)"/><rect class="cls-1" x="37.79" y="38.32" width="0.21" height="12.3" transform="translate(-14.84 69.63) rotate(-75.07)"/><rect class="cls-1" x="33.27" y="52.89" width="0.21" height="13.57"/><rect class="cls-1" x="33.27" y="41.55" width="0.21" height="9.84"/><rect class="cls-1" x="42.41" y="54.6" width="0.21" height="9.6"/><rect class="cls-1" x="42.41" y="44.67" width="0.21" height="8.57"/><rect class="cls-1" x="58.28" y="32.85" width="0.21" height="59.64"/><rect class="cls-1" x="58.28" y="10.58" width="0.21" height="17.75"/><rect class="cls-1" x="55.55" y="34.86" width="0.21" height="56.66"/><rect class="cls-1" x="55.55" y="13.81" width="0.21" height="16.78"/><rect class="cls-1" x="53" y="36.77" width="0.21" height="53.9"/><rect class="cls-1" x="53" y="16.81" width="0.21" height="15.94"/><rect class="cls-1" x="50.45" y="38.68" width="0.21" height="51.08"/><rect class="cls-1" x="50.45" y="19.58" width="0.21" height="15.14"/><rect class="cls-1" x="48.06" y="40.49" width="0.21" height="48.47"/><rect class="cls-1" x="48.06" y="22.4" width="0.21" height="14.4"/><rect class="cls-1" x="45.81" y="42.16" width="0.21" height="46.01"/><rect class="cls-1" x="45.81" y="25.17" width="0.21" height="13.42"/><rect class="cls-1" x="30.82" y="53.41" width="0.21" height="29.62"/><rect class="cls-1" x="30.82" y="42.34" width="0.21" height="8.86"/><rect class="cls-1" x="29.8" y="54.11" width="0.21" height="28.58"/><rect class="cls-1" x="29.8" y="43.58" width="0.21" height="8.46"/><rect class="cls-1" x="28.82" y="54.84" width="0.21" height="27.47"/><rect class="cls-1" x="28.82" y="44.7" width="0.21" height="8.14"/><rect class="cls-1" x="27.92" y="55.6" width="0.21" height="26.44"/><rect class="cls-1" x="27.92" y="45.72" width="0.21" height="7.85"/><rect class="cls-1" x="27.06" y="56.25" width="0.21" height="25.49"/><rect class="cls-1" x="27.06" y="46.66" width="0.21" height="7.69"/><rect class="cls-1" x="26.24" y="56.88" width="0.21" height="24.52"/><rect class="cls-1" x="26.24" y="47.65" width="0.21" height="7.35"/><rect class="cls-1" x="25.43" y="57.47" width="0.21" height="23.69"/><rect class="cls-1" x="25.43" y="48.73" width="0.21" height="6.89"/><rect class="cls-1" x="24.64" y="58.07" width="0.21" height="22.88"/><rect class="cls-1" x="24.64" y="49.54" width="0.21" height="6.73"/><rect class="cls-1" x="23.9" y="58.59" width="0.21" height="21.99"/><rect class="cls-1" x="23.9" y="50.32" width="0.21" height="6.66"/><rect class="cls-1" x="23.23" y="59.14" width="0.21" height="21.3"/><rect class="cls-1" x="23.23" y="51.05" width="0.21" height="6.51"/><rect class="cls-1" x="88.98" y="73.83" width="0.21" height="9.64"/><rect class="cls-1" x="88.98" y="52.68" width="0.21" height="11.4"/><rect class="cls-1" x="88.98" y="41.17" width="0.21" height="10.13"/><rect class="cls-1" x="90.17" y="73.81" width="0.21" height="9.73"/><rect class="cls-1" x="90.17" y="52.37" width="0.21" height="11.93"/><rect class="cls-1" x="90.17" y="40.75" width="0.21" height="10.27"/><rect class="cls-1" x="91.42" y="73.79" width="0.21" height="9.85"/><rect class="cls-1" x="91.42" y="52.07" width="0.21" height="12.46"/><rect class="cls-1" x="91.42" y="40.18" width="0.21" height="10.51"/><rect class="cls-1" x="92.74" y="73.79" width="0.21" height="9.96"/><rect class="cls-1" x="92.74" y="51.78" width="0.21" height="12.96"/><rect class="cls-1" x="92.74" y="39.7" width="0.21" height="10.63"/><rect class="cls-1" x="94.03" y="73.8" width="0.21" height="10.05"/><rect class="cls-1" x="94.03" y="51.45" width="0.21" height="13.51"/><rect class="cls-1" x="94.03" y="39.24" width="0.21" height="10.76"/><rect class="cls-1" x="95.38" y="73.79" width="0.21" height="10.23"/><rect class="cls-1" x="95.38" y="51.09" width="0.21" height="14.08"/><rect class="cls-1" x="95.38" y="38.72" width="0.21" height="10.91"/><rect class="cls-1" x="96.74" y="73.78" width="0.21" height="10.4"/><rect class="cls-1" x="96.74" y="50.74" width="0.21" height="14.62"/><rect class="cls-1" x="96.74" y="38.2" width="0.21" height="11.02"/><rect class="cls-1" x="98.2" y="73.78" width="0.21" height="10.56"/><rect class="cls-1" x="98.2" y="50.39" width="0.21" height="15.22"/><rect class="cls-1" x="98.2" y="37.73" width="0.21" height="11.17"/><rect class="cls-1" x="101.14" y="50.77" width="0.21" height="33.41"/><rect class="cls-1" x="101.14" y="38.12" width="0.21" height="10.04"/><rect class="cls-1" x="102.44" y="51.37" width="0.21" height="32.55"/><rect class="cls-1" x="102.44" y="39.22" width="0.21" height="9.62"/><rect class="cls-1" x="103.69" y="51.99" width="0.21" height="31.65"/><rect class="cls-1" x="103.69" y="40.09" width="0.21" height="9.47"/><rect class="cls-1" x="104.91" y="52.58" width="0.21" height="30.82"/><rect class="cls-1" x="104.91" y="40.99" width="0.21" height="9.21"/><rect class="cls-1" x="106.07" y="53.22" width="0.21" height="29.8"/><rect class="cls-1" x="106.07" y="41.96" width="0.21" height="8.86"/><rect class="cls-1" x="107.23" y="53.72" width="0.21" height="29.1"/><rect class="cls-1" x="107.23" y="42.81" width="0.21" height="8.67"/><rect class="cls-1" x="108.29" y="54.27" width="0.21" height="28.35"/><rect class="cls-1" x="108.29" y="43.75" width="0.21" height="8.31"/><rect class="cls-1" x="93.74" y="72.79" width="0.21" height="12.02" transform="translate(9.91 168.09) rotate(-86.79)"/><rect class="cls-1" x="93.74" y="70.3" width="0.21" height="12.07" transform="translate(14.85 167.96) rotate(-88.36)"/><rect class="cls-1" x="80.02" y="62.55" width="0.21" height="11.3"/><rect class="cls-1" x="82.52" y="63.02" width="0.21" height="10.78"/><rect class="cls-1" x="84.76" y="63.39" width="0.21" height="10.42"/><rect class="cls-1" x="85.26" y="73.79" width="0.21" height="9.91"/><rect class="cls-1" x="85.26" y="52.08" width="0.21" height="11.42"/><rect class="cls-1" x="85.26" y="40.16" width="0.21" height="10.12"/><rect class="cls-1" x="82.52" y="73.71" width="0.21" height="10.43"/><rect class="cls-1" x="82.52" y="51.15" width="0.21" height="11.91"/><rect class="cls-1" x="82.52" y="38.65" width="0.21" height="10.6"/><rect class="cls-1" x="79.64" y="73.85" width="0.21" height="10.75"/><rect class="cls-1" x="79.64" y="50.17" width="0.21" height="12.37"/><rect class="cls-1" x="79.64" y="37.29" width="0.21" height="10.85"/><rect class="cls-1" x="76.76" y="73.85" width="0.21" height="11.23"/><rect class="cls-1" x="76.76" y="49.18" width="0.21" height="12.83"/><rect class="cls-1" x="76.76" y="38.59" width="0.21" height="8.44"/><rect class="cls-1" x="90.51" y="64.38" width="0.21" height="9.4"/><rect class="cls-1" x="92.02" y="64.56" width="0.21" height="9.3"/><rect class="cls-1" x="93.48" y="64.82" width="0.21" height="8.97"/><rect class="cls-1" x="94.84" y="65.09" width="0.21" height="8.67"/><rect class="cls-1" x="96.12" y="65.31" width="0.21" height="8.44"/><rect class="cls-1" x="97.37" y="65.5" width="0.21" height="8.35"/><rect class="cls-1" x="98.64" y="65.69" width="0.21" height="8.13"/><rect class="cls-1" x="77.42" y="62.14" width="0.21" height="11.61"/><rect class="cls-1" x="86.72" y="63.65" width="0.21" height="10.21"/><rect class="cls-1" x="88.67" y="63.95" width="0.21" height="9.87"/><rect class="cls-1" x="81.29" y="50.39" width="0.21" height="13.31" transform="translate(6.2 122.04) rotate(-75.86)"/><rect class="cls-1" x="34.66" y="53.18" width="0.21" height="12.97"/><rect class="cls-1" x="34.66" y="41.95" width="0.21" height="9.75"/><rect class="cls-1" x="35.96" y="53.42" width="0.21" height="12.36"/><rect class="cls-1" x="35.96" y="42.34" width="0.21" height="9.63"/><rect class="cls-1" x="37.25" y="53.68" width="0.21" height="11.78"/><rect class="cls-1" x="37.25" y="42.72" width="0.21" height="9.49"/><rect class="cls-1" x="38.54" y="53.88" width="0.21" height="11.24"/><rect class="cls-1" x="38.54" y="43.02" width="0.21" height="9.42"/><rect class="cls-1" x="39.83" y="54.15" width="0.21" height="10.64"/><rect class="cls-1" x="39.83" y="43.46" width="0.21" height="9.26"/><rect class="cls-1" x="41.12" y="54.34" width="0.21" height="10.16"/><rect class="cls-1" x="33.32" y="73.82" width="0.1" height="9.38"/><rect class="cls-1" x="42.46" y="73.79" width="0.1" height="8.78"/><rect class="cls-1" x="34.72" y="73.86" width="0.1" height="9.21"/><rect class="cls-1" x="36.01" y="73.79" width="0.1" height="9.23"/><rect class="cls-1" x="37.3" y="73.85" width="0.1" height="9.06"/><rect class="cls-1" x="38.59" y="73.8" width="0.1" height="9.01"/><rect class="cls-1" x="39.88" y="73.8" width="0.1" height="8.95"/><rect class="cls-1" x="41.17" y="73.8" width="0.1" height="8.84"/><rect class="cls-1" x="41.12" y="44.41" width="0.21" height="8.56"/><rect class="cls-1" x="41.79" y="64.18" width="0.21" height="9.74"/><rect class="cls-1" x="39.92" y="64.64" width="0.21" height="9.32"/><rect class="cls-1" x="38.25" y="65.12" width="0.21" height="8.7"/><rect class="cls-1" x="36.77" y="65.4" width="0.21" height="8.39"/><rect class="cls-1" x="35.39" y="65.82" width="0.21" height="8.07"/><rect class="cls-1" x="34.08" y="66.11" width="0.21" height="7.76"/><rect class="cls-1" x="32.91" y="66.44" width="0.21" height="7.45"/><polygon class="cls-1" points="31.99 65.95 31.96 65.85 43.84 62.53 43.87 62.63 31.99 65.95"/><rect class="cls-1" x="87.36" y="49.72" width="0.1" height="25.21" transform="translate(11.16 137.89) rotate(-80.23)"/><polygon class="cls-2" points="33.09 88.85 33.06 88.64 43.84 87.23 43.87 87.44 33.09 88.85"/><polygon class="cls-1" points="88.8 99.36 88.77 99.32 147.76 73.73 147.78 73.78 88.8 99.36"/><polygon class="cls-1" points="136.02 99.73 135.98 99.71 147.74 73.75 147.79 73.77 136.02 99.73"/><polygon class="cls-1" points="16.66 99.78 3.79 73.77 3.84 73.74 16.7 99.76 16.66 99.78"/><polygon class="cls-1" points="99.32 99.78 99.29 99.73 147.75 73.73 147.78 73.78 99.32 99.78"/><polygon class="cls-1" points="8.41 99.73 3.79 73.76 3.84 73.75 8.46 99.73 8.41 99.73"/><polygon class="cls-1" points="110.01 99.81 109.98 99.77 147.75 73.73 147.78 73.78 110.01 99.81"/><polygon class="cls-1" points="119.23 99.81 119.19 99.77 147.74 73.73 147.78 73.77 119.23 99.81"/><polygon class="cls-1" points="128.1 99.8 128.06 99.77 147.74 73.74 147.78 73.77 128.1 99.8"/><polygon class="cls-1" points="143 99.75 142.95 99.73 147.74 73.75 147.79 73.76 143 99.75"/><rect class="cls-1" x="41.65" y="86.76" width="107.71" height="0.05" transform="translate(-18.48 26.29) rotate(-14.31)"/><polygon class="cls-1" points="20.91 99.85 20.9 99.8 147.76 73.73 147.77 73.78 20.91 99.85"/><polygon class="cls-1" points="0.33 98.68 0.31 98.58 147.76 73.7 147.78 73.81 0.33 98.68"/><polygon class="cls-1" points="0.38 94.25 0.37 94.2 147.76 73.73 147.77 73.78 0.38 94.25"/><polygon class="cls-1" points="0.27 90.77 0.26 90.72 147.76 73.73 147.77 73.78 0.27 90.77"/><rect class="cls-1" x="-0.11" y="80.63" width="148.2" height="0.05" transform="translate(-7.14 7.18) rotate(-5.3)"/><rect class="cls-1" x="-0.06" y="79.32" width="148.04" height="0.05" transform="translate(-5.75 5.78) rotate(-4.31)"/><polygon class="cls-1" points="0.27 82.37 0.26 82.32 147.76 73.73 147.77 73.78 0.27 82.37"/><polygon class="cls-1" points="0.16 79.98 0.15 79.93 147.77 73.73 147.77 73.78 0.16 79.98"/><rect class="cls-1" x="0.18" y="75.68" width="147.61" height="0.05" transform="translate(-2.02 2.03) rotate(-1.55)"/><polygon class="cls-1" points="27.68 99.75 3.79 73.77 3.83 73.74 27.72 99.71 27.68 99.75"/><polygon class="cls-1" points="39.23 99.58 3.8 73.78 3.83 73.73 39.26 99.54 39.23 99.58"/><polygon class="cls-1" points="52.58 99.78 3.8 73.78 3.83 73.73 52.61 99.73 52.58 99.78"/><polygon class="cls-1" points="67.86 99.75 3.8 73.78 3.82 73.73 67.88 99.7 67.86 99.75"/><rect class="cls-1" x="44.08" y="44.41" width="0.05" height="84.68" transform="translate(-52 102.1) rotate(-72.12)"/><rect class="cls-1" x="52.38" y="36.47" width="0.05" height="100.6" transform="matrix(0.26, -0.97, 0.97, 0.26, -44.97, 114.94)"/><polygon class="cls-1" points="118.07 99.85 3.81 73.78 3.82 73.73 118.08 99.8 118.07 99.85"/><polygon class="cls-1" points="140.9 99.88 3.81 73.78 3.82 73.73 140.91 99.83 140.9 99.88"/><polygon class="cls-1" points="147.71 96.63 3.81 73.78 3.82 73.73 147.72 96.58 147.71 96.63"/><polygon class="cls-1" points="148.14 92.28 3.81 73.78 3.82 73.73 148.14 92.23 148.14 92.28"/><polygon class="cls-1" points="148.23 88.55 3.81 73.78 3.82 73.73 148.23 88.5 148.23 88.55"/><rect class="cls-1" x="76.2" y="6.54" width="0.05" height="145.23" transform="translate(-8.37 149.28) rotate(-85.74)"/><polygon class="cls-1" points="148.85 79.82 3.81 73.78 3.81 73.73 148.86 79.77 148.85 79.82"/><rect class="cls-2" x="60.95" y="1.31" width="0.31" height="93.01"/><rect class="cls-2" x="12.01" y="28.42" width="61.76" height="0.31" transform="translate(-6.81 42.23) rotate(-49.04)"/><rect class="cls-2" x="84.72" y="-6.7" width="0.31" height="64.74" transform="translate(12.93 77.51) rotate(-52.6)"/><rect class="cls-2" x="88.3" y="50.18" width="13.2" height="0.21" transform="matrix(0.97, -0.25, 0.25, 0.97, -9.65, 25.7)"/><polygon class="cls-2" points="22.74 59.72 22.62 59.55 31.89 52.62 32.02 52.78 22.74 59.72"/><rect class="cls-2" x="41.23" y="36.06" width="25.51" height="0.31" transform="translate(-10.93 39.63) rotate(-36.87)"/><polygon class="cls-2" points="43.86 54.97 31.93 52.8 31.96 52.59 43.9 54.77 43.86 54.97"/><rect class="cls-2" x="81.59" y="42.08" width="0.31" height="14.61" transform="translate(7.12 108.98) rotate(-69.74)"/><rect class="cls-2" x="74.83" y="18.02" width="0.31" height="73.7"/><rect class="cls-2" x="99.69" y="37.06" width="0.31" height="49.34"/><rect class="cls-2" x="109.22" y="44.22" width="0.31" height="39.06"/><rect class="cls-2" x="87.73" y="40.55" width="0.31" height="23.34"/><rect class="cls-2" x="66.36" y="24.12" width="0.31" height="18.88" transform="translate(6.94 78.29) rotate(-63.68)"/><polygon class="cls-2" points="109.69 55.03 98.34 49.42 98.44 49.23 109.78 54.85 109.69 55.03"/><polygon class="cls-2" points="87.85 53.11 87.8 52.91 102.55 49.27 102.6 49.47 87.85 53.11"/><rect class="cls-2" x="74.5" y="17.19" width="2.92" height="0.31" transform="translate(5.44 50.48) rotate(-38.03)"/><rect class="cls-2" x="19.85" y="55.32" width="12.8" height="0.21" transform="translate(-29.12 29.07) rotate(-39.2)"/><rect class="cls-2" x="37.05" y="35.35" width="27.22" height="0.31" transform="translate(-11.04 39.97) rotate(-39.17)"/><rect class="cls-2" x="70.39" y="21.3" width="0.31" height="21.54" transform="translate(8.82 78.91) rotate(-61.64)"/><polygon class="cls-2" points="112.07 54.6 101.1 48.68 101.2 48.5 112.17 54.42 112.07 54.6"/><rect class="cls-2" x="81.24" y="43.86" width="0.31" height="13.8" transform="translate(6.88 111.16) rotate(-70.98)"/><polygon class="cls-2" points="21.96 51.8 21.72 51.6 61.08 3.44 61.2 3.54 112.22 44.8 112.02 45.04 61.13 3.88 21.96 51.8"/><rect class="cls-2" x="42.91" y="26.19" width="0.31" height="1.86" transform="matrix(0.41, -0.91, 0.91, 0.41, 0.77, 55.42)"/><rect class="cls-2" x="37.38" y="46.16" width="0.21" height="12.98" transform="translate(-21.27 79.57) rotate(-79.17)"/><rect class="cls-2" x="35.29" y="37.25" width="0.31" height="9.89" transform="translate(-14.77 64.91) rotate(-74.31)"/><rect class="cls-2" x="42.08" y="25.19" width="0.31" height="1.58"/><rect class="cls-2" x="31.76" y="63.85" width="12.33" height="0.31" transform="translate(-16.12 12.87) rotate(-15.94)"/><polygon class="cls-2" points="21.95 51.15 21.71 50.96 61.08 1.34 61.2 1.45 112.23 43.95 112.03 44.19 61.13 1.79 21.95 51.15"/><rect class="cls-2" x="41.88" y="42.65" width="0.31" height="3.9" transform="translate(-12.14 73.27) rotate(-74.59)"/><rect class="cls-2" x="37.37" y="45.7" width="0.21" height="13.01" transform="translate(-20.99 78.9) rotate(-78.87)"/><rect class="cls-2" x="87.24" y="49.4" width="0.31" height="25.25" transform="translate(11.09 137.28) rotate(-79.96)"/><rect class="cls-2" x="19.79" y="54.96" width="12.88" height="0.21" transform="translate(-29.2 29.62) rotate(-39.87)"/><polygon class="cls-2" points="40.22 43.61 40.02 43.37 61.07 25.81 61.17 25.86 80.11 36.3 79.96 36.57 61.11 26.19 40.22 43.61"/><rect class="cls-2" x="106.54" y="44.85" width="0.21" height="12.5" transform="translate(10.42 119.85) rotate(-61.14)"/><rect class="cls-2" x="81.59" y="41.54" width="0.31" height="14.69" transform="translate(7.19 108.15) rotate(-69.36)"/><rect class="cls-2" x="76.85" y="14.63" width="0.31" height="2"/><rect class="cls-2" x="87.4" y="38.89" width="14.75" height="0.31" transform="translate(-7.69 36.35) rotate(-20.88)"/><rect class="cls-2" x="101.47" y="35.24" width="0.31" height="1.25"/><rect class="cls-2" x="87.38" y="37.86" width="14.83" height="0.31" transform="translate(-7.34 37.34) rotate(-21.47)"/><polygon class="cls-2" points="22.77 69.19 22.69 68.89 61.1 59.31 61.13 59.32 109.42 67.28 109.37 67.59 61.11 59.63 22.77 69.19"/><polygon class="cls-2" points="61.09 74 22.7 73.94 22.7 73.63 61.09 73.69 109.4 73.64 109.4 73.95 61.09 74"/><polygon class="cls-2" points="61.1 94.38 61.06 94.37 3.76 73.9 3.87 73.61 61.12 94.06 113.06 81.79 113.13 82.09 61.1 94.38"/><polygon class="cls-2" points="113.11 81.99 113.08 81.89 147.75 73.7 147.78 73.81 113.11 81.99"/><polygon class="cls-2" points="61.09 93.27 61.06 93.27 3.78 73.85 3.85 73.66 61.1 93.06 109.53 82.21 109.57 82.42 61.09 93.27"/><rect class="cls-2" x="87.73" y="73.85" width="0.31" height="9.43"/><path class="cls-2" d="M88,83.18,74.9,85.24Z"/><rect class="cls-2" x="74.81" y="84.06" width="13.24" height="0.31" transform="translate(-12.04 13.6) rotate(-8.9)"/><path class="cls-2" d="M99.83,84.5l-12-1.34Z"/><polygon class="cls-2" points="99.81 84.66 87.79 83.31 87.83 83 99.85 84.35 99.81 84.66"/><rect class="cls-2" x="115.35" y="76.06" width="0.21" height="12.2" transform="translate(24.87 191.13) rotate(-85.7)"/><rect class="cls-2" x="105.73" y="79.74" width="0.21" height="12.03" transform="matrix(0.12, -0.99, 0.99, 0.12, 8.3, 180.84)"/><rect class="cls-2" x="111.46" y="84.14" width="10.53" height="0.21" transform="translate(-20.97 42.28) rotate(-18.87)"/><polygon class="cls-2" points="111.86 86.52 111.8 86.32 121.69 82.83 121.76 83.03 111.86 86.52"/><rect class="cls-2" x="105.8" y="79.23" width="0.21" height="12.02" transform="translate(9.36 180.96) rotate(-83.58)"/><rect class="cls-2" x="121.5" y="82.54" width="0.21" height="0.49"/><rect class="cls-2" x="111.69" y="85.83" width="0.21" height="0.71"/><polygon class="cls-2" points="70.8 99.86 70.74 99.66 89.68 93.27 89.74 93.46 70.8 99.86"/><rect class="cls-2" x="73.14" y="96.93" width="17.13" height="0.21" transform="translate(-27.64 32.73) rotate(-19.44)"/><rect class="cls-2" x="82.18" y="84.22" width="0.21" height="15.03" transform="translate(-25.51 151.46) rotate(-77.1)"/><rect class="cls-2" x="89.53" y="93.3" width="0.21" height="1.02"/><rect class="cls-2" x="43.9" y="82.08" width="0.21" height="24.37" transform="translate(-59.96 90.62) rotate(-62.97)"/><rect class="cls-2" x="33.06" y="88.71" width="0.21" height="0.76"/><rect class="cls-2" x="42.82" y="83.51" width="0.21" height="22.2" transform="translate(-60.76 87.97) rotate(-61.93)"/><rect class="cls-2" x="31.92" y="82.74" width="11.95" height="0.21" transform="translate(-6.13 3.09) rotate(-4.32)"/><rect class="cls-2" x="20.27" y="78.13" width="0.21" height="8.14" transform="translate(-62.11 62.99) rotate(-62.97)"/><rect class="cls-2" x="20.25" y="78.45" width="0.21" height="8.27" transform="translate(-62.06 61.55) rotate(-61.84)"/><rect class="cls-2" x="16.71" y="80.11" width="6.01" height="0.21" transform="translate(-4.13 1.13) rotate(-2.97)"/><rect class="cls-2" x="23.95" y="83.6" width="8.03" height="0.21" transform="translate(-6.76 2.57) rotate(-4.7)"/><rect class="cls-2" x="23.92" y="84.07" width="8.04" height="0.21" transform="translate(-7.19 2.74) rotate(-4.97)"/><rect class="cls-2" x="23.88" y="84.01" width="0.21" height="0.54"/><rect class="cls-2" x="16.66" y="80.27" width="0.21" height="0.48"/><polygon class="cls-2" points="88.57 51.56 88.52 51.36 101.22 48.02 101.28 48.22 88.57 51.56"/><rect class="cls-1" x="27.25" y="73.08" width="0.21" height="9.33" transform="translate(-53.87 91.73) rotate(-80.39)"/><polygon class="cls-1" points="31.98 81.04 22.71 78.68 22.76 78.48 32.03 80.84 31.98 81.04"/><rect class="cls-1" x="27.24" y="71.16" width="0.21" height="9.25" transform="translate(-50.51 96.51) rotate(-85.07)"/><rect class="cls-1" x="31.98" y="75.96" width="11.9" height="0.21" transform="translate(-1.56 0.8) rotate(-1.18)"/><polygon class="cls-1" points="31.95 78.61 31.94 78.4 43.82 77.92 43.83 78.12 31.95 78.61"/><rect class="cls-1" x="31.98" y="80.48" width="11.88" height="0.21" transform="translate(-4.84 2.46) rotate(-3.49)"/><rect class="cls-2" x="43.67" y="27.24" width="0.31" height="62.44"/><rect class="cls-2" x="74.69" y="38.28" width="5.61" height="0.21" transform="translate(-8.98 37.46) rotate(-25.74)"/><rect class="cls-2" x="31.8" y="41.15" width="0.31" height="43.18"/><rect class="cls-2" x="22.65" y="51.79" width="0.21" height="28.64"/></svg>