<?xml version="1.0" encoding="utf-8"?>
<!-- Generator: Adobe Illustrator 26.0.3, SVG Export Plug-In . SVG Version: 6.00 Build 0)  -->
<svg version="1.1" id="layer1" xmlns="http://www.w3.org/2000/svg" xmlns:xlink="http://www.w3.org/1999/xlink" x="0px" y="0px"
	 viewBox="0 0 1000 400" style="enable-background:new 0 0 1000 400;" xml:space="preserve">
<style type="text/css">
	.st0{display:none;clip-path:url(#SVGID_00000044135731502236320630000001208233456975703701_);}
	.st1{display:inline;opacity:0.53;fill-rule:evenodd;clip-rule:evenodd;fill:#FFFFFF;enable-background:new    ;}
	.st2{display:inline;fill-rule:evenodd;clip-rule:evenodd;fill:#FFFFFF;}
	.st3{fill-rule:evenodd;clip-rule:evenodd;fill:#FFFFFF;}
	.st4{fill-rule:evenodd;clip-rule:evenodd;fill:#4F8DF4;}
	.st5{display:inline;fill-rule:evenodd;clip-rule:evenodd;fill:#4F8DF4;}
	.st6{fill-rule:evenodd;clip-rule:evenodd;fill:#7AA9F7;}
	.st7{display:inline;opacity:0.2;fill-rule:evenodd;clip-rule:evenodd;fill:#223995;enable-background:new    ;}
	.st8{clip-path:url(#SVGID_00000030452133302305267280000007650440022030720426_);}
	.st9{clip-path:url(#SVGID_00000063599101693737248100000000294380713937050542_);}
	.st10{fill-rule:evenodd;clip-rule:evenodd;fill:url(#SVGID_00000127017616760612476840000006611366674628385171_);}
	.st11{fill-rule:evenodd;clip-rule:evenodd;fill:url(#SVGID_00000022536609692845021550000005621771927230301344_);}
	
		.st12{opacity:0.2;fill-rule:evenodd;clip-rule:evenodd;fill:url(#SVGID_00000062186413651853566880000007106778666310073998_);enable-background:new    ;}
	
		.st13{clip-path:url(#SVGID_00000074427020896884452680000016726557801756389006_);fill-rule:evenodd;clip-rule:evenodd;fill:#B5FFFF;}
	
		.st14{clip-path:url(#SVGID_00000069356255705010692590000004294284100765122715_);fill-rule:evenodd;clip-rule:evenodd;fill:#DAFFFF;}
	
		.st15{clip-path:url(#SVGID_00000101799773226196448920000006114874757800674491_);fill-rule:evenodd;clip-rule:evenodd;fill:#DAFFFF;}
	
		.st16{clip-path:url(#SVGID_00000086677838212358041300000009377187109697872041_);fill-rule:evenodd;clip-rule:evenodd;fill:#DAFFFF;}
	
		.st17{clip-path:url(#SVGID_00000145763960469797630760000013705060941605823648_);fill-rule:evenodd;clip-rule:evenodd;fill:#DAFFFF;}
	
		.st18{clip-path:url(#SVGID_00000156567097634130241430000007953447172734022034_);fill-rule:evenodd;clip-rule:evenodd;fill:#DAFFFF;}
	
		.st19{clip-path:url(#SVGID_00000129177917836245899280000003554311086508799142_);fill-rule:evenodd;clip-rule:evenodd;fill:#DAFFFF;}
	
		.st20{clip-path:url(#SVGID_00000062897824224701982360000006937555081269147525_);fill-rule:evenodd;clip-rule:evenodd;fill:#DAFFFF;}
	.st21{opacity:0.5;clip-path:url(#SVGID_00000183941232030884791050000008243063741515204260_);}
	.st22{clip-path:url(#SVGID_00000096045528664999599930000005978932220201295549_);}
	.st23{clip-path:url(#SVGID_00000081632334803070028360000004277109657829367192_);}
	.st24{opacity:0.3;clip-path:url(#SVGID_00000039814406589179058970000011452283013336969615_);}
	.st25{fill-rule:evenodd;clip-rule:evenodd;fill:url(#SVGID_00000162310375063408650580000014066105939360201638_);}
</style>
<g>
	<g>
		<defs>
			<rect id="SVGID_1_" x="-7.11" y="-3.9" width="1000" height="400"/>
		</defs>
		<clipPath id="SVGID_00000169546064341766341290000015453265426775716007_">
			<use xlink:href="#SVGID_1_"  style="overflow:visible;"/>
		</clipPath>
	</g>
	<g>
		<defs>
			<rect id="SVGID_00000114790374248862105180000008580526923587282594_" x="-7.11" y="-3.9" width="1000" height="400"/>
		</defs>
		<clipPath id="SVGID_00000180346397141246738030000004072028352707545480_">
			<use xlink:href="#SVGID_00000114790374248862105180000008580526923587282594_"  style="overflow:visible;"/>
		</clipPath>
		<g style="display:none;clip-path:url(#SVGID_00000180346397141246738030000004072028352707545480_);">
			<polygon class="st1" points="420.46,227.93 425.32,233.81 445.93,275.09 421.5,255.94 414.79,253.21 413.74,255.82 416.92,264.8 
				411.83,255.82 418.45,228.14 			"/>
			<path class="st2" d="M389.51,301.24l-25.4-35.41l7.06-49.51l7.64,10.28l-9.26-25.79l3.94,13.92l-9.38-26.87l5.35-7.53l1.9,0.45
				l11.49,8.71l-13.39-11.39h-4.97l-40.72,50.99l2.67,5.32l-6.87-2.12L289.19,271l5.26-0.65l20.8-21.8l-2.11,6.02l-31.29,42.81
				L389.51,301.24z M365.07,280.29l1.84,0.71l4.58,3.31h-3.21L365.07,280.29z M337.39,294.83h-6.49l-2.3-16.31l2.3,0.95
				L337.39,294.83z M362.34,212.06l-2.42-26.23l2.16,1.25l6.98,27.04L362.34,212.06z M373.66,283.48l-4.71-2.36l-12.46-15.01
				l6.36,1.77L373.66,283.48z"/>
			<polygon class="st2" points="381.1,230.5 385.11,233.34 402.48,269.29 382.82,235.29 			"/>
			<polygon class="st3" points="479.02,304.44 445.93,275.09 467.94,297.84 462.47,296.07 466.98,304.01 			"/>
			<path class="st3" d="M521.25,273.43l16.35,33.1l47.83,1.7l-18.36-21.33l23.92-11.82l4.96,6.26l-8.65-9.27l5.73,0.12l18.83,11.28
				l-35.31-29.3l3.36-7.99L521.25,273.43z M580.84,261.74l4.48,1.42l6.17,6.79h-3.3L580.84,261.74z M566.55,292.05l0.9-1.59
				l2.67,3.19l-1.78,0.7L566.55,292.05z M555.64,272.59l3.98,2.11l9.38,9.84h-2.45L555.64,272.59z"/>
			<polygon class="st3" points="518.71,273.67 534.48,306.42 496.83,304.44 488.14,291.03 501.43,283.48 511.31,301.24 
				505.01,281.45 			"/>
			<polygon class="st2" points="629.03,270.96 697.71,312.26 707.37,312.6 633.1,270.96 			"/>
			<path class="st3" d="M754.87,296.13l19.26,18.86l31.24,1.12l-22.12-25.65l5.24-0.69l30.95,26.84l67.64,2.42l-37.03-62.84
				l13.37-4.62l48.78,59.45l8.08,0.54l-41.21-55.36l3.06-1.61l18.69,12.77l-6.32-33.64L754.87,296.13z M795.23,282.46l2.3-1.4
				l10.14,9.4l7.44,16.03L795.23,282.46z"/>
			<polygon class="st2" points="222.22,262.21 245.21,283.48 230.13,266.28 233.71,266.81 263.34,289.76 289.19,271 			"/>
			<polygon class="st3" points="138.99,239.01 173.63,273.67 138.99,248.56 107.97,240.57 158.87,293.29 125.26,291.79 
				101.36,254.58 120.69,291.62 111.3,291.29 75.53,243.56 72.34,245.53 97.27,290.45 48.39,272.51 84.43,226.86 88.01,225.67 			
				"/>
			<polygon class="st3" points="200.92,294.49 173.63,273.67 194.82,294.27 			"/>
			<polygon class="st3" points="168.67,254.58 173.63,256.19 190.81,275.99 			"/>
			<polygon class="st4" points="848.4,317.76 842.42,312.6 826.26,314.33 824.68,316.4 822.88,316.23 819.7,314.39 811.88,315.69 
				806.59,316.15 798.07,315.18 796.74,313.8 793.87,313.15 787.57,315.18 785.73,314.57 778.59,315.15 			"/>
			<polygon class="st4" points="666.26,311.13 660.14,308.24 650.41,308.24 619.68,309.69 			"/>
			<polygon class="st3" points="359.92,185.83 330.33,222.7 352.66,194.77 353.14,196.63 338.35,220.39 356.48,266.11 
				362.84,267.88 364.11,265.83 367.51,246.49 359.92,221.81 367.88,235.04 370.93,217.68 361.54,211.44 			"/>
			<polygon class="st3" points="319.57,232.28 326.44,234.4 341.26,277.69 325.43,247.19 323.65,247.43 347.71,296.92 
				338.28,296.92 			"/>
			<polygon class="st3" points="421.5,255.94 445.06,274.4 431.4,252.59 420.1,232.28 425.32,233.81 420.46,227.93 418.45,228.14 
				413.17,252.09 414.79,253.21 			"/>
			<polygon class="st3" points="313.15,254.58 331.79,296.55 317.42,296.21 306.09,269.29 304.05,268.82 315.75,296.17 
				298.84,295.78 297.81,275.56 			"/>
			<polygon class="st3" points="590.99,275.09 580.84,261.74 585.32,263.16 593.03,272.2 598.94,272.53 601.38,273.12 
				576.55,254.18 579.91,246.18 551.78,259.2 559.62,274.7 549.48,260.32 542.22,263.69 570.12,302.11 580.84,302.36 567.07,286.91 
				584.22,278.44 569,261.74 585.35,277.88 			"/>
			<polygon class="st3" points="543.79,272.02 521.25,273.43 534.48,301.24 553.19,301.71 540.85,272.84 541.23,276.14 
				556.88,301.71 563.5,301.71 			"/>
			<polygon class="st3" points="797.71,276.98 797.54,281.06 807.68,290.46 815.76,307.65 824.68,308.05 811.11,274.97 
				827.43,308.05 834.78,308.05 815.12,272.72 860.37,308.88 872.26,308.88 815.12,269.19 			"/>
			<polygon class="st3" points="780.86,284.54 783.25,290.46 797.85,307.33 774.76,306.89 768.74,291.62 773.75,306.86 
				765.64,306.67 754.87,296.13 			"/>
			<polygon class="st3" points="158.87,293.29 95.25,227.56 88.01,225.67 84.43,226.86 73.58,240.6 111.3,291.29 114.85,291.62 
				87.74,244.12 99.58,256.53 117.14,291.5 120.69,291.62 102.89,254.58 125.26,291.79 150.47,293.29 105.05,239.99 155.31,292.43 
							"/>
			<polygon class="st5" points="995.22,313.18 -12.11,286.87 -12.11,378.29 995.22,378.29 			"/>
			<polygon class="st6" points="894.78,309.69 -12.11,286.87 894.78,319.3 			"/>
			<polygon class="st7" points="424.3,298.71 402.48,269.29 428.31,298.8 			"/>
			<polygon class="st7" points="611.85,283.48 632.16,303.56 629.03,303.48 			"/>
			<polygon class="st2" points="629.03,276.37 624.26,286.32 632.43,300.15 627.31,288.26 633.04,296.25 630.65,278.16 			"/>
			<polygon class="st2" points="397.83,272.42 390.45,286.67 397.83,283.48 			"/>
			<polygon class="st3" points="184.48,263.99 202.9,286.57 243.33,293.04 205.32,285.88 243.33,290.67 240.12,284.39 			"/>
			<polygon class="st3" points="918.69,296.55 954.56,296.55 992.17,313.18 971.22,312.83 938.82,298.79 935.37,298.55 
				951.97,311.9 929.68,310.72 			"/>
			<polygon class="st3" points="894.49,233.71 900.81,267.34 894.49,263.03 879.85,240.26 876.91,241.57 882.12,254.58 
				879.06,256.19 920.27,311.55 868.56,245.53 			"/>
			<polygon class="st3" points="71.23,243.58 96.8,289.61 94.84,289.56 70.28,251.12 69.52,252.09 88.62,287.28 76.2,282.72 
				60.83,256.75 			"/>
			<polygon class="st3" points="58.67,259.48 70.68,280.69 69.36,280.21 56.05,262.8 			"/>
			<polygon class="st2" points="44.1,274.03 63.73,289.76 46.04,288.95 33.57,278.52 30.11,279.02 39.26,288.33 30.11,288.38 
				22.35,281.9 			"/>
		</g>
	</g>
	<g>
		<defs>
			<rect id="SVGID_00000023259611903117636930000000327625468537362576_" x="-7.11" y="-3.9" width="1000" height="400"/>
		</defs>
		<clipPath id="SVGID_00000026865515704035240540000008844052077344254897_">
			<use xlink:href="#SVGID_00000023259611903117636930000000327625468537362576_"  style="overflow:visible;"/>
		</clipPath>
	</g>
	<g>
		<defs>
			<rect id="SVGID_00000056426872556967281120000012811061546399235248_" x="0" y="-3.9" width="1000" height="400"/>
		</defs>
		<clipPath id="SVGID_00000064311676033912895740000006094487690045305775_">
			<use xlink:href="#SVGID_00000056426872556967281120000012811061546399235248_"  style="overflow:visible;"/>
		</clipPath>
	</g>
	<g>
		<defs>
			<rect id="SVGID_00000109746292407408094250000009703937864943664002_" x="-7.11" y="-3.9" width="1000" height="400"/>
		</defs>
		<clipPath id="SVGID_00000177460230557451308150000011390144778458919864_">
			<use xlink:href="#SVGID_00000109746292407408094250000009703937864943664002_"  style="overflow:visible;"/>
		</clipPath>
	</g>
	<g>
		<defs>
			<rect id="SVGID_00000127727243203514623790000009579723995146442882_" x="-7.11" y="-3.9" width="1000" height="400"/>
		</defs>
		<clipPath id="SVGID_00000052087543263916574010000016026037012837124286_">
			<use xlink:href="#SVGID_00000127727243203514623790000009579723995146442882_"  style="overflow:visible;"/>
		</clipPath>
	</g>
	<g>
		<defs>
			<rect id="SVGID_00000057123430720637176940000012148982819841487765_" x="-7.11" y="-3.9" width="1000" height="400"/>
		</defs>
		<clipPath id="SVGID_00000060727548932699023300000011591353104894399622_">
			<use xlink:href="#SVGID_00000057123430720637176940000012148982819841487765_"  style="overflow:visible;"/>
		</clipPath>
	</g>
	<g>
		<defs>
			<rect id="SVGID_00000052100146157057013280000018164599100499357571_" x="-7.11" y="-3.9" width="1000" height="400"/>
		</defs>
		<clipPath id="SVGID_00000173856390795113705340000011586219878119193493_">
			<use xlink:href="#SVGID_00000052100146157057013280000018164599100499357571_"  style="overflow:visible;"/>
		</clipPath>
	</g>
	<g>
		<defs>
			<rect id="SVGID_00000083052911875710694400000017622072031531026858_" x="-7.11" y="-3.9" width="1000" height="400"/>
		</defs>
		<clipPath id="SVGID_00000132083712515421272620000009107743955692405663_">
			<use xlink:href="#SVGID_00000083052911875710694400000017622072031531026858_"  style="overflow:visible;"/>
		</clipPath>
	</g>
	<g>
		<defs>
			<rect id="SVGID_00000096770400938386106680000006934404031326414474_" x="-7.11" y="-3.9" width="1000" height="400"/>
		</defs>
		<clipPath id="SVGID_00000140733080875654355060000015972520251373548436_">
			<use xlink:href="#SVGID_00000096770400938386106680000006934404031326414474_"  style="overflow:visible;"/>
		</clipPath>
		<g style="clip-path:url(#SVGID_00000140733080875654355060000015972520251373548436_);">
			<path class="st3" d="M602.12-16.03c-0.04,0.61-0.57,1.08-1.18,1.04s-1.08-0.57-1.04-1.18c0.04-0.61,0.57-1.08,1.18-1.04
				C601.69-17.17,602.16-16.64,602.12-16.03z"/>
			<path class="st3" d="M591.52-20.79c-0.04,0.61-0.57,1.08-1.18,1.04c-0.61-0.04-1.08-0.57-1.04-1.18
				c0.04-0.61,0.57-1.08,1.18-1.04C591.1-21.94,591.56-21.41,591.52-20.79z"/>
			<path class="st3" d="M602.3-23.24c0.65-0.58,1.65-0.51,2.22,0.14c0.58,0.65,0.51,1.65-0.14,2.22c-0.65,0.58-1.65,0.51-2.22-0.14
				C601.58-21.66,601.65-22.66,602.3-23.24z"/>
			<path class="st3" d="M591.65-28.9c1.69-1.5,4.28-1.33,5.78,0.36s1.33,4.28-0.36,5.78s-4.28,1.33-5.78-0.36
				C589.8-24.82,589.96-27.41,591.65-28.9z"/>
			<path class="st3" d="M596.41-23.18c0.65-0.58,1.65-0.51,2.22,0.14c0.58,0.65,0.51,1.65-0.14,2.22s-1.65,0.51-2.22-0.14
				C595.69-21.61,595.75-22.61,596.41-23.18z"/>
			<path class="st3" d="M627.65-29.43c0.46-0.41,1.17-0.36,1.57,0.1c0.41,0.46,0.36,1.17-0.1,1.57c-0.46,0.41-1.17,0.36-1.57-0.1
				C627.14-28.32,627.19-29.02,627.65-29.43z"/>
			<path class="st3" d="M608.24-50.69c0.11-0.1,0.27-0.09,0.37,0.02s0.09,0.27-0.02,0.37c-0.11,0.1-0.27,0.09-0.37-0.02
				C608.12-50.43,608.13-50.59,608.24-50.69z"/>
			<path class="st3" d="M586.74-51.69c0.22-0.19,0.55-0.17,0.74,0.05c0.19,0.22,0.17,0.55-0.05,0.74c-0.22,0.19-0.55,0.17-0.74-0.05
				C586.5-51.17,586.52-51.5,586.74-51.69z"/>
			<path class="st3" d="M589.32-9.32c0.22-0.19,0.55-0.17,0.74,0.05c0.19,0.22,0.17,0.55-0.05,0.74s-0.55,0.17-0.74-0.05
				S589.1-9.13,589.32-9.32z"/>
			<path class="st3" d="M599.15-26.21c0.46-0.41,1.17-0.36,1.57,0.1c0.41,0.46,0.36,1.17-0.1,1.57c-0.46,0.41-1.17,0.36-1.57-0.1
				S598.69-25.8,599.15-26.21z"/>
			<path class="st3" d="M597.4-33.81c0.46-0.41,1.17-0.36,1.57,0.1c0.41,0.46,0.36,1.17-0.1,1.57c-0.46,0.41-1.17,0.36-1.57-0.1
				C596.89-32.7,596.94-33.4,597.4-33.81z"/>
			<path class="st3" d="M609.97-31.78c0.22-0.19,0.55-0.17,0.74,0.05s0.17,0.55-0.05,0.74s-0.55,0.17-0.74-0.05
				C609.73-31.26,609.75-31.59,609.97-31.78z"/>
			<path class="st3" d="M603.15-34.75c0.22-0.19,0.55-0.17,0.74,0.05c0.19,0.22,0.17,0.55-0.05,0.74c-0.22,0.19-0.55,0.17-0.74-0.05
				C602.91-34.22,602.93-34.56,603.15-34.75z"/>
			<path class="st3" d="M595.57-30.66c0.11-0.1,0.27-0.09,0.37,0.02s0.09,0.27-0.02,0.37c-0.11,0.1-0.27,0.09-0.37-0.02
				C595.46-30.4,595.47-30.57,595.57-30.66z"/>
			<path class="st3" d="M601.39-30.54c0.11-0.1,0.27-0.09,0.37,0.02s0.09,0.27-0.02,0.37c-0.11,0.1-0.27,0.09-0.37-0.02
				C601.28-30.28,601.29-30.44,601.39-30.54z"/>
			<path class="st3" d="M593.69-26.4c0.22-0.19,0.55-0.17,0.74,0.05s0.17,0.55-0.05,0.74s-0.55,0.17-0.74-0.05
				S593.47-26.21,593.69-26.4z"/>
			<path class="st3" d="M593.06-28.31c-0.02,0.38-0.35,0.67-0.73,0.64c-0.38-0.02-0.67-0.35-0.64-0.73
				c0.02-0.38,0.35-0.67,0.73-0.64C592.8-29.01,593.08-28.68,593.06-28.31z"/>
			<path class="st3" d="M601.09-30.99c0.4-0.35,1.02-0.32,1.37,0.09c0.35,0.4,0.32,1.02-0.09,1.37c-0.4,0.35-1.02,0.32-1.37-0.09
				C600.64-30.02,600.68-30.63,601.09-30.99z"/>
			<path class="st3" d="M591.23-34.58c0.28-0.25,0.72-0.22,0.97,0.06c0.25,0.28,0.22,0.72-0.06,0.97c-0.28,0.25-0.72,0.22-0.97-0.06
				C590.92-33.9,590.95-34.33,591.23-34.58z"/>
			<path class="st3" d="M597.9-38.02c0.13-0.12,0.34-0.11,0.46,0.03c0.12,0.13,0.11,0.34-0.03,0.46c-0.13,0.12-0.34,0.11-0.46-0.03
				C597.75-37.69,597.76-37.9,597.9-38.02z"/>
			<path class="st3" d="M593.69-39.84c0.13-0.12,0.34-0.11,0.46,0.03c0.12,0.13,0.11,0.34-0.03,0.46c-0.13,0.12-0.34,0.11-0.46-0.03
				C593.55-39.52,593.56-39.72,593.69-39.84z"/>
			<path class="st3" d="M589.03-37.32c0.07-0.06,0.17-0.05,0.23,0.01c0.06,0.07,0.05,0.17-0.01,0.23c-0.07,0.06-0.17,0.05-0.23-0.01
				S588.96-37.26,589.03-37.32z"/>
			<path class="st3" d="M592.61-37.25c0.07-0.06,0.17-0.05,0.23,0.01c0.06,0.07,0.05,0.17-0.01,0.23c-0.07,0.06-0.17,0.05-0.23-0.01
				C592.54-37.09,592.55-37.19,592.61-37.25z"/>
			<path class="st3" d="M587.87-34.7c0.13-0.12,0.34-0.11,0.46,0.03c0.12,0.13,0.11,0.34-0.03,0.46c-0.13,0.12-0.34,0.11-0.46-0.03
				C587.72-34.38,587.73-34.58,587.87-34.7z"/>
			<path class="st3" d="M605.66-39c-0.57,0.24-1.22-0.02-1.46-0.59c-0.24-0.57,0.02-1.22,0.59-1.46c0.57-0.24,1.22,0.02,1.46,0.59
				C606.49-39.89,606.23-39.24,605.66-39z"/>
			<path class="st3" d="M612.18-42.07c0.81,0.32,1.2,1.24,0.87,2.05s-1.24,1.2-2.05,0.87c-0.81-0.32-1.2-1.24-0.87-2.05
				S611.37-42.4,612.18-42.07z"/>
			<path class="st3" d="M629.09-22.2c0.57,0.23,0.85,0.88,0.62,1.45c-0.23,0.57-0.88,0.85-1.45,0.62s-0.85-0.88-0.62-1.45
				S628.52-22.43,629.09-22.2z"/>
			<path class="st3" d="M639.38-49.08c0.13,0.05,0.2,0.21,0.15,0.34s-0.21,0.2-0.34,0.15s-0.2-0.21-0.15-0.34
				C639.09-49.07,639.24-49.14,639.38-49.08z"/>
			<path class="st3" d="M630.63-68.75c0.27,0.11,0.4,0.41,0.29,0.68c-0.11,0.27-0.41,0.4-0.68,0.29s-0.4-0.41-0.29-0.68
				C630.05-68.73,630.36-68.86,630.63-68.75z"/>
			<path class="st3" d="M613.43-46.22c0.57,0.23,0.85,0.88,0.62,1.45s-0.88,0.85-1.45,0.62s-0.85-0.88-0.62-1.45
				S612.86-46.45,613.43-46.22z"/>
			<path class="st3" d="M623.26-39.05c0.27,0.11,0.4,0.41,0.29,0.68c-0.11,0.27-0.41,0.4-0.68,0.29s-0.4-0.41-0.29-0.68
				C622.69-39.03,622.99-39.16,623.26-39.05z"/>
			<path class="st3" d="M622.85-46.48c0.27,0.11,0.4,0.41,0.29,0.68c-0.11,0.27-0.41,0.4-0.68,0.29s-0.4-0.41-0.29-0.68
				C622.28-46.45,622.58-46.59,622.85-46.48z"/>
			<path class="st3" d="M615.8-51.41c0.13,0.05,0.2,0.21,0.15,0.34s-0.21,0.2-0.34,0.15s-0.2-0.21-0.15-0.34
				C615.51-51.4,615.66-51.47,615.8-51.41z"/>
			<path class="st3" d="M618.3-46.16c0.13,0.05,0.2,0.21,0.15,0.34s-0.21,0.2-0.34,0.15s-0.2-0.21-0.15-0.34
				C618.02-46.15,618.17-46.21,618.3-46.16z"/>
			<path class="st3" d="M611.15-51.18c0.27,0.11,0.4,0.41,0.29,0.68c-0.11,0.27-0.41,0.4-0.68,0.29s-0.4-0.41-0.29-0.68
				C610.57-51.16,610.88-51.29,611.15-51.18z"/>
		</g>
	</g>
	<g>
		<defs>
			<rect id="SVGID_00000082353778019204901140000003147216544946089625_" x="-7.11" y="-3.9" width="1000" height="400"/>
		</defs>
		<clipPath id="SVGID_00000022547464252985298820000017902908383401184679_">
			<use xlink:href="#SVGID_00000082353778019204901140000003147216544946089625_"  style="overflow:visible;"/>
		</clipPath>
	</g>
	<g>
		<defs>
			<rect id="SVGID_00000031168305012405831320000009686423104129276049_" x="-7.11" y="-3.9" width="1000" height="400"/>
		</defs>
		<clipPath id="SVGID_00000010278203651221385050000017790073361007748508_">
			<use xlink:href="#SVGID_00000031168305012405831320000009686423104129276049_"  style="overflow:visible;"/>
		</clipPath>
	</g>
	<g>
		<defs>
			<rect id="SVGID_00000056429018719059896530000013212955156046798733_" x="-7.11" y="-3.9" width="1000" height="400"/>
		</defs>
		<clipPath id="SVGID_00000011714621505945660320000008592411594332041880_">
			<use xlink:href="#SVGID_00000056429018719059896530000013212955156046798733_"  style="overflow:visible;"/>
		</clipPath>
		<g style="clip-path:url(#SVGID_00000011714621505945660320000008592411594332041880_);">
			<g>
				
					<radialGradient id="SVGID_00000093166284176720109360000017990449425537582769_" cx="-1532.5773" cy="258.9352" r="36.8245" gradientTransform="matrix(1.6929 -1.6929 -1.6785 -1.6785 3499.8127 -2058.356)" gradientUnits="userSpaceOnUse">
					<stop  offset="0" style="stop-color:#40CCFF"/>
					<stop  offset="0.2204" style="stop-color:#3FCAFC"/>
					<stop  offset="0.3562" style="stop-color:#3DC3F4"/>
					<stop  offset="0.4692" style="stop-color:#3AB8E5"/>
					<stop  offset="0.5696" style="stop-color:#34A7D1"/>
					<stop  offset="0.6618" style="stop-color:#2E92B6"/>
					<stop  offset="0.7478" style="stop-color:#267896"/>
					<stop  offset="0.8292" style="stop-color:#1C596F"/>
					<stop  offset="0.9069" style="stop-color:#103442"/>
					<stop  offset="0.979" style="stop-color:#040D10"/>
					<stop  offset="1" style="stop-color:#000000"/>
				</radialGradient>
				<path style="fill-rule:evenodd;clip-rule:evenodd;fill:url(#SVGID_00000093166284176720109360000017990449425537582769_);" d="
					M533.03,39.18c34.14,34.14,33.9,89.72-0.53,124.15s-90.02,34.67-124.15,0.53c-34.14-34.14-33.9-89.72,0.53-124.15
					S498.89,5.04,533.03,39.18z"/>
			</g>
			
				<radialGradient id="SVGID_00000069376268969062188940000008375142688082596483_" cx="447.7305" cy="332.0289" r="185.2894" gradientTransform="matrix(1 0 0 -1 0 402)" gradientUnits="userSpaceOnUse">
				<stop  offset="0" style="stop-color:#5ECEFF"/>
				<stop  offset="0.1194" style="stop-color:#7DDCFF"/>
				<stop  offset="0.2577" style="stop-color:#9AE9FF"/>
				<stop  offset="0.4057" style="stop-color:#B1F3FF"/>
				<stop  offset="0.566" style="stop-color:#C1FAFF"/>
				<stop  offset="0.7472" style="stop-color:#CAFEFF"/>
				<stop  offset="0.9944" style="stop-color:#CDFFFF"/>
			</radialGradient>
			<path style="fill-rule:evenodd;clip-rule:evenodd;fill:url(#SVGID_00000069376268969062188940000008375142688082596483_);" d="
				M560.83,101.6c0,21.75-7.76,41.69-20.67,57.2c-16.41,19.74-41.14,32.3-68.83,32.3c-42.01,0-77.25-28.95-86.9-67.97
				c-1.7-6.9-2.6-14.11-2.6-21.52c0-3.29,0.18-6.52,0.52-9.72c0.22-2.01,0.5-3.98,0.84-5.95c7.41-41.96,44.05-73.84,88.14-73.84
				c12.28,0,23.97,2.48,34.62,6.95c0.01,0,0.01,0,0.01,0C522.5,26,536.5,37.77,546.23,52.6C555.46,66.67,560.83,83.51,560.83,101.6z
				"/>
			
				<linearGradient id="SVGID_00000098205448225714616030000003924528292111240125_" gradientUnits="userSpaceOnUse" x1="471.635" y1="210.8988" x2="471.635" y2="389.9688" gradientTransform="matrix(1 0 0 -1 0 402)">
				<stop  offset="0" style="stop-color:#E8DDFF"/>
				<stop  offset="1" style="stop-color:#AA8AD8"/>
			</linearGradient>
			
				<path style="opacity:0.2;fill-rule:evenodd;clip-rule:evenodd;fill:url(#SVGID_00000098205448225714616030000003924528292111240125_);enable-background:new    ;" d="
				M560.84,101.6c0,49.43-40.07,89.5-89.5,89.5c-42.01,0-77.26-28.94-86.9-67.97c0.24,0.33,0.48,0.65,0.72,0.98
				c0.49,0.68,0.78,1.37,1.02,2.16c0.14,0.45,0.12,0.97,0.25,1.39c0.23,0.73,0.83,1.11,0.55,0.24c0.39,0.82,0.48,1.58,0.85,2.38
				c0.53,1.18,0.95,2.25,1.32,3.5c0.29,1,0.48,2.04,0.79,3.03c0.28,0.9,0.75,1.74,1.09,2.63c1.1,2.78,2.66,5.09,4.32,7.54
				c0.43,0.63,0.68,1.37,1.12,1.98c0.48,0.65,1.1,1.24,1.62,1.88c0.54,0.68,1.38,1.17,2.11,1.62c0.77,0.47,1.42,1.06,2.16,1.57
				c1.25,0.87,2.82,1.13,4.3,1.12c1.69-0.01,3.35-0.51,5.01-0.08c2.85,0.75,3.22,4.46,4.69,6.56c0.63,0.9,1.67,1.4,2.7,1.68
				c1.25,0.33,2.25,0.77,3.25,1.55c0.75,0.59,1.77,1.04,2.72,1.08c1.04,0.04,0.81-0.53,0.8-1.41c-0.01-1.3-0.92-1.96-1.63-2.98
				c-0.4-0.57-0.53-1.15-0.8-1.78c-0.18-0.41-0.42-0.63-0.22-1.1c0.67,0.06,1.35,0.62,1.86,1.04c1.1,0.91,2.49,1.45,3.79,2.04
				c0.62,0.27,1.12,0.54,1.66,0.94c0.28,0.21,0.68,0.64,1,0.78c1,0.41,2.2-1.2,2.41-2.01c0.23-0.93-0.14-2.3-0.8-2.95
				c-1.2-1.2-2.19-2.5-3.19-3.88c-1.03-1.42-2.35-2.8-3.08-4.4c-0.73-1.61-1.41-3.52-1.24-5.32c0.1-1.12,0.58-2.3,0.93-3.36
				c0.17-0.53,0.28-1.36,0.59-1.82c0.46-0.68,1.51-0.58,2.21-0.45c1.27,0.24,2.93,0.24,4.06,0.88c1.12,0.64,1.84,2.11,3.22,2.29
				c2.14,0.29,4.03-1.54,5.37-2.9c1.21-1.23,2.68-3.3,4.44-3.79c1.05-0.29,2.02,0.37,3,0.63c0.45,0.12,0.91,0.33,1.37,0.39
				c0.8,0.11,1.42-0.3,2.09-0.67c1.54-0.85,2.93-0.78,4.61-0.34c0.78,0.21,1.3,0.73,1.94,1.17c1.03,0.72,2.06,1.42,3.12,2.11
				c0.95,0.61,1.83,1.17,2.24,2.26c0.19,0.52,0.2,0.72,0.06,1.28c-0.09,0.36-0.28,0.85-0.11,1.22c0.28,0.58,1.18,0.76,1.68,1.08
				c0.72,0.46,1.41,1.02,2.04,1.59c1.65,1.49,2.24,3.24,2.43,5.39c0.11,1.21-0.09,2.55-0.97,3.47c-0.99,1.05-2.71,1.07-3.56,2.2
				c-0.69,0.9-0.95,2.14-1.09,3.25c-0.09,0.69,0.01,1.28-0.26,1.95c-0.34,0.81-0.86,1.61-1.28,2.38c-0.33,0.63-0.75,1.15-0.99,1.82
				c-0.14,0.38-0.23,0.77-0.38,1.15c-0.37,0.9-1.11,1.68-1.95,2.15c-1.16,0.65-2.31,1.38-3.66,1.35c-0.78-0.01-1.82,0.19-2.57,0.01
				c-0.24-0.06-0.41-0.22-0.65-0.29c-0.31-0.09-0.55-0.12-0.84-0.23c-0.82-0.31-1.07-0.61-1.54-1.39c-0.38-0.67-0.8-1.04-1.43-1.48
				c-0.48-0.33-1.04-0.51-1.57-0.78c-0.34-0.18-0.92-0.25-1.2-0.51c-0.56-0.51,0.13-1.03,0.43-1.54c0.65-1.12,1.52-2.26,2.5-3.1
				c0.41-0.36,0.89-0.61,1.41-0.77c0.76-0.23,1.11-0.06,1.77,0.28c0.73,0.39,0.91,0.8,1.3,1.49c-0.36,0.3-0.83,0.71-1.24,0.88
				c-0.36,0.14-0.96,0.06-1.04,0.59c1.15,1.23,2.09,1.96,3.67,0.81c0.83-0.61,2.78-1.6,2.75-2.75c-0.01-0.63-1.21-1.42-1.66-1.76
				s-0.97-0.58-1.41-0.94c-0.47-0.38-0.7-0.92-1.12-1.33c-0.43-0.43-0.99-0.82-1.45-1.25c-0.44-0.41-0.9-0.51-1.42-0.78
				c-0.55-0.29-0.93-0.65-1.54-0.84c-0.69-0.2-1.72-0.58-2.45-0.56c-1.6,0.03-3.15,1.62-4.06,2.79c-0.8,1.01-2.29,2.92-1.83,4.33
				c0.19,0.56,0.75,0.78,1,1.27c0.11,0.23,0.23,0.7,0.29,0.94c0.17,0.8-0.04,1.56,0.22,2.36c0.78,2.48,1.19,5.38,3.69,6.68
				c0.41,0.21,0.72,0.41,1.17,0.55s0.97,0.14,1.41,0.31c0.96,0.36,1.69,0.84,2.74,1c1.15,0.18,2.28,0.3,3.45,0.3
				c1.55,0,3.17,0.16,4.62-0.53c0.75-0.36,1.78-1.02,2.36-1.62c0.72-0.75,0.84-1.79,1.06-2.76c0.21-0.88,0.17-2.24,0.88-2.93
				c0.61-0.59,1.54-0.7,2.17-1.32c0.9-0.9,1.71-2.14,2.29-3.27c0.8-1.56,1.87-2.91,2.7-4.44c0.47-0.85,1.17-1.96,1.89-2.64
				c0.68-0.65,1.64-0.89,2.56-0.99c0.8-0.09,1.67-0.32,2.43-0.6c0.77-0.28,1.63-0.6,2.38-0.95c0.63-0.3,1.12-0.93,1.65-1.42
				c1.37-1.24,2.88-1.61,4.61-1.96c0.71-0.14,1.19-0.28,1.89-0.06c0.56,0.19,1.1,0.47,1.69,0.6c0.79,0.18,1.82,0.52,2.63,0.28
				c2.96-0.88,0.93-3.52,0.42-5.47c-1.01-3.96-0.95-7.94-0.95-11.99c0-1.25-0.21-2.63,0.26-3.8c0.22-0.56,0.28-1.2,0.53-1.74
				c0.17-0.38,0.61-0.65,0.76-1.01c0.31-0.68,0.13-0.98,0.92-1.37c0.81-0.4,1.49-0.46,2.38-0.46c2.36-0.01,5-0.36,7.22,0.59
				c0.94,0.41,1.69,1.1,2.49,1.7c0.85,0.63,1.51,1.1,1.62,2.23c0.14,1.34,0.75,2.67,2.19,3.05c1.2,0.32,2.51,0.79,3.75,0.79
				c0.82-0.01,1.64-0.41,2.43-0.28c0.23,0.04,0.52,0.24,0.69,0.26c0.39,0.03,0.8-0.25,1.19-0.39c0.93-0.36,1.64-0.42,2.63-0.41
				c1.74,0.02,2.25-1.12,3.49-2.16c1.4-1.19,2.59-2.12,4.46-2.15c2.26-0.03,3.92-1.86,4.94-3.7c1.59-2.89,3.1-6.62,1.82-9.87
				c-0.48-1.2-1.4-2.13-2.11-3.2c-0.75-1.14-1.09-2.46-1.46-3.74c-0.33-1.11-1.54-2.34-2.71-2.65c-0.98-0.26-2.05-0.09-2.82-0.85
				c-0.71-0.71-1.55-1.68-2.06-2.55c-0.75-1.28-1.05-3.3-1.06-4.76c0-0.49-0.13-0.56-0.24-0.94c-0.11-0.36,0.06-0.76-0.01-1.13
				c-0.19-1.06-0.52-2.13-0.75-3.22c-0.25-1.2-0.96-2.56-0.91-3.8c0.04-0.98,0.63-2.16,1.38-2.77c0.88-0.7,1.52-1.58,2.16-2.52
				c0.34-0.5,0.67-0.95,0.88-1.51c0.22-0.58,0.12-1.03,0.21-1.62c0.14-0.88,0.88-1.43,1.73-1.6c0.53-0.11,1.08,0.06,1.62-0.02
				c0.78-0.14,1.52-0.61,2.02-1.2c1.14-1.35,0.89-3.53,0.83-5.2c-0.06-1.82-1.27-2.66-2.19-4.04c-0.86-1.31-1.23-3.31-0.2-4.67
				c0.41-0.53,1.01-0.89,1.23-1.6c0.23-0.74-0.23-1.8-0.53-2.48c-0.59-1.27-1.41-2.37-2.38-3.36c-0.45-0.45-0.51-0.89-0.78-1.45
				c-0.34-0.7-0.79-1.29-1.1-2.01c-0.27-0.61-0.52-1.03-0.97-1.49c-0.26-0.26-0.37-0.54-0.61-0.81c-0.62-0.72-1.49-1.1-2.06-1.91
				c-0.46-0.65-1-1.42-1.37-2.14c-0.37-0.74-0.33-1.51-0.37-2.31c-0.05-1.14-0.62-1.84-1.17-2.76c-0.25-0.41-0.46-0.69-0.8-1.07
				c-0.56-0.61-0.9-1.27-1.33-1.96c-0.43-0.68-1.2-1-1.85-1.35c-0.31-0.17-0.39-0.31-0.78-0.23c-0.47,0.09-1.2,0.75-1.53,1.06
				c-0.83,0.77-1.82,1.1-2.92,1.47c-1.05,0.35-2.11,0.65-3.17,0.95c-1.39,0.4-2.81,0.45-4.21,0.79c-1.89,0.46-3.62,0.85-4.52,2.69
				c-0.65,1.32-0.38,2.9-0.39,4.34c0,0.52-0.06,1.05,0.06,1.55c0.16,0.74,0.56,1.42,0.7,2.16c0.41,2.01-0.25,4.11-0.9,5.99
				c-0.65,1.89-1.89,3.27-3.35,4.61c-1.91,1.76-4.8,1.73-7.06,2.74c-1.53,0.69-3.84,1.63-4.26,3.45c-0.31,1.37,0.47,2.27,0.72,3.51
				c0.16,0.81-0.02,1.67,0.19,2.43c0.27,0.97-0.04,1.49-0.88,2.17c-0.43,0.35-0.93,0.7-1.1,1.27c-0.1,0.34,0.04,0.68-0.03,1.01
				c-0.12,0.6-0.69,1.02-1.24,1.18c-0.92,0.26-1.9,0.26-2.76,0.82c-0.78,0.51-1.1,1.3-2.06,1.5c-0.75,0.17-1.31,0.02-2.09-0.07
				c-1.3-0.16-2.6-0.13-3.89-0.4c-2.27-0.47-4.38-0.87-6.73-0.76c-1.85,0.09-2.9,0.59-4.65-0.44c-1.11-0.66-2.21-1.4-3.36-1.99
				c-1.32-0.66-2.75-1.13-4.13-1.67c-2.09-0.83-4.26-1.27-6.41-1.87c-2.19-0.61-3.72-2.56-5.25-4.07c-1.51-1.47-2.8-3.29-3.32-5.37
				c-0.34-1.38-0.19-2.36-0.01-3.72c0.41-3.02-1.13-5.78-0.65-8.78c0.5-3.12,0.72-6.3,2.01-9.23c0.57-1.28,1.52-2.28,2.16-3.5
				c0.67-1.3,1.94-1.87,3.21-2.45c0.9-0.41,2.02-0.92,3.03-0.89c1.27,0.04,0.91,0.8,1.33,1.66c0.31,0.61,0.83,1.01,1.35,1.47
				c1.07,0.95,2.58,0,3.63-0.66c1.22-0.76,2.89-2.16,4.44-1.79c1.19,0.29,2.26,0.8,3.37,0.02c0.74-0.51,1.28-1.47,0.73-2.37
				c-0.92-1.51-3.12-1.56-4.65-1.54c-1.82,0.01-3.62-0.07-5.43,0.2c-1.12,0.17-2.21,0.43-3.32,0.21c-1.22-0.24-2.19-0.89-3.3-1.37
				c-1.86-0.79-3.42-0.07-5.18,0.61c-2.14,0.82-4.21,2.28-5.15,4.4c-0.79,1.81-0.36,3.76-0.55,5.64c-0.08,0.85-0.21,1.77-0.48,2.58
				c-0.42,1.29-1.32,2.31-2.13,3.37c-1.45,1.89-2.23,3.87-1.81,6.21c0.18,1.01,0.13,1.54-0.33,2.45c-0.36,0.73-1.1,1.6-1.3,2.38
				c-0.21,0.8,0.36,0.93,0.95,1.41c0.7,0.56,1.4,1.54,1.58,2.43c0.47,2.21-0.62,4.31-2.36,5.61c-1.15,0.86-2.72,1.17-3.54,2.41
				c-0.43,0.67-0.82,1.37-1.23,2.05c-0.66,1.09-1.54,1.7-2.67,2.24c-1.25,0.58-2.66,0.68-3.66,1.67c-0.58,0.57-0.78,1.12-1.12,1.86
				c-0.53,1.13-1.17,2.19-1.77,3.28c-0.58,1.07-1.16,1.79-2.24,2.4c-1.26,0.71-2.52,1.35-3.74,2.14c-1.31,0.85-2.16,2.09-3.25,3.17
				c-1.27,1.25-2.7,1.67-4.38,2.05c-2.47,0.55-4.98,1.23-7.49,1.59c-2.2,0.31-4.12,0.19-6.21-0.55c-1.68-0.58-3.31-1.23-4.88-2.05
				c4.84-44.87,42.83-79.8,88.99-79.8C520.77,12.09,560.84,52.16,560.84,101.6z"/>
		</g>
	</g>
	<g>
		<defs>
			<rect id="SVGID_00000159467053156891042540000008981767252053574568_" x="-7.11" y="-3.9" width="1000" height="400"/>
		</defs>
		<clipPath id="SVGID_00000142883425189868662050000014865804013899689623_">
			<use xlink:href="#SVGID_00000159467053156891042540000008981767252053574568_"  style="overflow:visible;"/>
		</clipPath>
		
			<path style="clip-path:url(#SVGID_00000142883425189868662050000014865804013899689623_);fill-rule:evenodd;clip-rule:evenodd;fill:#B5FFFF;" d="
			M506.96,21.83c-0.24-0.04-4.27-0.73-7.94-1.2c-3.8-0.49-3.11-2.08-6.41-3.02c-3.3-0.94-9.33-2.07-10.32-1.91
			c-0.98,0.17-2.15,1.07-4.32,0.99s-6.12-0.31-8.98-0.1c-2.87,0.21-7.64-1.04-9.34,0.36c-1.71,1.39-8.09,3.17-12.87,4.53
			c-4.78,1.34-5.87,2-9.43,4.03c-3.55,2.03-5.12,4.68-9.26,7.48s-6.11,1.92-8.87,2.53c-2.76,0.6-1.97,0.78-6.14,3.92
			c-4.16,3.14-4.31,6.13-6.45,8.86c-2.13,2.74-7.2,6.74-7.2,6.74l-3.29,6.3l-2.73,4.69c0,0,1.96,2.98-2.27,7.71
			c-4.22,4.73-6.9,15.01-6.9,15.01l-0.06-0.03c7.41-41.96,44.05-73.84,88.14-73.84C484.61,14.88,496.3,17.36,506.96,21.83z"/>
	</g>
	<g>
		<defs>
			<rect id="SVGID_00000182528047759518223560000004535364173546651550_" x="-7.11" y="-3.9" width="1000" height="400"/>
		</defs>
		<clipPath id="SVGID_00000139990302289602887080000013134656735921695136_">
			<use xlink:href="#SVGID_00000182528047759518223560000004535364173546651550_"  style="overflow:visible;"/>
		</clipPath>
		
			<path style="clip-path:url(#SVGID_00000139990302289602887080000013134656735921695136_);fill-rule:evenodd;clip-rule:evenodd;fill:#DAFFFF;" d="
			M485.86,192.87c0,0,6.8-4.93,7.44-9.2s-3.25-4.76-3.47-7.27c-0.23-2.52,5-9.54,5.74-14.01s0.04-8.5-1.78-11.31
			c-1.82-2.82-11.92-7.32-13.47-12.85c-1.56-5.54-10.69-12.27-10.56-17.67c0.13-5.4,4.58-9.8,5.41-17.66
			c0.83-7.86-0.68-10.22-0.68-10.22s2.31,3.77,1.91,10.85c-0.39,7.09-5.63,11.98-6.02,17.03c-0.39,5.04,11.16,15.21,11.4,16.93
			c0.24,1.71,0.03,2.3,2.06,4.42s9.59,6.67,11.52,9.77s4.2,0.57,4.79-3.93s-0.13-10.51,2.99-13.47c3.12-2.96,5.14-3.16,5.95-7.49
			c0.81-4.33,0.89-7.87-0.97-10.78c-1.86-2.91-5.43-5.05-4.98-8.86c0.46-3.81-2.3-16.63-7.23-23.03c-4.93-6.4-5.59-10.64-5.59-10.64
			s2.24,5.9,7.07,10.64c4.83,4.73,5.81,21.98,6.66,24.98c0.86,3.01,4.23,1.24,5.58,9.32s-0.15,11.56-1.52,13.12s-4.85,2.5-6,4.84
			c-1.15,2.33-0.69,11.63-0.99,14.53c-0.3,2.9-2.49,3.31-3.56,5.66c-1.07,2.36-0.68,5.34-3.78,11.93s-2.81,8.53,0,10.96
			c2.81,2.43,10.36,2.75,10.97,4.51s-2.36,3.32-2.17,3.98c0.19,0.65,3.79-0.73,3.79-0.73S495.22,191.91,485.86,192.87z"/>
	</g>
	<g>
		<defs>
			<rect id="SVGID_00000070096695475354747740000002614629554165911479_" x="-7.11" y="-3.9" width="1000" height="400"/>
		</defs>
		<clipPath id="SVGID_00000173858187797418395200000017708187892422432134_">
			<use xlink:href="#SVGID_00000070096695475354747740000002614629554165911479_"  style="overflow:visible;"/>
		</clipPath>
		
			<path style="clip-path:url(#SVGID_00000173858187797418395200000017708187892422432134_);fill-rule:evenodd;clip-rule:evenodd;fill:#DAFFFF;" d="
			M410.42,169.01c0,0,11.81,3.9,15.6-0.28c3.79-4.19,2.4-8.81,3.36-15.38c0.96-6.56,1.28-8.91,6.44-11.01
			c5.15-2.1,9.99-1.32,11.78-4.87c1.79-3.54,7.38-9.19,7.38-9.19s-5.93,5.15-6.48,9.93c-0.55,4.78-10.88,0.71-15.95,7.2
			c-3.54,4.54-0.43,15.19-3.16,21.76c-2.73,6.57-14.22,5.74-14.22,5.74S412.48,171.35,410.42,169.01z"/>
	</g>
	<g>
		<defs>
			<rect id="SVGID_00000116229737819092669170000002943268133163551921_" x="-7.11" y="-3.9" width="1000" height="400"/>
		</defs>
		<clipPath id="SVGID_00000006706617103333473250000018361740888543258298_">
			<use xlink:href="#SVGID_00000116229737819092669170000002943268133163551921_"  style="overflow:visible;"/>
		</clipPath>
		
			<path style="clip-path:url(#SVGID_00000006706617103333473250000018361740888543258298_);fill-rule:evenodd;clip-rule:evenodd;fill:#DAFFFF;" d="
			M561.83,104.39c0,21.75-7.76,41.69-20.67,57.2c-1.28-1.58-2.58-4.25-2.75-8.65c-0.32-9.03-0.27-13.4-3.55-19.5
			c-3.29-6.09-7.07-3.01-7.94-9.78c-0.83-6.55-3.84-13.66-4.03-14.1c0.26,0.37,3.67,5.42,4.15,7.71c0.49,2.39,0.11,6.76,1.28,9
			c1.15,2.24,5.42,3.96,7.1,5.23c1.67,1.27,3.25,8.69,3.25,12.32c0,3.63,2.62,4.14,3.63,4.04s6.03-5.01,6.52-6.95
			c0.5-1.92,5.32-13.4,1.32-18.71c-3.98-5.31-8.19-4.04-11.2-8.42c-3.02-4.37-4.85-4.08-12.56-8.83c0.61,0.26,5.65,2.42,9.53,4.45
			c4.14,2.17,3.54,3.96,5.72,6.01c2.17,2.06,5.82,2.76,7.89,4.14c2.06,1.38,3.28,7.6,4.6,10.06c1.31,2.46,5.94-1.32,4.41-10.77
			c-1.52-9.45-5.04-9.27-5.64-13.2c-0.61-3.92,4.53-1.62,6.29-5.64c1.76-4.01-0.63-10.74-1.8-13.88c-1.17-3.13-4.46-4.55-8.14-7.39
			c-3.67-2.85-2.88-4.38-7.52-6.96c-3.6-2.01-7.88-2.5-9.6-2.62c2.02,0.09,7.41,0.43,9.88,1.22c3.07,0.99,4.9,5.82,7.24,7.58
			c2.33,1.78,6.64,2.37,7.32,0.78c0.7-1.6-0.32-5.73-3.82-10.63c-2.66-3.72-4.7-9.97-5.52-12.74
			C556.46,69.46,561.83,86.3,561.83,104.39z"/>
	</g>
	<g>
		<defs>
			<rect id="SVGID_00000009579092784229587690000003686757550439770277_" x="-7.11" y="-3.9" width="1000" height="400"/>
		</defs>
		<clipPath id="SVGID_00000173143412285912424500000004629645975499605689_">
			<use xlink:href="#SVGID_00000009579092784229587690000003686757550439770277_"  style="overflow:visible;"/>
		</clipPath>
		
			<path style="clip-path:url(#SVGID_00000173143412285912424500000004629645975499605689_);fill-rule:evenodd;clip-rule:evenodd;fill:#DAFFFF;" d="
			M382.85,105.98c0,0,4.38,2.35,6.88,2.6s6.2-1.58,10.56-1.95c4.36-0.37,9.17,1.33,13.07,0.97c0,0-6.61,0.29-9.24,0
			s-1.55-0.34-4.66-0.32c-3.12,0.02-6.18,1.81-9.13,2.26c-2.96,0.46-3-0.73-5.12,0.33c-2.12,1.06-2.01,2.47-2.01,2.47
			S382.87,106.88,382.85,105.98z"/>
	</g>
	<g>
		<defs>
			<rect id="SVGID_00000139972713794438851690000016809176743458482840_" x="-7.11" y="-3.9" width="1000" height="400"/>
		</defs>
		<clipPath id="SVGID_00000011727771960410762620000002598888422898325124_">
			<use xlink:href="#SVGID_00000139972713794438851690000016809176743458482840_"  style="overflow:visible;"/>
		</clipPath>
		
			<path style="clip-path:url(#SVGID_00000011727771960410762620000002598888422898325124_);fill-rule:evenodd;clip-rule:evenodd;fill:#DAFFFF;" d="
			M387.76,75.02c0,0,9.45,7.53,23.35,9.93c4.98,0.86,10.81-0.86,13.57,4.43c1.92,3.68,9.01,4.93,9.01,4.93s-4.21,0.47-7.66-1.92
			s-1.41-4.36-5.95-5.94s-6.84-0.13-9.96-0.62c-3.12-0.49-10.71-5.36-12.9-3.29c-2.39,2.26,0.58,5.31,4.42,8.02
			c3.84,2.7,8.13,0.62,10.79,1.31c2.66,0.69,3.35,1.06,3.35,1.06s-2.42-0.32-5.99-0.54c-3.57-0.22-4.1,1.3-6.84,0
			s-6.09-4.85-7.38-7.46c-1.28-2.61-0.81-4.4-2.99-6.18c-2.18-1.77-6.03,0-6.03,0L387.76,75.02z"/>
	</g>
	<g>
		<defs>
			<rect id="SVGID_00000106838685931093426180000009342940088959514290_" x="-7.11" y="-3.9" width="1000" height="400"/>
		</defs>
		<clipPath id="SVGID_00000000219531177041518290000005652348340211438243_">
			<use xlink:href="#SVGID_00000106838685931093426180000009342940088959514290_"  style="overflow:visible;"/>
		</clipPath>
		
			<path style="clip-path:url(#SVGID_00000000219531177041518290000005652348340211438243_);fill-rule:evenodd;clip-rule:evenodd;fill:#DAFFFF;" d="
			M490.31,17.03c0,0,4.39,5.88,4.39,8.12c0,5.43-3.33,10.76-4.74,14.02c-1.77,4.1-1.74,8.62-1.74,8.62v5.09c0,0,0.1-5.45,0.99-8.11
			c0.89-2.66,2.66-2.87,3.15-4.89c0.49-2.01-0.29-4.47,0.94-7.53c1.23-3.06,2.32-3.13,2.26-5.22s-0.26-5.48,1.62-6.44
			c1.88-0.96,4-1.06,4-1.06S495.26,17.49,490.31,17.03z"/>
	</g>
	<g>
		<defs>
			<rect id="SVGID_00000173856781675918713270000005690767456428744341_" x="-7.11" y="-3.9" width="1000" height="400"/>
		</defs>
		<clipPath id="SVGID_00000146491693960924048200000001483183498496432315_">
			<use xlink:href="#SVGID_00000173856781675918713270000005690767456428744341_"  style="overflow:visible;"/>
		</clipPath>
		
			<path style="clip-path:url(#SVGID_00000146491693960924048200000001483183498496432315_);fill-rule:evenodd;clip-rule:evenodd;fill:#DAFFFF;" d="
			M436.92,22.09c0,0,1.65,0.84,2.81,5.51c0.36,1.46,0.04,3.23,2.5,5.83c2.45,2.61,3.71,3.84,4.3,5.52s1.48,5.25,1.48,5.25
			s-1.87-5.55-3.15-7.13s-1.58-1.06-2.96-2.35c-1.38-1.29-1.04-2.41-2.46-5.76c-1.43-3.36-6.52-4.95-6.52-4.95L436.92,22.09z"/>
	</g>
	<g>
		<defs>
			<rect id="SVGID_00000074426466178048571960000009777195046273273241_" x="-7.11" y="-3.9" width="1000" height="400"/>
		</defs>
		<clipPath id="SVGID_00000073691343174585728110000001233341778547611553_">
			<use xlink:href="#SVGID_00000074426466178048571960000009777195046273273241_"  style="overflow:visible;"/>
		</clipPath>
	</g>
	<g>
		<defs>
			<rect id="SVGID_00000103976512672101687910000014860146773416774590_" x="-7.11" y="-3.9" width="1000" height="400"/>
		</defs>
		<clipPath id="SVGID_00000035502816593470242470000005555830137270403007_">
			<use xlink:href="#SVGID_00000103976512672101687910000014860146773416774590_"  style="overflow:visible;"/>
		</clipPath>
	</g>
	<g>
		<defs>
			<rect id="SVGID_00000167381239741664475760000012036964676321910669_" x="-7.11" y="-3.9" width="1000" height="400"/>
		</defs>
		<clipPath id="SVGID_00000135690461667148700560000002395193556561023374_">
			<use xlink:href="#SVGID_00000167381239741664475760000012036964676321910669_"  style="overflow:visible;"/>
		</clipPath>
		<g style="opacity:0.5;clip-path:url(#SVGID_00000135690461667148700560000002395193556561023374_);">
			<path class="st3" d="M858.15,161.43c0.17,0.16,0.19,0.42,0.04,0.57c-0.15,0.15-0.4,0.14-0.57-0.03
				c-0.17-0.16-0.19-0.42-0.04-0.57C857.73,161.26,857.98,161.27,858.15,161.43z"/>
			<path class="st3" d="M847.52,168.85c0.12,0.12,0.13,0.3,0.03,0.4c-0.1,0.11-0.28,0.1-0.4-0.02c-0.12-0.12-0.13-0.3-0.03-0.4
				C847.22,168.72,847.4,168.73,847.52,168.85z"/>
			<path class="st3" d="M843.58,167.82c0.09,0.09,0.1,0.22,0.02,0.3c-0.08,0.08-0.21,0.07-0.3-0.01c-0.09-0.09-0.1-0.22-0.02-0.3
				S843.49,167.74,843.58,167.82z"/>
			<path class="st3" d="M852.76,165.04c0.06,0.05,0.06,0.14,0.01,0.19s-0.13,0.05-0.19-0.01c-0.06-0.05-0.06-0.14-0.01-0.19
				S852.7,164.98,852.76,165.04z"/>
			<path class="st3" d="M846.83,169.35c0.06,0.05,0.06,0.14,0.01,0.19s-0.13,0.05-0.19-0.01s-0.06-0.14-0.01-0.19
				S846.77,169.3,846.83,169.35z"/>
			<path class="st3" d="M849.3,171.59c0.06,0.05,0.06,0.14,0.01,0.19s-0.13,0.05-0.19-0.01c-0.06-0.05-0.06-0.14-0.01-0.19
				C849.16,171.53,849.25,171.53,849.3,171.59z"/>
			<path class="st3" d="M849.82,169.84c0.06,0.05,0.06,0.14,0.01,0.19s-0.13,0.05-0.19-0.01c-0.06-0.05-0.06-0.14-0.01-0.19
				C849.68,169.78,849.76,169.78,849.82,169.84z"/>
			<path class="st3" d="M848.52,167.92c0.03,0.03,0.03,0.07,0.01,0.09c-0.02,0.02-0.07,0.02-0.09,0c-0.03-0.03-0.03-0.07-0.01-0.09
				C848.45,167.89,848.49,167.89,848.52,167.92z"/>
			<path class="st3" d="M832.45,127.04c0.07,0.07,0.07,0.17,0.02,0.23c-0.06,0.06-0.16,0.05-0.23-0.01
				c-0.07-0.07-0.07-0.17-0.02-0.23C832.29,126.97,832.39,126.97,832.45,127.04z"/>
			<path class="st3" d="M848.69,169.41c0.03,0.03,0.03,0.07,0.01,0.09s-0.07,0.02-0.09,0c-0.03-0.03-0.03-0.07-0.01-0.09
				C848.62,169.38,848.66,169.38,848.69,169.41z"/>
			<path class="st3" d="M847.38,167.46c0.06,0.05,0.06,0.14,0.01,0.19s-0.13,0.05-0.19-0.01c-0.06-0.05-0.06-0.14-0.01-0.19
				S847.32,167.4,847.38,167.46z"/>
			<path class="st3" d="M898.33,215.42c0.22,0.22,0.25,0.55,0.05,0.75c-0.19,0.2-0.53,0.18-0.75-0.04
				c-0.22-0.22-0.25-0.55-0.05-0.75C897.77,215.18,898.11,215.2,898.33,215.42z"/>
			<path class="st3" d="M890.29,218.45c0.16,0.15,0.17,0.39,0.04,0.53c-0.14,0.14-0.37,0.13-0.53-0.03s-0.17-0.39-0.04-0.53
				C889.9,218.29,890.13,218.3,890.29,218.45z"/>
			<path class="st3" d="M885.12,217.11c0.11,0.11,0.13,0.29,0.03,0.39s-0.27,0.09-0.39-0.02c-0.11-0.11-0.13-0.29-0.03-0.39
				C884.83,216.99,885.01,216.99,885.12,217.11z"/>
			<path class="st3" d="M897.17,213.45c0.07,0.07,0.08,0.18,0.02,0.25s-0.18,0.06-0.25-0.01c-0.07-0.07-0.08-0.18-0.02-0.25
				C896.99,213.37,897.1,213.38,897.17,213.45z"/>
			<path class="st3" d="M889.39,219.11c0.07,0.07,0.08,0.18,0.02,0.25s-0.18,0.06-0.25-0.01c-0.07-0.07-0.08-0.18-0.02-0.25
				C889.2,219.04,889.31,219.04,889.39,219.11z"/>
			<path class="st3" d="M892.63,222.05c0.07,0.07,0.08,0.18,0.02,0.25s-0.18,0.06-0.25-0.01c-0.07-0.07-0.08-0.18-0.02-0.25
				C892.45,221.97,892.56,221.98,892.63,222.05z"/>
			<path class="st3" d="M893.31,219.75c0.07,0.07,0.08,0.18,0.02,0.25s-0.18,0.06-0.25-0.01c-0.07-0.07-0.08-0.18-0.02-0.25
				C893.13,219.68,893.24,219.68,893.31,219.75z"/>
			<path class="st3" d="M891.61,217.24c0.04,0.04,0.04,0.09,0.01,0.12c-0.03,0.03-0.09,0.03-0.12-0.01
				c-0.04-0.04-0.04-0.09-0.01-0.12C891.52,217.2,891.57,217.2,891.61,217.24z"/>
			<path class="st3" d="M891.83,219.19c0.04,0.04,0.04,0.09,0.01,0.12c-0.03,0.03-0.09,0.03-0.12-0.01
				c-0.04-0.04-0.04-0.09-0.01-0.12S891.8,219.15,891.83,219.19z"/>
			<path class="st3" d="M890.11,216.63c0.07,0.07,0.08,0.18,0.02,0.25s-0.18,0.06-0.25-0.01c-0.07-0.07-0.08-0.18-0.02-0.25
				C889.92,216.55,890.04,216.55,890.11,216.63z"/>
			<path class="st3" d="M843.24,171.49c0.06,0.05,0.06,0.14,0.01,0.19s-0.13,0.05-0.19-0.01c-0.06-0.05-0.06-0.14-0.01-0.19
				C843.1,171.43,843.18,171.44,843.24,171.49z"/>
			<path class="st3" d="M820.34,115.43c0.13,0.13,0.15,0.33,0.03,0.45c-0.12,0.12-0.32,0.11-0.45-0.02s-0.15-0.33-0.03-0.45
				C820.01,115.29,820.21,115.3,820.34,115.43z"/>
			<path class="st3" d="M852.07,152.84c0.4,0.39,0.45,1,0.1,1.36c-0.35,0.36-0.96,0.33-1.36-0.07c-0.4-0.39-0.45-1-0.1-1.36
				C851.06,152.42,851.67,152.45,852.07,152.84z"/>
			<path class="st3" d="M901.64,221.15c0.22,0.22,0.25,0.55,0.05,0.75c-0.19,0.2-0.53,0.18-0.75-0.04
				c-0.22-0.22-0.25-0.55-0.05-0.75C901.09,220.92,901.42,220.94,901.64,221.15z"/>
			<path class="st3" d="M860.09,169.4c0.4,0.39,0.45,1,0.1,1.36c-0.35,0.36-0.96,0.33-1.36-0.07c-0.4-0.39-0.45-1-0.1-1.36
				C859.08,168.98,859.69,169.01,860.09,169.4z"/>
			<path class="st3" d="M893.59,217.91c0.22,0.22,0.25,0.55,0.05,0.75c-0.19,0.2-0.53,0.18-0.75-0.04
				c-0.22-0.22-0.25-0.55-0.05-0.75C893.03,217.68,893.37,217.69,893.59,217.91z"/>
			<path class="st3" d="M830.3,136.42c0.4,0.39,0.45,1,0.1,1.36c-0.35,0.36-0.96,0.33-1.36-0.07c-0.4-0.39-0.45-1-0.1-1.36
				C829.29,136,829.9,136.02,830.3,136.42z"/>
			<path class="st3" d="M820.5,138.91c0.4,0.39,0.45,1,0.1,1.36c-0.35,0.36-0.96,0.33-1.36-0.07c-0.4-0.39-0.45-1-0.1-1.36
				C819.49,138.49,820.1,138.52,820.5,138.91z"/>
			<path class="st3" d="M852.15,179.81c0.12,0.12,0.13,0.3,0.03,0.4s-0.28,0.1-0.4-0.02c-0.12-0.12-0.13-0.3-0.03-0.4
				C851.85,179.69,852.03,179.69,852.15,179.81z"/>
			<path class="st3" d="M876.36,182.47c0.29,0.28,0.32,0.71,0.07,0.96s-0.68,0.23-0.96-0.05c-0.29-0.28-0.32-0.71-0.07-0.96
				C875.65,182.17,876.08,182.19,876.36,182.47z"/>
			<path class="st3" d="M870.68,176.77c0.28,0.28,0.32,0.71,0.07,0.96s-0.68,0.23-0.96-0.05s-0.32-0.71-0.07-0.96
				S870.39,176.49,870.68,176.77z"/>
			<path class="st3" d="M830.08,154.79c0.28,0.28,0.32,0.71,0.07,0.96s-0.68,0.23-0.96-0.05s-0.32-0.71-0.07-0.96
				C829.36,154.5,829.79,154.52,830.08,154.79z"/>
			<path class="st3" d="M847.59,171.8c0.12,0.12,0.13,0.3,0.03,0.4c-0.1,0.11-0.28,0.1-0.4-0.02c-0.12-0.12-0.13-0.3-0.03-0.4
				S847.47,171.69,847.59,171.8z"/>
			<path class="st3" d="M822.55,137.33c0.21,0.2,0.23,0.52,0.05,0.71s-0.5,0.17-0.71-0.03s-0.23-0.52-0.05-0.71
				C822.02,137.11,822.34,137.12,822.55,137.33z"/>
			<path class="st3" d="M802.09,107.45c0.21,0.2,0.23,0.52,0.05,0.71s-0.5,0.17-0.71-0.03s-0.23-0.52-0.05-0.71
				S801.88,107.25,802.09,107.45z"/>
			<path class="st3" d="M848.54,154.54c0.13,0.13,0.15,0.33,0.03,0.45s-0.32,0.11-0.45-0.02s-0.15-0.33-0.03-0.45
				C848.2,154.4,848.4,154.41,848.54,154.54z"/>
			<path class="st3" d="M828.43,156c0.13,0.13,0.15,0.33,0.03,0.45s-0.32,0.11-0.45-0.02s-0.15-0.33-0.03-0.45
				C828.09,155.85,828.3,155.86,828.43,156z"/>
			<path class="st3" d="M823.11,139.78c0.13,0.13,0.15,0.33,0.03,0.45s-0.32,0.11-0.45-0.02s-0.15-0.33-0.03-0.45
				C822.78,139.64,822.98,139.65,823.11,139.78z"/>
			<path class="st3" d="M834.35,161.35c0.13,0.13,0.15,0.33,0.03,0.45s-0.32,0.11-0.45-0.02s-0.15-0.33-0.03-0.45
				C834.01,161.21,834.22,161.22,834.35,161.35z"/>
			<path class="st3" d="M835.59,157.16c0.13,0.13,0.15,0.33,0.03,0.45s-0.32,0.11-0.45-0.02s-0.15-0.33-0.03-0.45
				C835.25,157.02,835.45,157.03,835.59,157.16z"/>
			<path class="st3" d="M828.79,128.42c0.13,0.13,0.15,0.33,0.03,0.45s-0.32,0.11-0.45-0.02s-0.15-0.33-0.03-0.45
				C828.45,128.28,828.65,128.29,828.79,128.42z"/>
			<path class="st3" d="M832.49,152.57c0.07,0.07,0.07,0.17,0.02,0.23c-0.06,0.06-0.16,0.05-0.23-0.01s-0.07-0.17-0.02-0.23
				C832.32,152.5,832.42,152.51,832.49,152.57z"/>
			<path class="st3" d="M825.45,127.02c0.07,0.07,0.07,0.17,0.02,0.23c-0.06,0.06-0.16,0.05-0.23-0.01
				c-0.07-0.07-0.07-0.17-0.02-0.23C825.28,126.95,825.38,126.95,825.45,127.02z"/>
			<path class="st3" d="M828.71,131.56c0.07,0.07,0.07,0.17,0.02,0.23c-0.06,0.06-0.16,0.05-0.23-0.01s-0.07-0.17-0.02-0.23
				C828.54,131.49,828.64,131.49,828.71,131.56z"/>
			<path class="st3" d="M821.01,138.55c0.07,0.07,0.07,0.17,0.02,0.23c-0.06,0.06-0.16,0.05-0.23-0.01
				c-0.07-0.07-0.07-0.17-0.02-0.23C820.84,138.47,820.95,138.48,821.01,138.55z"/>
			<path class="st3" d="M832.89,156.13c0.07,0.07,0.07,0.17,0.02,0.23c-0.06,0.06-0.16,0.05-0.23-0.01s-0.07-0.17-0.02-0.23
				C832.72,156.06,832.82,156.06,832.89,156.13z"/>
			<path class="st3" d="M833.63,110.9c0.32,0.31,0.36,0.8,0.08,1.09s-0.77,0.26-1.09-0.05c-0.32-0.31-0.36-0.8-0.08-1.09
				S833.31,110.58,833.63,110.9z"/>
			<path class="st3" d="M862.14,159.11c0.32,0.31,0.36,0.8,0.08,1.09s-0.77,0.26-1.09-0.05s-0.36-0.8-0.08-1.09
				C861.33,158.77,861.82,158.79,862.14,159.11z"/>
			<path class="st3" d="M853.36,177.66c0.1,0.09,0.11,0.24,0.02,0.32c-0.08,0.08-0.23,0.08-0.32-0.02c-0.1-0.09-0.11-0.24-0.02-0.32
				C853.12,177.56,853.26,177.57,853.36,177.66z"/>
			<path class="st3" d="M875.15,169.55c0.23,0.22,0.25,0.57,0.06,0.77c-0.2,0.2-0.54,0.19-0.77-0.04c-0.23-0.22-0.25-0.57-0.06-0.77
				C874.58,169.31,874.93,169.33,875.15,169.55z"/>
			<path class="st3" d="M870.61,165c0.23,0.22,0.25,0.57,0.06,0.77c-0.2,0.2-0.54,0.19-0.77-0.04c-0.23-0.22-0.25-0.57-0.06-0.77
				C870.03,164.76,870.38,164.78,870.61,165z"/>
			<path class="st3" d="M838.15,147.43c0.23,0.22,0.25,0.57,0.06,0.77c-0.2,0.2-0.54,0.19-0.77-0.04c-0.23-0.22-0.25-0.57-0.06-0.77
				C837.58,147.19,837.92,147.21,838.15,147.43z"/>
			<path class="st3" d="M848.9,178.3c0.04,0.04,0.05,0.11,0.01,0.15s-0.11,0.04-0.15-0.01c-0.04-0.04-0.05-0.11-0.01-0.15
				C848.79,178.25,848.86,178.26,848.9,178.3z"/>
			<path class="st3" d="M836.83,148.39c0.11,0.1,0.12,0.27,0.03,0.36c-0.09,0.1-0.26,0.09-0.36-0.02c-0.11-0.1-0.12-0.27-0.03-0.36
				S836.73,148.28,836.83,148.39z"/>
			<path class="st3" d="M841.56,152.67c0.11,0.1,0.12,0.27,0.03,0.36c-0.09,0.1-0.26,0.09-0.36-0.02c-0.11-0.1-0.12-0.27-0.03-0.36
				C841.3,152.56,841.46,152.57,841.56,152.67z"/>
			<path class="st3" d="M842.56,149.32c0.11,0.1,0.12,0.27,0.03,0.36c-0.09,0.1-0.26,0.09-0.36-0.02c-0.11-0.1-0.12-0.27-0.03-0.36
				S842.45,149.22,842.56,149.32z"/>
			<path class="st3" d="M840.07,145.65c0.05,0.05,0.06,0.13,0.01,0.18c-0.05,0.05-0.13,0.04-0.18-0.01
				c-0.05-0.05-0.06-0.13-0.01-0.18C839.94,145.6,840.02,145.6,840.07,145.65z"/>
			<path class="st3" d="M840.4,148.49c0.05,0.05,0.06,0.13,0.01,0.18c-0.05,0.05-0.13,0.04-0.18-0.01
				c-0.05-0.05-0.06-0.13-0.01-0.18C840.26,148.44,840.34,148.44,840.4,148.49z"/>
			<path class="st3" d="M823.32,137.6c0.07,0.07,0.07,0.17,0.02,0.23c-0.06,0.06-0.16,0.05-0.23-0.01s-0.07-0.17-0.02-0.23
				C823.16,137.53,823.26,137.54,823.32,137.6z"/>
			<path class="st3" d="M829.75,151.46c0.13,0.13,0.15,0.33,0.03,0.45s-0.32,0.11-0.45-0.02s-0.15-0.33-0.03-0.45
				C829.41,151.32,829.61,151.33,829.75,151.46z"/>
			<path class="st3" d="M823.17,131.65c0.13,0.13,0.15,0.33,0.03,0.45s-0.32,0.11-0.45-0.02s-0.15-0.33-0.03-0.45
				C822.83,131.51,823.03,131.52,823.17,131.65z"/>
			<path class="st3" d="M823.15,135.89c0.13,0.13,0.15,0.33,0.03,0.45s-0.32,0.11-0.45-0.02s-0.15-0.33-0.03-0.45
				C822.82,135.74,823.02,135.75,823.15,135.89z"/>
			<path class="st3" d="M903.2,227.6c0.22,0.22,0.25,0.55,0.05,0.75c-0.19,0.2-0.53,0.18-0.75-0.04c-0.22-0.22-0.25-0.55-0.05-0.75
				C902.64,227.37,902.98,227.38,903.2,227.6z"/>
			<path class="st3" d="M897.83,228.97c0.22,0.22,0.25,0.55,0.05,0.75c-0.19,0.2-0.53,0.18-0.75-0.04
				c-0.22-0.22-0.25-0.55-0.05-0.75C897.27,228.73,897.61,228.75,897.83,228.97z"/>
			<path class="st3" d="M898.95,228.1c0.11,0.11,0.13,0.29,0.03,0.39s-0.27,0.09-0.39-0.02c-0.11-0.11-0.13-0.29-0.03-0.39
				C898.66,227.98,898.83,227.98,898.95,228.1z"/>
			<path class="st3" d="M899.26,229.44c0.07,0.07,0.08,0.18,0.02,0.25s-0.18,0.06-0.25-0.01c-0.07-0.07-0.08-0.18-0.02-0.25
				S899.18,229.37,899.26,229.44z"/>
			<path class="st3" d="M902.32,224.93c0.04,0.04,0.04,0.09,0.01,0.12c-0.03,0.03-0.09,0.03-0.12-0.01
				c-0.04-0.04-0.04-0.09-0.01-0.12C902.23,224.89,902.29,224.9,902.32,224.93z"/>
			<path class="st3" d="M898.11,228.76c0.04,0.04,0.04,0.09,0.01,0.12c-0.03,0.03-0.09,0.03-0.12-0.01
				c-0.04-0.04-0.04-0.09-0.01-0.12C898.01,228.73,898.07,228.73,898.11,228.76z"/>
			<path class="st3" d="M899.37,228.25c0.04,0.04,0.04,0.09,0.01,0.12c-0.03,0.03-0.09,0.03-0.12-0.01
				c-0.04-0.04-0.04-0.09-0.01-0.12C899.28,228.21,899.34,228.21,899.37,228.25z"/>
			<path class="st3" d="M899.29,224.99c0.07,0.07,0.08,0.18,0.02,0.25s-0.18,0.06-0.25-0.01c-0.07-0.07-0.08-0.18-0.02-0.25
				S899.21,224.91,899.29,224.99z"/>
			<path class="st3" d="M899.28,227.31c0.07,0.07,0.08,0.18,0.02,0.25s-0.18,0.06-0.25-0.01c-0.07-0.07-0.08-0.18-0.02-0.25
				S899.21,227.23,899.28,227.31z"/>
			<path class="st3" d="M814.84,140.39c0.13,0.13,0.15,0.33,0.03,0.45s-0.32,0.11-0.45-0.02s-0.15-0.33-0.03-0.45
				S814.71,140.26,814.84,140.39z"/>
		</g>
	</g>
	<g>
		<defs>
			<rect id="SVGID_00000129919776553689707540000004960363476020083866_" x="-7.11" y="-3.9" width="1000" height="400"/>
		</defs>
		<clipPath id="SVGID_00000171699413686660684250000005589923552438067874_">
			<use xlink:href="#SVGID_00000129919776553689707540000004960363476020083866_"  style="overflow:visible;"/>
		</clipPath>
		<g style="clip-path:url(#SVGID_00000171699413686660684250000005589923552438067874_);">
			<path class="st3" d="M766.27,62.33c0.17,0.16,0.19,0.42,0.04,0.57s-0.4,0.14-0.57-0.03c-0.17-0.16-0.19-0.42-0.04-0.57
				S766.1,62.17,766.27,62.33z"/>
			<path class="st3" d="M755.64,69.75c0.12,0.12,0.13,0.3,0.03,0.4c-0.1,0.11-0.28,0.1-0.4-0.02c-0.12-0.12-0.13-0.3-0.03-0.4
				C755.34,69.62,755.52,69.63,755.64,69.75z"/>
			<path class="st3" d="M751.7,68.72c0.09,0.09,0.1,0.22,0.02,0.3c-0.08,0.08-0.21,0.07-0.3-0.01c-0.09-0.09-0.1-0.22-0.02-0.3
				C751.48,68.63,751.61,68.63,751.7,68.72z"/>
			<path class="st3" d="M760.88,65.93c0.06,0.05,0.06,0.14,0.01,0.19s-0.13,0.05-0.19-0.01c-0.06-0.05-0.06-0.14-0.01-0.19
				S760.82,65.88,760.88,65.93z"/>
			<path class="st3" d="M754.95,70.25c0.06,0.05,0.06,0.14,0.01,0.19s-0.13,0.05-0.19-0.01c-0.06-0.05-0.06-0.14-0.01-0.19
				S754.89,70.19,754.95,70.25z"/>
			<path class="st3" d="M757.42,72.49c0.06,0.05,0.06,0.14,0.01,0.19s-0.13,0.05-0.19-0.01c-0.06-0.05-0.06-0.14-0.01-0.19
				C757.28,72.43,757.37,72.43,757.42,72.49z"/>
			<path class="st3" d="M757.94,70.74c0.06,0.05,0.06,0.14,0.01,0.19s-0.13,0.05-0.19-0.01c-0.06-0.05-0.06-0.14-0.01-0.19
				C757.8,70.68,757.88,70.68,757.94,70.74z"/>
			<path class="st3" d="M756.64,68.82c0.03,0.03,0.03,0.07,0.01,0.09s-0.07,0.02-0.09,0c-0.03-0.03-0.03-0.07-0.01-0.09
				C756.57,68.79,756.62,68.79,756.64,68.82z"/>
			<path class="st3" d="M740.57,27.94c0.07,0.07,0.07,0.17,0.02,0.23c-0.06,0.06-0.16,0.05-0.23-0.01
				c-0.07-0.07-0.07-0.17-0.02-0.23C740.41,27.87,740.51,27.87,740.57,27.94z"/>
			<path class="st3" d="M756.81,70.3c0.03,0.03,0.03,0.07,0.01,0.09s-0.07,0.02-0.09,0c-0.03-0.03-0.03-0.07-0.01-0.09
				C756.74,70.27,756.78,70.28,756.81,70.3z"/>
			<path class="st3" d="M755.5,68.35c0.06,0.05,0.06,0.14,0.01,0.19s-0.13,0.05-0.19-0.01c-0.06-0.05-0.06-0.14-0.01-0.19
				C755.36,68.29,755.44,68.3,755.5,68.35z"/>
			<path class="st3" d="M821.89,93.64c0.22,0.22,0.25,0.55,0.05,0.75c-0.19,0.2-0.53,0.18-0.75-0.04s-0.25-0.55-0.05-0.75
				C821.34,93.41,821.67,93.42,821.89,93.64z"/>
			<path class="st3" d="M813.86,96.68c0.16,0.15,0.17,0.39,0.04,0.53c-0.14,0.14-0.37,0.13-0.53-0.03
				c-0.16-0.15-0.17-0.39-0.04-0.53C813.46,96.51,813.7,96.53,813.86,96.68z"/>
			<path class="st3" d="M808.69,95.33c0.11,0.11,0.13,0.29,0.03,0.39s-0.27,0.09-0.39-0.02c-0.11-0.11-0.13-0.29-0.03-0.39
				C808.4,95.21,808.57,95.22,808.69,95.33z"/>
			<path class="st3" d="M820.74,91.67c0.07,0.07,0.08,0.18,0.02,0.25s-0.18,0.06-0.25-0.01s-0.08-0.18-0.02-0.25
				C820.55,91.6,820.66,91.6,820.74,91.67z"/>
			<path class="st3" d="M812.95,97.34c0.07,0.07,0.08,0.18,0.02,0.25s-0.18,0.06-0.25-0.01s-0.08-0.18-0.02-0.25
				C812.77,97.26,812.88,97.26,812.95,97.34z"/>
			<path class="st3" d="M816.2,100.27c0.07,0.07,0.08,0.18,0.02,0.25s-0.18,0.06-0.25-0.01s-0.08-0.18-0.02-0.25
				C816.01,100.2,816.12,100.2,816.2,100.27z"/>
			<path class="st3" d="M816.88,97.98c0.07,0.07,0.08,0.18,0.02,0.25s-0.18,0.06-0.25-0.01s-0.08-0.18-0.02-0.25
				C816.69,97.9,816.8,97.91,816.88,97.98z"/>
			<path class="st3" d="M815.18,95.46c0.04,0.04,0.04,0.09,0.01,0.12c-0.03,0.03-0.09,0.03-0.12-0.01
				c-0.04-0.04-0.04-0.09-0.01-0.12C815.08,95.42,815.14,95.42,815.18,95.46z"/>
			<path class="st3" d="M815.4,97.41c0.04,0.04,0.04,0.09,0.01,0.12c-0.03,0.03-0.09,0.03-0.12-0.01c-0.04-0.04-0.04-0.09-0.01-0.12
				C815.3,97.37,815.36,97.37,815.4,97.41z"/>
			<path class="st3" d="M813.67,94.85c0.07,0.07,0.08,0.18,0.02,0.25s-0.18,0.06-0.25-0.01s-0.08-0.18-0.02-0.25
				C813.49,94.77,813.6,94.78,813.67,94.85z"/>
			<path class="st3" d="M751.36,72.39c0.06,0.05,0.06,0.14,0.01,0.19s-0.13,0.05-0.19-0.01c-0.06-0.05-0.06-0.14-0.01-0.19
				C751.22,72.33,751.3,72.33,751.36,72.39z"/>
			<path class="st3" d="M728.47,16.32c0.13,0.13,0.15,0.33,0.03,0.45s-0.32,0.11-0.45-0.02c-0.13-0.13-0.15-0.33-0.03-0.45
				C728.13,16.18,728.33,16.19,728.47,16.32z"/>
			<path class="st3" d="M760.2,53.74c0.4,0.39,0.45,1,0.1,1.36c-0.35,0.36-0.96,0.33-1.36-0.07c-0.4-0.39-0.45-1-0.1-1.36
				C759.18,53.32,759.79,53.35,760.2,53.74z"/>
			<path class="st3" d="M825.21,99.38c0.22,0.22,0.25,0.55,0.05,0.75c-0.19,0.2-0.53,0.18-0.75-0.04s-0.25-0.55-0.05-0.75
				C824.65,99.14,824.99,99.16,825.21,99.38z"/>
			<path class="st3" d="M768.21,70.3c0.4,0.39,0.45,1,0.1,1.36c-0.35,0.36-0.96,0.33-1.36-0.07c-0.4-0.39-0.45-1-0.1-1.36
				S767.81,69.9,768.21,70.3z"/>
			<path class="st3" d="M817.15,96.13c0.22,0.22,0.25,0.55,0.05,0.75s-0.53,0.18-0.75-0.04s-0.25-0.55-0.05-0.75
				C816.6,95.9,816.93,95.92,817.15,96.13z"/>
			<path class="st3" d="M738.42,37.32c0.4,0.39,0.45,1,0.1,1.36c-0.35,0.36-0.96,0.33-1.36-0.07c-0.4-0.39-0.45-1-0.1-1.36
				C737.41,36.89,738.02,36.92,738.42,37.32z"/>
			<path class="st3" d="M728.63,39.81c0.4,0.39,0.45,1,0.1,1.36c-0.35,0.36-0.96,0.33-1.36-0.07c-0.4-0.39-0.45-1-0.1-1.36
				C727.61,39.39,728.22,39.42,728.63,39.81z"/>
			<path class="st3" d="M760.27,80.71c0.12,0.12,0.13,0.3,0.03,0.4c-0.1,0.11-0.28,0.1-0.4-0.02c-0.12-0.12-0.13-0.3-0.03-0.4
				C759.98,80.58,760.16,80.59,760.27,80.71z"/>
			<path class="st3" d="M784.49,83.37c0.29,0.28,0.32,0.71,0.07,0.96s-0.68,0.23-0.96-0.05c-0.29-0.28-0.32-0.71-0.07-0.96
				C783.77,83.07,784.2,83.09,784.49,83.37z"/>
			<path class="st3" d="M778.8,77.67c0.28,0.28,0.32,0.71,0.07,0.96s-0.68,0.23-0.96-0.05c-0.28-0.28-0.32-0.71-0.07-0.96
				C778.08,77.37,778.51,77.39,778.8,77.67z"/>
			<path class="st3" d="M738.2,55.69c0.29,0.28,0.32,0.71,0.07,0.96s-0.68,0.23-0.96-0.05c-0.29-0.28-0.32-0.71-0.07-0.96
				C737.48,55.39,737.91,55.41,738.2,55.69z"/>
			<path class="st3" d="M755.71,72.7c0.12,0.12,0.13,0.3,0.03,0.4c-0.1,0.11-0.28,0.1-0.4-0.02c-0.12-0.12-0.13-0.3-0.03-0.4
				C755.41,72.58,755.59,72.59,755.71,72.7z"/>
			<path class="st3" d="M730.67,38.22c0.21,0.2,0.23,0.52,0.05,0.71s-0.5,0.17-0.71-0.03c-0.21-0.2-0.23-0.52-0.05-0.71
				S730.46,38.02,730.67,38.22z"/>
			<path class="st3" d="M710.21,8.35c0.21,0.2,0.23,0.52,0.05,0.71s-0.5,0.17-0.71-0.03s-0.23-0.52-0.05-0.71
				C709.68,8.13,710,8.15,710.21,8.35z"/>
			<path class="st3" d="M756.66,55.43c0.13,0.13,0.15,0.33,0.03,0.45s-0.32,0.11-0.45-0.02s-0.15-0.33-0.03-0.45
				C756.32,55.29,756.52,55.3,756.66,55.43z"/>
			<path class="st3" d="M736.55,56.89c0.13,0.13,0.15,0.33,0.03,0.45s-0.32,0.11-0.45-0.02s-0.15-0.33-0.03-0.45
				C736.21,56.75,736.42,56.76,736.55,56.89z"/>
			<path class="st3" d="M731.24,40.68c0.13,0.13,0.15,0.33,0.03,0.45s-0.32,0.11-0.45-0.02s-0.15-0.33-0.03-0.45
				C730.9,40.54,731.1,40.55,731.24,40.68z"/>
			<path class="st3" d="M742.47,62.25c0.13,0.13,0.15,0.33,0.03,0.45c-0.12,0.12-0.32,0.11-0.45-0.02s-0.15-0.33-0.03-0.45
				C742.13,62.11,742.34,62.12,742.47,62.25z"/>
			<path class="st3" d="M743.71,58.06c0.13,0.13,0.15,0.33,0.03,0.45s-0.32,0.11-0.45-0.02s-0.15-0.33-0.03-0.45
				C743.37,57.92,743.58,57.93,743.71,58.06z"/>
			<path class="st3" d="M736.91,29.32c0.13,0.13,0.15,0.33,0.03,0.45s-0.32,0.11-0.45-0.02s-0.15-0.33-0.03-0.45
				C736.57,29.18,736.78,29.19,736.91,29.32z"/>
			<path class="st3" d="M740.61,53.47c0.07,0.07,0.07,0.17,0.02,0.23c-0.06,0.06-0.16,0.05-0.23-0.01
				c-0.07-0.07-0.07-0.17-0.02-0.23C740.44,53.4,740.54,53.4,740.61,53.47z"/>
			<path class="st3" d="M733.57,27.92c0.07,0.07,0.07,0.17,0.02,0.23c-0.06,0.06-0.16,0.05-0.23-0.01
				c-0.07-0.07-0.07-0.17-0.02-0.23C733.4,27.85,733.5,27.85,733.57,27.92z"/>
			<path class="st3" d="M736.83,32.45c0.07,0.07,0.07,0.17,0.02,0.23c-0.06,0.06-0.16,0.05-0.23-0.01
				c-0.07-0.07-0.07-0.17-0.02-0.23C736.66,32.38,736.76,32.39,736.83,32.45z"/>
			<path class="st3" d="M729.13,39.44c0.07,0.07,0.07,0.17,0.02,0.23c-0.06,0.06-0.16,0.05-0.23-0.01s-0.07-0.17-0.02-0.23
				C728.97,39.37,729.07,39.38,729.13,39.44z"/>
			<path class="st3" d="M741.01,57.03c0.07,0.07,0.07,0.17,0.02,0.23c-0.06,0.06-0.16,0.05-0.23-0.01
				c-0.07-0.07-0.07-0.17-0.02-0.23C740.84,56.95,740.94,56.96,741.01,57.03z"/>
			<path class="st3" d="M741.75,11.79c0.32,0.31,0.36,0.8,0.08,1.09c-0.28,0.29-0.77,0.26-1.09-0.05s-0.36-0.8-0.08-1.09
				C740.94,11.46,741.43,11.48,741.75,11.79z"/>
			<path class="st3" d="M770.26,60c0.32,0.31,0.36,0.8,0.08,1.09c-0.28,0.29-0.77,0.26-1.09-0.05c-0.32-0.31-0.36-0.8-0.08-1.09
				S769.94,59.69,770.26,60z"/>
			<path class="st3" d="M761.48,78.56c0.1,0.09,0.11,0.24,0.02,0.32c-0.08,0.08-0.23,0.08-0.32-0.02c-0.1-0.09-0.11-0.24-0.02-0.32
				C761.24,78.46,761.38,78.46,761.48,78.56z"/>
			<path class="st3" d="M783.27,70.45c0.23,0.22,0.25,0.57,0.06,0.77c-0.2,0.2-0.54,0.19-0.77-0.04c-0.23-0.22-0.25-0.57-0.06-0.77
				C782.7,70.21,783.05,70.23,783.27,70.45z"/>
			<path class="st3" d="M778.73,65.9c0.23,0.22,0.25,0.57,0.06,0.77c-0.2,0.2-0.54,0.19-0.77-0.04c-0.23-0.22-0.25-0.57-0.06-0.77
				C778.16,65.66,778.5,65.67,778.73,65.9z"/>
			<path class="st3" d="M746.27,48.33c0.23,0.22,0.25,0.57,0.06,0.77c-0.2,0.2-0.54,0.19-0.77-0.04c-0.23-0.22-0.25-0.57-0.06-0.77
				C745.7,48.09,746.04,48.1,746.27,48.33z"/>
			<path class="st3" d="M757.02,79.2c0.04,0.04,0.05,0.11,0.01,0.15s-0.11,0.04-0.15-0.01c-0.04-0.04-0.05-0.11-0.01-0.15
				C756.91,79.15,756.98,79.15,757.02,79.2z"/>
			<path class="st3" d="M744.95,49.29c0.11,0.1,0.12,0.27,0.03,0.36c-0.09,0.1-0.26,0.09-0.36-0.02c-0.11-0.1-0.12-0.27-0.03-0.36
				C744.68,49.17,744.85,49.18,744.95,49.29z"/>
			<path class="st3" d="M749.69,53.57c0.11,0.1,0.12,0.27,0.03,0.36c-0.09,0.1-0.26,0.09-0.36-0.02c-0.11-0.1-0.12-0.27-0.03-0.36
				C749.42,53.46,749.58,53.47,749.69,53.57z"/>
			<path class="st3" d="M750.68,50.22c0.11,0.1,0.12,0.27,0.03,0.36c-0.09,0.1-0.26,0.09-0.36-0.02c-0.11-0.1-0.12-0.27-0.03-0.36
				C750.41,50.11,750.57,50.12,750.68,50.22z"/>
			<path class="st3" d="M748.2,46.55c0.05,0.05,0.06,0.13,0.01,0.18s-0.13,0.04-0.18-0.01s-0.06-0.13-0.01-0.18
				C748.06,46.49,748.14,46.5,748.2,46.55z"/>
			<path class="st3" d="M748.52,49.39c0.05,0.05,0.06,0.13,0.01,0.18s-0.13,0.04-0.18-0.01s-0.06-0.13-0.01-0.18
				C748.38,49.34,748.47,49.34,748.52,49.39z"/>
			<path class="st3" d="M731.44,38.5c0.07,0.07,0.07,0.17,0.02,0.23c-0.06,0.06-0.16,0.05-0.23-0.01c-0.07-0.07-0.07-0.17-0.02-0.23
				C731.28,38.43,731.38,38.44,731.44,38.5z"/>
			<path class="st3" d="M737.87,52.36c0.13,0.13,0.15,0.33,0.03,0.45s-0.32,0.11-0.45-0.02s-0.15-0.33-0.03-0.45
				C737.53,52.22,737.73,52.23,737.87,52.36z"/>
			<path class="st3" d="M731.29,32.55c0.13,0.13,0.15,0.33,0.03,0.45s-0.32,0.11-0.45-0.02s-0.15-0.33-0.03-0.45
				C730.95,32.41,731.15,32.42,731.29,32.55z"/>
			<path class="st3" d="M731.27,36.78c0.13,0.13,0.15,0.33,0.03,0.45s-0.32,0.11-0.45-0.02s-0.15-0.33-0.03-0.45
				S731.14,36.65,731.27,36.78z"/>
			<path class="st3" d="M826.76,105.82c0.22,0.22,0.25,0.55,0.05,0.75c-0.19,0.2-0.53,0.18-0.75-0.04s-0.25-0.55-0.05-0.75
				C826.21,105.59,826.54,105.61,826.76,105.82z"/>
			<path class="st3" d="M821.39,107.19c0.22,0.22,0.25,0.55,0.05,0.75c-0.19,0.2-0.53,0.18-0.75-0.04s-0.25-0.55-0.05-0.75
				C820.84,106.96,821.17,106.97,821.39,107.19z"/>
			<path class="st3" d="M822.51,106.32c0.11,0.11,0.13,0.29,0.03,0.39s-0.27,0.09-0.39-0.02c-0.11-0.11-0.13-0.29-0.03-0.39
				C822.22,106.2,822.4,106.21,822.51,106.32z"/>
			<path class="st3" d="M822.82,107.66c0.07,0.07,0.08,0.18,0.02,0.25s-0.18,0.06-0.25-0.01s-0.08-0.18-0.02-0.25
				C822.64,107.59,822.75,107.59,822.82,107.66z"/>
			<path class="st3" d="M825.89,103.16c0.04,0.04,0.04,0.09,0.01,0.12c-0.03,0.03-0.09,0.03-0.12-0.01
				c-0.04-0.04-0.04-0.09-0.01-0.12C825.8,103.12,825.85,103.12,825.89,103.16z"/>
			<path class="st3" d="M821.67,106.99c0.04,0.04,0.04,0.09,0.01,0.12c-0.03,0.03-0.09,0.03-0.12-0.01
				c-0.04-0.04-0.04-0.09-0.01-0.12C821.58,106.95,821.63,106.95,821.67,106.99z"/>
			<path class="st3" d="M822.94,106.47c0.04,0.04,0.04,0.09,0.01,0.12c-0.03,0.03-0.09,0.03-0.12-0.01
				c-0.04-0.04-0.04-0.09-0.01-0.12C822.84,106.43,822.9,106.44,822.94,106.47z"/>
			<path class="st3" d="M822.85,103.21c0.07,0.07,0.08,0.18,0.02,0.25s-0.18,0.06-0.25-0.01s-0.08-0.18-0.02-0.25
				C822.67,103.13,822.78,103.14,822.85,103.21z"/>
			<path class="st3" d="M822.84,105.53c0.07,0.07,0.08,0.18,0.02,0.25s-0.18,0.06-0.25-0.01s-0.08-0.18-0.02-0.25
				C822.66,105.45,822.77,105.46,822.84,105.53z"/>
			<path class="st3" d="M722.96,41.28c0.13,0.13,0.15,0.33,0.03,0.45s-0.32,0.11-0.45-0.02s-0.15-0.33-0.03-0.45
				S722.83,41.15,722.96,41.28z"/>
		</g>
	</g>
	<g>
		<defs>
			<rect id="SVGID_00000065766885973310074530000000395270293394997383_" x="-7.11" y="-3.9" width="1000" height="400"/>
		</defs>
		<clipPath id="SVGID_00000049221348658403671270000018113277274754163117_">
			<use xlink:href="#SVGID_00000065766885973310074530000000395270293394997383_"  style="overflow:visible;"/>
		</clipPath>
		<g style="clip-path:url(#SVGID_00000049221348658403671270000018113277274754163117_);">
			<path class="st3" d="M689.27,74.14c0.17,0.16,0.19,0.42,0.04,0.57s-0.4,0.14-0.57-0.03c-0.17-0.16-0.19-0.42-0.04-0.57
				C688.84,73.96,689.1,73.97,689.27,74.14z"/>
			<path class="st3" d="M678.63,81.55c0.12,0.12,0.13,0.3,0.03,0.4c-0.1,0.11-0.28,0.1-0.4-0.02c-0.12-0.12-0.13-0.3-0.03-0.4
				C678.33,81.43,678.51,81.44,678.63,81.55z"/>
			<path class="st3" d="M674.69,80.53c0.09,0.09,0.1,0.22,0.02,0.3c-0.08,0.08-0.21,0.07-0.3-0.01c-0.09-0.09-0.1-0.22-0.02-0.3
				C674.48,80.43,674.61,80.44,674.69,80.53z"/>
			<path class="st3" d="M683.88,77.74c0.06,0.05,0.06,0.14,0.01,0.19s-0.13,0.05-0.19-0.01c-0.06-0.05-0.06-0.14-0.01-0.19
				C683.74,77.68,683.82,77.69,683.88,77.74z"/>
			<path class="st3" d="M677.94,82.06c0.06,0.05,0.06,0.14,0.01,0.19s-0.13,0.05-0.19-0.01c-0.06-0.05-0.06-0.14-0.01-0.19
				C677.8,82,677.89,82,677.94,82.06z"/>
			<path class="st3" d="M680.42,84.29c0.06,0.05,0.06,0.14,0.01,0.19s-0.13,0.05-0.19-0.01c-0.06-0.05-0.06-0.14-0.01-0.19
				C680.28,84.24,680.36,84.24,680.42,84.29z"/>
			<path class="st3" d="M680.94,82.54c0.06,0.05,0.06,0.14,0.01,0.19s-0.13,0.05-0.19-0.01c-0.06-0.05-0.06-0.14-0.01-0.19
				C680.79,82.49,680.88,82.49,680.94,82.54z"/>
			<path class="st3" d="M679.64,80.63c0.03,0.03,0.03,0.07,0.01,0.09s-0.07,0.02-0.09,0c-0.03-0.03-0.03-0.07-0.01-0.09
				C679.57,80.6,679.61,80.6,679.64,80.63z"/>
			<path class="st3" d="M663.57,39.74c0.07,0.07,0.07,0.17,0.02,0.23c-0.06,0.06-0.16,0.05-0.23-0.01
				c-0.07-0.07-0.07-0.17-0.02-0.23C663.4,39.67,663.5,39.68,663.57,39.74z"/>
			<path class="st3" d="M679.81,82.11c0.03,0.03,0.03,0.07,0.01,0.09s-0.07,0.02-0.09,0c-0.03-0.03-0.03-0.07-0.01-0.09
				C679.74,82.08,679.78,82.08,679.81,82.11z"/>
			<path class="st3" d="M678.49,80.16c0.06,0.05,0.06,0.14,0.01,0.19s-0.13,0.05-0.19-0.01c-0.06-0.05-0.06-0.14-0.01-0.19
				C678.35,80.1,678.44,80.11,678.49,80.16z"/>
			<path class="st3" d="M744.89,105.45c0.22,0.22,0.25,0.55,0.05,0.75c-0.19,0.2-0.53,0.18-0.75-0.04s-0.25-0.55-0.05-0.75
				C744.33,105.21,744.67,105.23,744.89,105.45z"/>
			<path class="st3" d="M736.85,108.49c0.16,0.15,0.17,0.39,0.04,0.53c-0.14,0.14-0.37,0.13-0.53-0.03
				c-0.16-0.15-0.17-0.39-0.04-0.53C736.46,108.32,736.69,108.33,736.85,108.49z"/>
			<path class="st3" d="M731.68,107.14c0.11,0.11,0.13,0.29,0.03,0.39s-0.27,0.09-0.39-0.02c-0.11-0.11-0.13-0.29-0.03-0.39
				C731.39,107.02,731.57,107.02,731.68,107.14z"/>
			<path class="st3" d="M743.73,103.48c0.07,0.07,0.08,0.18,0.02,0.25s-0.18,0.06-0.25-0.01s-0.08-0.18-0.02-0.25
				C743.55,103.4,743.66,103.41,743.73,103.48z"/>
			<path class="st3" d="M735.95,109.14c0.07,0.07,0.08,0.18,0.02,0.25s-0.18,0.06-0.25-0.01s-0.08-0.18-0.02-0.25
				C735.76,109.07,735.87,109.07,735.95,109.14z"/>
			<path class="st3" d="M739.19,112.08c0.07,0.07,0.08,0.18,0.02,0.25s-0.18,0.06-0.25-0.01s-0.08-0.18-0.02-0.25
				C739.01,112.01,739.12,112.01,739.19,112.08z"/>
			<path class="st3" d="M739.87,109.79c0.07,0.07,0.08,0.18,0.02,0.25s-0.18,0.06-0.25-0.01s-0.08-0.18-0.02-0.25
				C739.69,109.71,739.8,109.71,739.87,109.79z"/>
			<path class="st3" d="M738.17,107.27c0.04,0.04,0.04,0.09,0.01,0.12c-0.03,0.03-0.09,0.03-0.12-0.01
				c-0.04-0.04-0.04-0.09-0.01-0.12C738.08,107.23,738.13,107.23,738.17,107.27z"/>
			<path class="st3" d="M738.39,109.22c0.04,0.04,0.04,0.09,0.01,0.12c-0.03,0.03-0.09,0.03-0.12-0.01
				c-0.04-0.04-0.04-0.09-0.01-0.12C738.3,109.18,738.36,109.18,738.39,109.22z"/>
			<path class="st3" d="M736.67,106.66c0.07,0.07,0.08,0.18,0.02,0.25s-0.18,0.06-0.25-0.01s-0.08-0.18-0.02-0.25
				C736.48,106.58,736.6,106.59,736.67,106.66z"/>
			<path class="st3" d="M674.36,84.2c0.06,0.05,0.06,0.14,0.01,0.19s-0.13,0.05-0.19-0.01c-0.06-0.05-0.06-0.14-0.01-0.19
				C674.21,84.14,674.3,84.14,674.36,84.2z"/>
			<path class="st3" d="M651.46,28.13c0.13,0.13,0.15,0.33,0.03,0.45s-0.32,0.11-0.45-0.02s-0.15-0.33-0.03-0.45
				C651.12,27.99,651.33,28,651.46,28.13z"/>
			<path class="st3" d="M683.19,65.55c0.4,0.39,0.45,1,0.1,1.36c-0.35,0.36-0.96,0.33-1.36-0.07c-0.4-0.39-0.45-1-0.1-1.36
				C682.18,65.13,682.79,65.16,683.19,65.55z"/>
			<path class="st3" d="M748.2,111.18c0.22,0.22,0.25,0.55,0.05,0.75c-0.19,0.2-0.53,0.18-0.75-0.04s-0.25-0.55-0.05-0.75
				C747.65,110.95,747.98,110.97,748.2,111.18z"/>
			<path class="st3" d="M691.21,82.11c0.4,0.39,0.45,1,0.1,1.36c-0.35,0.36-0.96,0.33-1.36-0.07c-0.4-0.39-0.45-1-0.1-1.36
				C690.19,81.68,690.8,81.71,691.21,82.11z"/>
			<path class="st3" d="M740.15,107.94c0.22,0.22,0.25,0.55,0.05,0.75c-0.19,0.2-0.53,0.18-0.75-0.04s-0.25-0.55-0.05-0.75
				C739.59,107.71,739.93,107.72,740.15,107.94z"/>
			<path class="st3" d="M661.42,49.12c0.4,0.39,0.45,1,0.1,1.36c-0.35,0.36-0.96,0.33-1.36-0.07s-0.45-1-0.1-1.36
				C660.4,48.7,661.01,48.73,661.42,49.12z"/>
			<path class="st3" d="M651.62,51.62c0.4,0.39,0.45,1,0.1,1.36c-0.35,0.36-0.96,0.33-1.36-0.07c-0.4-0.39-0.45-1-0.1-1.36
				C650.61,51.2,651.22,51.23,651.62,51.62z"/>
			<path class="st3" d="M683.27,92.52c0.12,0.12,0.13,0.3,0.03,0.4c-0.1,0.11-0.28,0.1-0.4-0.02c-0.12-0.12-0.13-0.3-0.03-0.4
				C682.97,92.39,683.15,92.4,683.27,92.52z"/>
			<path class="st3" d="M707.48,95.17c0.28,0.28,0.32,0.71,0.07,0.96s-0.68,0.23-0.96-0.05c-0.28-0.28-0.32-0.71-0.07-0.96
				C706.77,94.88,707.2,94.9,707.48,95.17z"/>
			<path class="st3" d="M701.8,89.48c0.29,0.28,0.32,0.71,0.07,0.96s-0.68,0.23-0.96-0.05c-0.29-0.28-0.32-0.71-0.07-0.96
				C701.08,89.18,701.51,89.2,701.8,89.48z"/>
			<path class="st3" d="M661.19,67.5c0.29,0.28,0.32,0.71,0.07,0.96s-0.68,0.23-0.96-0.05c-0.29-0.28-0.32-0.71-0.07-0.96
				C660.48,67.2,660.91,67.22,661.19,67.5z"/>
			<path class="st3" d="M678.71,84.51c0.12,0.12,0.13,0.3,0.03,0.4c-0.1,0.11-0.28,0.1-0.4-0.02c-0.12-0.12-0.13-0.3-0.03-0.4
				C678.41,84.38,678.59,84.39,678.71,84.51z"/>
			<path class="st3" d="M653.66,50.03c0.21,0.2,0.23,0.52,0.05,0.71s-0.5,0.17-0.71-0.03c-0.21-0.2-0.23-0.52-0.05-0.71
				C653.14,49.81,653.45,49.83,653.66,50.03z"/>
			<path class="st3" d="M633.2,20.16c0.21,0.2,0.23,0.52,0.05,0.71c-0.18,0.19-0.5,0.17-0.71-0.03s-0.23-0.52-0.05-0.71
				S632.99,19.95,633.2,20.16z"/>
			<path class="st3" d="M679.65,67.24c0.13,0.13,0.15,0.33,0.03,0.45c-0.12,0.12-0.32,0.11-0.45-0.02s-0.15-0.33-0.03-0.45
				C679.31,67.1,679.52,67.11,679.65,67.24z"/>
			<path class="st3" d="M659.55,68.7c0.13,0.13,0.15,0.33,0.03,0.45c-0.12,0.12-0.32,0.11-0.45-0.02s-0.15-0.33-0.03-0.45
				C659.21,68.56,659.41,68.57,659.55,68.7z"/>
			<path class="st3" d="M654.23,52.48c0.13,0.13,0.15,0.33,0.03,0.45s-0.32,0.11-0.45-0.02s-0.15-0.33-0.03-0.45
				C653.89,52.34,654.1,52.35,654.23,52.48z"/>
			<path class="st3" d="M665.47,74.06c0.13,0.13,0.15,0.33,0.03,0.45c-0.12,0.12-0.32,0.11-0.45-0.02s-0.15-0.33-0.03-0.45
				C665.13,73.92,665.33,73.93,665.47,74.06z"/>
			<path class="st3" d="M666.71,69.87c0.13,0.13,0.15,0.33,0.03,0.45c-0.12,0.12-0.32,0.11-0.45-0.02s-0.15-0.33-0.03-0.45
				C666.37,69.73,666.57,69.74,666.71,69.87z"/>
			<path class="st3" d="M659.91,41.13c0.13,0.13,0.15,0.33,0.03,0.45s-0.32,0.11-0.45-0.02s-0.15-0.33-0.03-0.45
				C659.57,40.99,659.77,41,659.91,41.13z"/>
			<path class="st3" d="M663.6,65.28c0.07,0.07,0.07,0.17,0.02,0.23c-0.06,0.06-0.16,0.05-0.23-0.01c-0.07-0.07-0.07-0.17-0.02-0.23
				C663.43,65.21,663.54,65.21,663.6,65.28z"/>
			<path class="st3" d="M656.57,39.73c0.07,0.07,0.07,0.17,0.02,0.23c-0.06,0.06-0.16,0.05-0.23-0.01
				c-0.07-0.07-0.07-0.17-0.02-0.23C656.4,39.66,656.5,39.66,656.57,39.73z"/>
			<path class="st3" d="M659.82,44.26c0.07,0.07,0.07,0.17,0.02,0.23c-0.06,0.06-0.16,0.05-0.23-0.01s-0.07-0.17-0.02-0.23
				C659.66,44.19,659.76,44.2,659.82,44.26z"/>
			<path class="st3" d="M652.13,51.25c0.07,0.07,0.07,0.17,0.02,0.23c-0.06,0.06-0.16,0.05-0.23-0.01s-0.07-0.17-0.02-0.23
				C651.96,51.18,652.06,51.18,652.13,51.25z"/>
			<path class="st3" d="M664.01,68.83c0.07,0.07,0.07,0.17,0.02,0.23c-0.06,0.06-0.16,0.05-0.23-0.01s-0.07-0.17-0.02-0.23
				C663.84,68.76,663.94,68.77,664.01,68.83z"/>
			<path class="st3" d="M664.75,23.6c0.32,0.31,0.36,0.8,0.08,1.09c-0.28,0.29-0.77,0.26-1.09-0.05s-0.36-0.8-0.08-1.09
				C663.94,23.26,664.43,23.29,664.75,23.6z"/>
			<path class="st3" d="M693.26,71.81c0.32,0.31,0.36,0.8,0.08,1.09c-0.28,0.29-0.77,0.26-1.09-0.05c-0.32-0.31-0.36-0.8-0.08-1.09
				C692.45,71.47,692.94,71.5,693.26,71.81z"/>
			<path class="st3" d="M684.47,90.36c0.1,0.09,0.11,0.24,0.02,0.32c-0.08,0.08-0.23,0.08-0.32-0.02c-0.1-0.09-0.11-0.24-0.02-0.32
				C684.23,90.26,684.38,90.27,684.47,90.36z"/>
			<path class="st3" d="M706.27,82.26c0.23,0.22,0.25,0.57,0.06,0.77c-0.2,0.2-0.54,0.19-0.77-0.04c-0.23-0.22-0.25-0.57-0.06-0.77
				C705.7,82.02,706.04,82.04,706.27,82.26z"/>
			<path class="st3" d="M701.72,77.7c0.23,0.22,0.25,0.57,0.06,0.77c-0.2,0.2-0.54,0.19-0.77-0.04c-0.23-0.22-0.25-0.57-0.06-0.77
				C701.15,77.46,701.5,77.48,701.72,77.7z"/>
			<path class="st3" d="M669.27,60.13c0.23,0.22,0.25,0.57,0.06,0.77c-0.2,0.2-0.54,0.19-0.77-0.04c-0.23-0.22-0.25-0.57-0.06-0.77
				C668.69,59.9,669.04,59.91,669.27,60.13z"/>
			<path class="st3" d="M680.02,91c0.04,0.04,0.05,0.11,0.01,0.15s-0.11,0.04-0.15-0.01c-0.04-0.04-0.05-0.11-0.01-0.15
				C679.91,90.96,679.97,90.96,680.02,91z"/>
			<path class="st3" d="M667.95,61.09c0.11,0.1,0.12,0.27,0.03,0.36c-0.09,0.1-0.26,0.09-0.36-0.02c-0.11-0.1-0.12-0.27-0.03-0.36
				S667.84,60.99,667.95,61.09z"/>
			<path class="st3" d="M672.68,65.38c0.11,0.1,0.12,0.27,0.03,0.36c-0.09,0.1-0.26,0.09-0.36-0.02c-0.11-0.1-0.12-0.27-0.03-0.36
				C672.41,65.27,672.57,65.27,672.68,65.38z"/>
			<path class="st3" d="M673.67,62.03c0.11,0.1,0.12,0.27,0.03,0.36c-0.09,0.1-0.26,0.09-0.36-0.02c-0.11-0.1-0.12-0.27-0.03-0.36
				S673.56,61.92,673.67,62.03z"/>
			<path class="st3" d="M671.19,58.36c0.05,0.05,0.06,0.13,0.01,0.18s-0.13,0.04-0.18-0.01s-0.06-0.13-0.01-0.18
				S671.14,58.31,671.19,58.36z"/>
			<path class="st3" d="M671.51,61.2c0.05,0.05,0.06,0.13,0.01,0.18s-0.13,0.04-0.18-0.01s-0.06-0.13-0.01-0.18
				S671.46,61.15,671.51,61.2z"/>
			<path class="st3" d="M654.44,50.31c0.07,0.07,0.07,0.17,0.02,0.23c-0.06,0.06-0.16,0.05-0.23-0.01
				c-0.07-0.07-0.07-0.17-0.02-0.23C654.27,50.24,654.37,50.24,654.44,50.31z"/>
			<path class="st3" d="M660.86,64.16c0.13,0.13,0.15,0.33,0.03,0.45c-0.12,0.12-0.32,0.11-0.45-0.02s-0.15-0.33-0.03-0.45
				C660.52,64.02,660.73,64.03,660.86,64.16z"/>
			<path class="st3" d="M654.28,44.36c0.13,0.13,0.15,0.33,0.03,0.45s-0.32,0.11-0.45-0.02s-0.15-0.33-0.03-0.45
				C653.94,44.22,654.15,44.23,654.28,44.36z"/>
			<path class="st3" d="M654.27,48.59c0.13,0.13,0.15,0.33,0.03,0.45s-0.32,0.11-0.45-0.02s-0.15-0.33-0.03-0.45
				C653.93,48.45,654.13,48.46,654.27,48.59z"/>
			<path class="st3" d="M749.76,117.63c0.22,0.22,0.25,0.55,0.05,0.75c-0.19,0.2-0.53,0.18-0.75-0.04s-0.25-0.55-0.05-0.75
				C749.2,117.4,749.54,117.41,749.76,117.63z"/>
			<path class="st3" d="M744.39,119c0.22,0.22,0.25,0.55,0.05,0.75c-0.19,0.2-0.53,0.18-0.75-0.04s-0.25-0.55-0.05-0.75
				C743.83,118.77,744.17,118.78,744.39,119z"/>
			<path class="st3" d="M745.51,118.13c0.11,0.11,0.13,0.29,0.03,0.39s-0.27,0.09-0.39-0.02c-0.11-0.11-0.13-0.29-0.03-0.39
				C745.22,118.01,745.39,118.02,745.51,118.13z"/>
			<path class="st3" d="M745.82,119.47c0.07,0.07,0.08,0.18,0.02,0.25s-0.18,0.06-0.25-0.01s-0.08-0.18-0.02-0.25
				S745.74,119.4,745.82,119.47z"/>
			<path class="st3" d="M748.88,114.96c0.04,0.04,0.04,0.09,0.01,0.12c-0.03,0.03-0.09,0.03-0.12-0.01
				c-0.04-0.04-0.04-0.09-0.01-0.12C748.79,114.92,748.85,114.93,748.88,114.96z"/>
			<path class="st3" d="M744.67,118.8c0.04,0.04,0.04,0.09,0.01,0.12c-0.03,0.03-0.09,0.03-0.12-0.01
				c-0.04-0.04-0.04-0.09-0.01-0.12C744.57,118.76,744.63,118.76,744.67,118.8z"/>
			<path class="st3" d="M745.93,118.28c0.04,0.04,0.04,0.09,0.01,0.12c-0.03,0.03-0.09,0.03-0.12-0.01
				c-0.04-0.04-0.04-0.09-0.01-0.12C745.84,118.24,745.9,118.24,745.93,118.28z"/>
			<path class="st3" d="M745.85,115.02c0.07,0.07,0.08,0.18,0.02,0.25s-0.18,0.06-0.25-0.01s-0.08-0.18-0.02-0.25
				S745.77,114.95,745.85,115.02z"/>
			<path class="st3" d="M745.84,117.34c0.07,0.07,0.08,0.18,0.02,0.25s-0.18,0.06-0.25-0.01s-0.08-0.18-0.02-0.25
				C745.65,117.26,745.77,117.27,745.84,117.34z"/>
			<path class="st3" d="M645.96,53.09c0.13,0.13,0.15,0.33,0.03,0.45s-0.32,0.11-0.45-0.02s-0.15-0.33-0.03-0.45
				C645.62,52.95,645.82,52.96,645.96,53.09z"/>
		</g>
	</g>
	<g>
		<defs>
			<rect id="SVGID_00000126285910754198028930000015791024918768679042_" x="-7.11" y="-3.9" width="1000" height="400"/>
		</defs>
		<clipPath id="SVGID_00000141423235391344428830000005317154258058006161_">
			<use xlink:href="#SVGID_00000126285910754198028930000015791024918768679042_"  style="overflow:visible;"/>
		</clipPath>
	</g>
	<g>
		<defs>
			<rect id="SVGID_00000105411136455186527190000009921268074929742233_" x="-7.11" y="-3.9" width="1000" height="400"/>
		</defs>
		<clipPath id="SVGID_00000129928345541950359140000011093539595406213561_">
			<use xlink:href="#SVGID_00000105411136455186527190000009921268074929742233_"  style="overflow:visible;"/>
		</clipPath>
		<g style="opacity:0.3;clip-path:url(#SVGID_00000129928345541950359140000011093539595406213561_);">
			
				<radialGradient id="SVGID_00000131367973304511708850000000029383626905931416_" cx="-1302.401" cy="544.3903" r="56.7917" gradientTransform="matrix(0.381 0.9651 3.1012 -1.2243 -791.5836 1667.7655)" gradientUnits="userSpaceOnUse">
				<stop  offset="0.9413" style="stop-color:#000000"/>
				<stop  offset="0.9484" style="stop-color:#000506"/>
				<stop  offset="0.9578" style="stop-color:#001217"/>
				<stop  offset="0.9685" style="stop-color:#002932"/>
				<stop  offset="0.9801" style="stop-color:#004858"/>
				<stop  offset="0.9923" style="stop-color:#006F89"/>
				<stop  offset="1" style="stop-color:#008BAB"/>
			</radialGradient>
			<path style="fill-rule:evenodd;clip-rule:evenodd;fill:url(#SVGID_00000131367973304511708850000000029383626905931416_);" d="
				M422.1-200.87c-97.27,38.4-185.81,44.99-197.76,14.72s57.21-85.94,154.49-124.34s185.81-44.99,197.76-14.72
				S519.37-239.27,422.1-200.87z"/>
		</g>
	</g>
</g>
</svg>
