<?xml version="1.0" encoding="utf-8"?>
<!-- Generator: Adobe Illustrator 26.0.3, SVG Export Plug-In . SVG Version: 6.00 Build 0)  -->
<svg version="1.1" id="Layer_1" xmlns="http://www.w3.org/2000/svg" xmlns:xlink="http://www.w3.org/1999/xlink" x="0px" y="0px"
	 viewBox="0 0 190 105" style="enable-background:new 0 0 190 105;" xml:space="preserve">
<style type="text/css">
	.st0{clip-path:url(#SVGID_00000081638950693698698390000007925974529663614599_);}
	.st1{fill:url(#SVGID_00000015339461495331856990000017216111667034775433_);}
	.st2{display:none;}
	.st3{display:inline;}
	.st4{fill:#15202F;}
	.st5{fill:#FFFFFF;}
</style>
<g>
	<g>
		<defs>
			<rect id="SVGID_1_" x="0" width="190" height="105"/>
		</defs>
		<clipPath id="SVGID_00000047028886526933825480000016408560055746440108_">
			<use xlink:href="#SVGID_1_"  style="overflow:visible;"/>
		</clipPath>
		<g style="clip-path:url(#SVGID_00000047028886526933825480000016408560055746440108_);">
			
				<linearGradient id="SVGID_00000170262635490376798430000014973469794287178910_" gradientUnits="userSpaceOnUse" x1="59.9543" y1="-13.9564" x2="127.1542" y2="111.6436">
				<stop  offset="0" style="stop-color:#025FD0"/>
				<stop  offset="1" style="stop-color:#003FB5"/>
			</linearGradient>
			
				<rect x="-2.6" y="-4.4" style="fill:url(#SVGID_00000170262635490376798430000014973469794287178910_);" width="195.2" height="111.7"/>
			<g>
				
					<image style="overflow:visible;" width="90" height="85" xlink:href="8ACA3EACDC93C606.png"  transform="matrix(1 0 0 1 -1.7196 -2.1494)">
				</image>
				
					<image style="overflow:visible;" width="145" height="109" xlink:href="8ACA3EACDC93C60A.png"  transform="matrix(1 0 0 1 6.2804 -2.1494)">
				</image>
				
					<image style="overflow:visible;" width="146" height="109" xlink:href="8ACA3EACDC93C60D.png"  transform="matrix(1 0 0 1 36.2804 -2.1494)">
				</image>
				
					<image style="overflow:visible;" width="91" height="87" xlink:href="8ACA3EACDC93C60E.png"  transform="matrix(1 0 0 1 100.2804 19.8506)">
				</image>
				
					<image style="overflow:visible;" width="60" height="55" xlink:href="8ACA3EACDC93C60C.png"  transform="matrix(1 0 0 1 -1.7196 -2.1494)">
				</image>
				
					<image style="overflow:visible;" width="60" height="58" xlink:href="8ACA3EACDC93C60B.png"  transform="matrix(1 0 0 1 131.2804 48.8506)">
				</image>
				
					<image style="overflow:visible;" width="27" height="26" xlink:href="8ACA3EACDC93C605.png"  transform="matrix(1 0 0 1 -1.7196 -2.1494)">
				</image>
				
					<image style="overflow:visible;" width="122" height="109" xlink:href="8ACA3EACDC93C607.png"  transform="matrix(1 0 0 1 -1.7196 -2.1494)">
				</image>
				
					<image style="overflow:visible;" width="124" height="109" xlink:href="8ACA3EACDC93C604.png"  transform="matrix(1 0 0 1 67.2804 -2.1494)">
				</image>
				
					<image style="overflow:visible;" width="29" height="28" xlink:href="F3B0EFBE15B9F39.png"  transform="matrix(1 0 0 1 162.2804 78.8506)">
				</image>
			</g>
		</g>
	</g>
	<g class="st2">
		<g class="st3">
			<g>
				<path class="st4" d="M72.4,53.3c0.3,0,0.5,0.1,0.7,0.3l0.6-0.5c-0.3-0.3-0.8-0.5-1.3-0.5c-0.9,0-1.7,0.7-1.7,1.6
					c0,0.9,0.8,1.6,1.7,1.6c0.5,0,1-0.2,1.3-0.5V54h-1.4v0.6H73V55c-0.2,0.1-0.3,0.2-0.5,0.2c-0.5,0-0.9-0.4-0.9-0.9
					C71.5,53.8,71.9,53.3,72.4,53.3z"/>
				<polygon class="st4" points="77.5,55.8 80,55.8 80,55.1 78.3,55.1 78.3,54.6 79.8,54.6 79.8,53.9 78.3,53.9 78.3,53.4 80,53.4 
					80,52.7 77.5,52.7 				"/>
				<path class="st4" d="M85.3,52.6c-0.9,0-1.7,0.7-1.7,1.6c0,0.9,0.8,1.6,1.7,1.6c0.9,0,1.7-0.8,1.7-1.6
					C87,53.4,86.2,52.6,85.3,52.6z M85.3,55.2c-0.5,0-0.9-0.4-0.9-0.9c0-0.5,0.4-0.9,0.9-0.9c0.5,0,0.9,0.4,0.9,0.9
					C86.2,54.8,85.7,55.2,85.3,55.2z"/>
				<polygon class="st4" points="92.4,54.3 91.5,52.7 90.7,52.7 90.7,55.8 91.5,55.8 91.5,54 92.4,55.7 93.3,54 93.3,55.8 
					94.1,55.8 94.1,52.7 93.3,52.7 				"/>
				<polygon class="st4" points="97.9,55.8 100.4,55.8 100.4,55.1 98.7,55.1 98.7,54.6 100.2,54.6 100.2,53.9 98.7,53.9 98.7,53.4 
					100.4,53.4 100.4,52.7 97.9,52.7 				"/>
				<polygon class="st4" points="103.9,53.4 104.9,53.4 104.9,55.8 105.7,55.8 105.7,53.4 106.6,53.4 106.6,52.7 103.9,52.7 				"/>
				<path class="st4" d="M112.9,53.8c0-0.6-0.5-1.1-1.2-1.1h-1.5v3.2h0.8v-1h0.4l0.7,1h0.9l-0.8-1.1
					C112.7,54.6,112.9,54.2,112.9,53.8z M111.7,54.1h-0.6v-0.7h0.6c0.3,0,0.5,0.1,0.5,0.4C112.1,54,111.9,54.1,111.7,54.1z"/>
				<polygon class="st4" points="118.6,52.7 117.8,54 117.1,52.7 116.2,52.7 117.4,54.8 117.4,55.8 118.2,55.8 118.2,54.8 
					119.4,52.7 				"/>
			</g>
			<g>
				<path class="st4" d="M91.4,60.4l-0.5-1.9h0.3l0.4,1.6l0.4-1.6h0.3l-0.5,1.9H91.4z"/>
				<path class="st4" d="M93.6,58.5v0.2h-0.8v0.6h0.7v0.2h-0.7v0.6h0.8v0.2h-1.1v-1.9H93.6z"/>
				<path class="st4" d="M94.4,60.2L94.4,60.2c0.3,0,0.4-0.2,0.4-0.4h0.3v0c0,0.4-0.2,0.6-0.6,0.6c-0.4,0-0.7-0.3-0.7-0.9v-0.1
					c0-0.6,0.2-0.9,0.7-0.9c0.4,0,0.6,0.2,0.6,0.6v0.1h-0.3c0-0.3-0.1-0.5-0.3-0.5h0c-0.3,0-0.4,0.2-0.4,0.7v0.1
					C94,59.9,94.2,60.2,94.4,60.2z"/>
				<path class="st4" d="M95.9,60.4h-0.2v-1.6h-0.5v-0.2h1.2v0.2h-0.5V60.4z"/>
				<path class="st4" d="M96.5,59.5L96.5,59.5c0-0.7,0.2-1,0.7-1c0.4,0,0.7,0.3,0.7,0.9v0.1c0,0.6-0.2,0.9-0.7,0.9
					C96.7,60.4,96.5,60.1,96.5,59.5z M97.2,60.2c0.3,0,0.4-0.2,0.4-0.7v-0.1c0-0.5-0.1-0.7-0.4-0.7h0c-0.3,0-0.4,0.2-0.4,0.7v0.1
					C96.7,59.9,96.9,60.2,97.2,60.2L97.2,60.2z"/>
				<path class="st4" d="M98.3,60.4h-0.2v-1.9h0.6c0.3,0,0.6,0.1,0.6,0.5v0c0,0.3-0.1,0.4-0.3,0.5l0.3,0.8H99l-0.3-0.7h-0.3V60.4z
					 M98.7,59.4c0.1,0,0.3-0.1,0.3-0.3v0c0-0.3-0.2-0.3-0.3-0.3h-0.3v0.7H98.7z"/>
			</g>
		</g>
		<g class="st3">
			<g>
				<path class="st5" d="M72.3,53.1c0.3,0,0.5,0.1,0.7,0.3l0.6-0.5c-0.3-0.3-0.8-0.5-1.3-0.5c-0.9,0-1.7,0.7-1.7,1.6
					c0,0.9,0.8,1.6,1.7,1.6c0.5,0,1-0.2,1.3-0.5v-1.3h-1.4v0.6h0.7v0.4c-0.2,0.1-0.3,0.2-0.5,0.2c-0.5,0-0.9-0.4-0.9-0.9
					C71.4,53.5,71.8,53.1,72.3,53.1z"/>
				<polygon class="st5" points="77.3,55.6 79.8,55.6 79.8,54.9 78.1,54.9 78.1,54.4 79.7,54.4 79.7,53.7 78.1,53.7 78.1,53.2 
					79.8,53.2 79.8,52.5 77.3,52.5 				"/>
				<path class="st5" d="M85.1,52.4c-0.9,0-1.7,0.7-1.7,1.6c0,0.9,0.8,1.6,1.7,1.6c0.9,0,1.7-0.8,1.7-1.6
					C86.8,53.2,86,52.4,85.1,52.4z M85.1,55c-0.5,0-0.9-0.4-0.9-0.9c0-0.5,0.4-0.9,0.9-0.9S86,53.5,86,54C86,54.5,85.6,55,85.1,55z"
					/>
				<polygon class="st5" points="92.2,54.1 91.3,52.5 90.5,52.5 90.5,55.6 91.3,55.6 91.3,53.8 92.2,55.4 93.1,53.8 93.1,55.6 
					93.9,55.6 93.9,52.5 93.1,52.5 				"/>
				<polygon class="st5" points="97.7,55.6 100.2,55.6 100.2,54.9 98.5,54.9 98.5,54.4 100.1,54.4 100.1,53.7 98.5,53.7 98.5,53.2 
					100.2,53.2 100.2,52.5 97.7,52.5 				"/>
				<polygon class="st5" points="103.8,53.2 104.7,53.2 104.7,55.6 105.5,55.6 105.5,53.2 106.5,53.2 106.5,52.5 103.8,52.5 				"/>
				<path class="st5" d="M112.8,53.6c0-0.6-0.5-1.1-1.2-1.1h-1.5v3.2h0.8v-1h0.4l0.7,1h0.9l-0.8-1.1C112.5,54.4,112.8,54,112.8,53.6
					z M111.5,53.9h-0.6v-0.7h0.6c0.3,0,0.5,0.1,0.5,0.4C112,53.8,111.8,53.9,111.5,53.9z"/>
				<polygon class="st5" points="118.4,52.5 117.7,53.8 116.9,52.5 116,52.5 117.3,54.5 117.3,55.6 118.1,55.6 118.1,54.5 
					119.3,52.5 				"/>
			</g>
			<g>
				<path class="st5" d="M91.3,60.2l-0.5-1.9H91l0.4,1.6l0.4-1.6h0.3l-0.5,1.9H91.3z"/>
				<path class="st5" d="M93.4,58.3v0.2h-0.8v0.6h0.7v0.2h-0.7v0.6h0.8v0.2h-1.1v-1.9H93.4z"/>
				<path class="st5" d="M94.3,60L94.3,60c0.3,0,0.4-0.2,0.4-0.4h0.3v0c0,0.4-0.2,0.6-0.6,0.6c-0.4,0-0.7-0.3-0.7-0.9v-0.1
					c0-0.6,0.2-0.9,0.7-0.9c0.4,0,0.6,0.2,0.6,0.6V59h-0.3c0-0.3-0.1-0.5-0.3-0.5h0c-0.3,0-0.4,0.2-0.4,0.7v0.1
					C93.9,59.7,94,60,94.3,60z"/>
				<path class="st5" d="M95.7,60.1h-0.2v-1.6H95v-0.2h1.2v0.2h-0.5V60.1z"/>
				<path class="st5" d="M96.3,59.3L96.3,59.3c0-0.7,0.2-1,0.7-1c0.4,0,0.7,0.3,0.7,0.9v0.1c0,0.6-0.2,0.9-0.7,0.9
					C96.6,60.2,96.3,59.9,96.3,59.3z M97,60c0.3,0,0.4-0.2,0.4-0.7v-0.1c0-0.5-0.1-0.7-0.4-0.7h0c-0.3,0-0.4,0.2-0.4,0.7v0.1
					C96.6,59.7,96.7,60,97,60L97,60z"/>
				<path class="st5" d="M98.2,60.1h-0.2v-1.9h0.6c0.3,0,0.6,0.1,0.6,0.5v0c0,0.3-0.1,0.4-0.3,0.5l0.3,0.8h-0.3l-0.3-0.7h-0.3V60.1z
					 M98.5,59.2c0.1,0,0.3-0.1,0.3-0.3v0c0-0.3-0.2-0.3-0.3-0.3h-0.3v0.7H98.5z"/>
			</g>
		</g>
	</g>
</g>
</svg>
