<?xml version="1.0" encoding="utf-8"?>
<!-- Generator: Adobe Illustrator 26.0.3, SVG Export Plug-In . SVG Version: 6.00 Build 0)  -->
<svg version="1.1" id="_xF91C_迹_x5F_1" xmlns="http://www.w3.org/2000/svg" xmlns:xlink="http://www.w3.org/1999/xlink" x="0px"
	 y="0px" viewBox="0 0 600 270" style="enable-background:new 0 0 600 270;" xml:space="preserve">
<style type="text/css">
	.st0{fill-rule:evenodd;clip-rule:evenodd;fill:#406FBB;}
	.st1{fill-rule:evenodd;clip-rule:evenodd;fill:#90FFFF;}
	.st2{fill-rule:evenodd;clip-rule:evenodd;fill:#350F3B;}
	.st3{fill-rule:evenodd;clip-rule:evenodd;fill:#B4AED9;}
	.st4{opacity:0.5;fill-rule:evenodd;clip-rule:evenodd;fill:url(#SVGID_1_);}
	.st5{fill-rule:evenodd;clip-rule:evenodd;fill:url(#SVGID_00000003081122966039513740000007475519757171396285_);}
	.st6{opacity:0.5;fill-rule:evenodd;clip-rule:evenodd;fill:url(#SVGID_00000088121596754456234580000001391215442347107001_);}
	.st7{opacity:0.7;fill-rule:evenodd;clip-rule:evenodd;fill:url(#SVGID_00000016057435061142895990000012564370208904750737_);}
	.st8{fill-rule:evenodd;clip-rule:evenodd;fill:#5C538C;}
	.st9{opacity:0.7;fill-rule:evenodd;clip-rule:evenodd;fill:url(#SVGID_00000008838469015144510190000017151726216948011448_);}
	.st10{opacity:0.7;fill-rule:evenodd;clip-rule:evenodd;fill:url(#SVGID_00000156577063796658252490000017415748971778072981_);}
	.st11{opacity:0.5;fill-rule:evenodd;clip-rule:evenodd;fill:url(#SVGID_00000154390853363842216310000006773654571416706495_);}
	.st12{opacity:0.3;fill-rule:evenodd;clip-rule:evenodd;fill:url(#SVGID_00000075135161922829410280000007027326353655104389_);}
	.st13{opacity:0.5;fill-rule:evenodd;clip-rule:evenodd;fill:url(#SVGID_00000114755871407434411380000007281118863062902414_);}
	.st14{fill-rule:evenodd;clip-rule:evenodd;fill:#8457A6;}
	.st15{fill-rule:evenodd;clip-rule:evenodd;fill:url(#SVGID_00000024687406835771662070000011389628817791455417_);}
	.st16{opacity:0.5;fill-rule:evenodd;clip-rule:evenodd;fill:url(#SVGID_00000093860438226780370370000001911602245586235554_);}
	.st17{opacity:0.5;fill-rule:evenodd;clip-rule:evenodd;fill:url(#SVGID_00000037683032414870523510000012750914080101970565_);}
	.st18{opacity:0.5;fill-rule:evenodd;clip-rule:evenodd;fill:url(#SVGID_00000000224053713669445010000001489681544750094490_);}
	.st19{opacity:0.16;fill-rule:evenodd;clip-rule:evenodd;fill:url(#SVGID_00000160171756474948491530000015449787095744914103_);}
	.st20{opacity:0.5;fill-rule:evenodd;clip-rule:evenodd;fill:url(#SVGID_00000057829075440462286420000012678125889977933465_);}
	.st21{fill-rule:evenodd;clip-rule:evenodd;fill:url(#SVGID_00000096772123647738653710000008730223201858002568_);}
	.st22{opacity:0.3;fill-rule:evenodd;clip-rule:evenodd;fill:url(#SVGID_00000062155407608753927230000015330326605193449913_);}
	.st23{opacity:0.2;fill-rule:evenodd;clip-rule:evenodd;fill:url(#SVGID_00000006685670813657679710000009253797482540839056_);}
	.st24{opacity:0.3;fill-rule:evenodd;clip-rule:evenodd;fill:url(#SVGID_00000047061253346894588630000012890556336992375475_);}
	.st25{opacity:0.2;fill-rule:evenodd;clip-rule:evenodd;fill:#9A3D4B;}
	.st26{opacity:0.7;fill-rule:evenodd;clip-rule:evenodd;fill:url(#SVGID_00000149346696892935811460000000792725510289969312_);}
	.st27{opacity:0.5;fill-rule:evenodd;clip-rule:evenodd;fill:url(#SVGID_00000165951553262022686180000010993199921869563543_);}
	.st28{opacity:0.5;fill-rule:evenodd;clip-rule:evenodd;fill:url(#SVGID_00000064333289328250582540000014195208401897293741_);}
	.st29{opacity:0.5;fill-rule:evenodd;clip-rule:evenodd;fill:url(#SVGID_00000121999025919680999580000013626263783974442675_);}
	.st30{opacity:0.5;fill-rule:evenodd;clip-rule:evenodd;fill:url(#SVGID_00000148653459977275186920000000769813499198159283_);}
	.st31{opacity:0.5;fill-rule:evenodd;clip-rule:evenodd;fill:url(#SVGID_00000015315087676570082780000005394809144875379347_);}
	.st32{opacity:0.79;fill-rule:evenodd;clip-rule:evenodd;fill:url(#SVGID_00000046313721800667237580000003381304528204835245_);}
	.st33{opacity:0.79;fill-rule:evenodd;clip-rule:evenodd;fill:url(#SVGID_00000054228144667849461820000017924956230291199146_);}
	.st34{fill-rule:evenodd;clip-rule:evenodd;fill:#893C6B;}
	.st35{opacity:0.6;fill-rule:evenodd;clip-rule:evenodd;fill:url(#SVGID_00000087403297620486064940000014930308791975228312_);}
	.st36{opacity:0.79;fill-rule:evenodd;clip-rule:evenodd;fill:url(#SVGID_00000036937055684980725460000001492600562141766562_);}
	.st37{opacity:0.7;fill-rule:evenodd;clip-rule:evenodd;fill:url(#SVGID_00000163066003618439120750000011964744817197732531_);}
	.st38{opacity:0.6;fill-rule:evenodd;clip-rule:evenodd;fill:url(#SVGID_00000132809187779459763650000004725525009189264561_);}
	.st39{opacity:0.6;fill-rule:evenodd;clip-rule:evenodd;fill:url(#SVGID_00000007402394050284880630000007177918058793684608_);}
	.st40{opacity:0.6;fill-rule:evenodd;clip-rule:evenodd;fill:url(#SVGID_00000159466121061227547990000010334123086020689336_);}
	.st41{opacity:0.6;fill-rule:evenodd;clip-rule:evenodd;fill:url(#SVGID_00000088852583510604819660000016149834358336940477_);}
	.st42{opacity:0.5;fill-rule:evenodd;clip-rule:evenodd;fill:url(#SVGID_00000011746539537140312260000000672536062065230746_);}
	.st43{opacity:0.7;fill-rule:evenodd;clip-rule:evenodd;fill:url(#SVGID_00000143605841318479126890000013645393584035741074_);}
	.st44{opacity:0.5;fill-rule:evenodd;clip-rule:evenodd;fill:url(#SVGID_00000047030464971737555260000003638263607737192354_);}
	.st45{opacity:0.5;fill-rule:evenodd;clip-rule:evenodd;fill:url(#SVGID_00000173160322870103389940000008232323180509297554_);}
	.st46{opacity:0.6;fill-rule:evenodd;clip-rule:evenodd;fill:url(#SVGID_00000031900597469995150090000007912312199971627403_);}
	.st47{fill-rule:evenodd;clip-rule:evenodd;fill:url(#SVGID_00000003090818263706468530000013087207817429840826_);}
	.st48{opacity:0.7;fill-rule:evenodd;clip-rule:evenodd;fill:url(#SVGID_00000170956711966534962770000001036404350913107901_);}
	.st49{opacity:0.7;fill-rule:evenodd;clip-rule:evenodd;fill:url(#SVGID_00000149346148535000194330000013720755595780680589_);}
	.st50{opacity:0.5;fill-rule:evenodd;clip-rule:evenodd;fill:url(#SVGID_00000121253082352717673300000008325616547212303008_);}
	.st51{opacity:0.5;fill-rule:evenodd;clip-rule:evenodd;fill:url(#SVGID_00000014614506643629427540000003109893474716392127_);}
	.st52{opacity:0.5;fill-rule:evenodd;clip-rule:evenodd;fill:url(#SVGID_00000177462499244160520200000010027041091761483399_);}
	.st53{opacity:0.5;fill-rule:evenodd;clip-rule:evenodd;fill:url(#SVGID_00000094616354962796695850000007574604097267864251_);}
	.st54{opacity:0.6;fill-rule:evenodd;clip-rule:evenodd;fill:url(#SVGID_00000058553997262632375800000005538669501053767564_);}
	.st55{opacity:0.79;fill-rule:evenodd;clip-rule:evenodd;fill:url(#SVGID_00000032613091792255224770000001322234670844895370_);}
	.st56{fill-rule:evenodd;clip-rule:evenodd;fill:url(#SVGID_00000009559641825223672310000011992315439776865436_);}
	.st57{fill:#A7B9FC;}
	.st58{opacity:0.3;}
	.st59{fill:url(#SVGID_00000176022874875840770570000012752444261917511570_);}
	.st60{fill:url(#SVGID_00000050647276383424981880000000033093201108905619_);}
	.st61{fill:url(#SVGID_00000040562907186492695570000003411093953129589151_);}
	.st62{fill:url(#SVGID_00000113349427644659970950000016671075536801023407_);}
	.st63{fill:url(#SVGID_00000111174221477544756560000001421253883616790960_);}
</style>
<g>
	<g>
		<g>
			<path class="st0" d="M469.24,57.98c0,0.26-0.21,0.47-0.47,0.47c-0.26,0-0.47-0.21-0.47-0.47c0-0.26,0.21-0.47,0.47-0.47
				C469.04,57.51,469.24,57.72,469.24,57.98z"/>
			<path class="st0" d="M431.28,128.54c0,0.26-0.21,0.47-0.47,0.47c-0.26,0-0.47-0.21-0.47-0.47c0-0.26,0.21-0.47,0.47-0.47
				C431.07,128.08,431.28,128.28,431.28,128.54z"/>
			<path class="st1" d="M428.66,122.66c0,0.26-0.21,0.47-0.47,0.47c-0.26,0-0.47-0.21-0.47-0.47s0.21-0.47,0.47-0.47
				C428.45,122.19,428.66,122.4,428.66,122.66z"/>
		</g>
		<path class="st2" d="M627.99,332.75c0,0-71.29-14.62-71.11-14.97s2.51-3.76,2.51-3.76l-46.34-0.94c0,0,8.76-2.89,8.43-2.91
			c-0.33-0.02-23.4,1.34-23.4,1.34l-33.79-5.17l11.37-3.92l-7.21,2.2L458,306.28l-7.75-0.5l-11.13-2.67l8.67-1.3l80.73-5.88
			l96.83,12.98L627.99,332.75z"/>
		<g>
			<path class="st3" d="M410.76,244.68"/>
			
				<linearGradient id="SVGID_1_" gradientUnits="userSpaceOnUse" x1="-400.9016" y1="405.4997" x2="-400.9016" y2="405.4997" gradientTransform="matrix(-1.0068 -0.0752 0.0704 1.7791 -18.6508 -496.3172)">
				<stop  offset="0" style="stop-color:#AB4741"/>
				<stop  offset="1" style="stop-color:#6F3197"/>
			</linearGradient>
			<path class="st4" d="M413.52,255.26"/>
		</g>
		<g>
			<g>
				<g>
					
						<linearGradient id="SVGID_00000175311710505450892130000007521361232054932877_" gradientUnits="userSpaceOnUse" x1="429.277" y1="348.1172" x2="488.032" y2="137.6067">
						<stop  offset="5.347590e-03" style="stop-color:#4D2361"/>
						<stop  offset="1" style="stop-color:#493D8A"/>
					</linearGradient>
					
						<polygon style="fill-rule:evenodd;clip-rule:evenodd;fill:url(#SVGID_00000175311710505450892130000007521361232054932877_);" points="
						521.01,233.22 521.01,309.06 497.82,309.06 495.67,308.85 494.89,308.78 466.24,306 465.6,303.14 439.61,303.14 438.51,299.6 
						436.18,292.1 430.61,274.12 430.59,274.05 430.6,274.05 443.37,270.81 443.47,270.78 443.48,270.77 447.12,260.17 
						447.1,260.15 431.27,247.43 431.15,247.33 431.12,247.31 430.93,245.23 426.4,227.58 424.13,216.98 422.76,210.55 
						415.44,176.33 414.6,172.41 413.1,165.41 412.95,164.68 407.45,138.96 407.34,138.47 407.21,137.84 407.17,137.69 
						411.47,138.81 418.24,131.87 419.21,130.41 419.23,130.37 433.92,108.29 433.94,108.27 434.42,107.54 436.92,106.9 
						437.29,106.81 437.46,106.76 454,108.8 454,112.27 470.53,102.47 470.86,102.27 474.49,101.92 491.95,100.26 495.45,99.92 
						501.49,129.34 501.94,131.54 505.92,150.95 506.64,154.45 506.96,155.99 508.92,165.54 511.01,175.74 511.46,177.94 
						511.71,179.17 514.24,191.46 514.75,193.98 519.5,217.12 519.83,218.73 519.94,220.11 519.94,220.11 520.21,223.37 
						520.46,226.4 520.58,227.97 					"/>
				</g>
				
					<linearGradient id="SVGID_00000131329023315086979790000006400233647430128012_" gradientUnits="userSpaceOnUse" x1="464.5075" y1="284.0374" x2="473.3499" y2="252.3562">
					<stop  offset="0" style="stop-color:#994A46"/>
					<stop  offset="1" style="stop-color:#663585"/>
				</linearGradient>
				
					<polygon style="opacity:0.5;fill-rule:evenodd;clip-rule:evenodd;fill:url(#SVGID_00000131329023315086979790000006400233647430128012_);" points="
					510.81,276.3 506.5,275.58 505.26,275.37 476.42,270.57 473.44,270.07 443.48,270.77 442.83,270.78 446.59,260.17 
					430.59,247.41 430.72,247.41 431.27,247.43 439.78,247.66 441.65,247.72 441.7,247.73 452.32,250.63 467.85,254.86 
					470.11,253.74 474.3,254.66 476.66,254.66 498.8,255.13 498.8,255.13 498.89,255.14 505.23,255.27 505.26,255.39 505.32,255.62 
					505.42,256.01 509.45,271.15 509.77,272.36 510.72,275.95 				"/>
				
					<linearGradient id="SVGID_00000034785127864925225500000005316014543548109203_" gradientUnits="userSpaceOnUse" x1="448.4145" y1="177.4948" x2="521.8727" y2="177.4948">
					<stop  offset="0" style="stop-color:#663299"/>
					<stop  offset="1" style="stop-color:#371761"/>
				</linearGradient>
				
					<polygon style="opacity:0.7;fill-rule:evenodd;clip-rule:evenodd;fill:url(#SVGID_00000034785127864925225500000005316014543548109203_);" points="
					500.93,99.21 521.87,255.78 474.3,254.66 476.87,181.68 488.47,181.68 477.2,178.21 459.69,154.73 456.79,154.73 455.93,152.28 
					448.41,116.05 468.18,105.84 471.5,107.78 485.79,155.24 489.55,157.8 481.17,101.52 				"/>
				<path class="st8" d="M441.7,247.74l-1.92-0.08l-8.63-0.34l-0.56-0.02l-7.55-29.97l-1.64-6.51l-8.5-33.75l-1.1-4.38l-1.72-6.84
					l-0.21-0.83l-6.45-25.61l3.22-1.73c0.11,0.03,0.35,0.31,0.7,0.78c2.73,3.66,11.84,18.85,12.17,19.41l0.01,0.02l2.26,13.78
					l0.44,2.65l1.61,9.81l4.16,25.33l0.98,5.95l1.08,6.57l-1.18,1.53h2.26l10.57,24.2L441.7,247.74L441.7,247.74z"/>
				<polygon class="st8" points="451.85,171.68 448.31,170.66 447.56,169.76 424.87,142.47 424.46,141.98 419.21,130.41 
					417.27,126.16 432.4,109.2 433.7,107.48 433.94,108.27 436.71,117.58 441.76,129.93 441.95,130.75 441.95,130.75 				"/>
				
					<linearGradient id="SVGID_00000106147134572139779380000014836308093985369753_" gradientUnits="userSpaceOnUse" x1="472.2853" y1="274.517" x2="478.5518" y2="252.0652">
					<stop  offset="0" style="stop-color:#663299"/>
					<stop  offset="1" style="stop-color:#371761"/>
				</linearGradient>
				
					<polygon style="opacity:0.7;fill-rule:evenodd;clip-rule:evenodd;fill:url(#SVGID_00000106147134572139779380000014836308093985369753_);" points="
					520.37,278.85 511.44,277.17 505.47,276.04 499.92,274.99 476.42,270.57 478.7,259.05 447.1,260.15 446.59,260.17 
					430.72,247.41 430.59,247.31 431.15,247.33 439.78,247.66 441.7,247.74 452.32,250.63 467.85,254.86 470.16,253.78 
					474.3,254.66 476.66,254.66 498.8,255.13 498.8,255.13 498.89,255.14 505.23,255.27 505.3,255.39 505.44,255.61 505.68,255.98 
					515.79,271.72 516.61,272.99 				"/>
				
					<linearGradient id="SVGID_00000082334032817511112000000004797481761473870242_" gradientUnits="userSpaceOnUse" x1="479.214" y1="183.234" x2="484.2948" y2="165.0303">
					<stop  offset="0" style="stop-color:#663299"/>
					<stop  offset="1" style="stop-color:#371761"/>
				</linearGradient>
				
					<polygon style="opacity:0.7;fill-rule:evenodd;clip-rule:evenodd;fill:url(#SVGID_00000082334032817511112000000004797481761473870242_);" points="
					459.68,154.72 507.8,170.66 506.52,183.93 488.47,181.68 477.2,178.21 				"/>
				
					<linearGradient id="SVGID_00000162317919725911773730000005703580023149827484_" gradientUnits="userSpaceOnUse" x1="406.6371" y1="180.8116" x2="473.6517" y2="180.8116">
					<stop  offset="0" style="stop-color:#994A46"/>
					<stop  offset="1" style="stop-color:#663585"/>
				</linearGradient>
				
					<polygon style="opacity:0.5;fill-rule:evenodd;clip-rule:evenodd;fill:url(#SVGID_00000162317919725911773730000005703580023149827484_);" points="
					473.65,222.51 470.11,253.74 467.85,254.86 465.17,223.53 460.71,206.3 460.09,203.89 452.71,175.35 446.59,170.55 
					427.77,170.85 428.05,173.74 428.23,175.57 431.59,209.47 432.18,215.42 432.84,222.1 446.05,248.53 441.7,247.73 
					441.65,247.72 431.06,223.53 430.05,221.21 429.08,215.42 428.08,209.47 423.84,184.14 422.19,174.34 421.75,171.68 
					421.35,169.33 420.49,164.33 413.1,165.41 410.07,165.86 409.83,165.04 409.87,165.03 412.95,164.68 420.49,163.82 
					419.53,157.9 419.51,157.88 407.45,138.96 406.64,137.69 407.21,137.84 410.93,138.81 424.25,159.74 427.45,169.33 
					446.59,169.33 447.56,169.76 451.85,171.68 441.95,130.75 441.95,130.75 436.71,117.58 436.92,106.9 436.92,106.76 
					437.29,106.81 453.46,108.8 453.46,112.27 448.42,116.04 448.42,116.04 459.69,154.73 459.69,154.73 459.69,154.74 
					455.4,174.02 465.81,202.31 466.07,203.02 472.79,221.28 				"/>
				<polygon class="st8" points="448.31,174.02 452.71,175.35 465.6,223.12 467.85,254.86 452.82,253.23 446.59,220.87 
					451.1,218.73 				"/>
				
					<linearGradient id="SVGID_00000047044074483247280470000002941822263600663428_" gradientUnits="userSpaceOnUse" x1="448.1527" y1="205.817" x2="516.6978" y2="340.3396">
					<stop  offset="0" style="stop-color:#994A46"/>
					<stop  offset="1" style="stop-color:#663585"/>
				</linearGradient>
				
					<polygon style="opacity:0.3;fill-rule:evenodd;clip-rule:evenodd;fill:url(#SVGID_00000047044074483247280470000002941822263600663428_);" points="
					519.05,309.06 497.82,309.06 495.67,308.85 494.89,308.78 466.24,306 465.6,303.14 465.3,303.14 461.62,277.21 518.11,278.44 
									"/>
				
					<linearGradient id="SVGID_00000082332269761088973480000012307473629309733816_" gradientUnits="userSpaceOnUse" x1="443.4375" y1="241.98" x2="478.9833" y2="311.7401">
					<stop  offset="0" style="stop-color:#994A46"/>
					<stop  offset="1" style="stop-color:#663585"/>
				</linearGradient>
				
					<polygon style="opacity:0.5;fill-rule:evenodd;clip-rule:evenodd;fill:url(#SVGID_00000082332269761088973480000012307473629309733816_);" points="
					470.43,272.11 464.09,275.07 462.49,276.47 461.62,277.21 465.3,303.11 462.95,303.11 462.38,290.48 460.66,277.21 
					458.14,275.07 				"/>
				<polygon class="st14" points="458.19,275.07 460.66,277.21 449.38,276.4 431.85,274.27 430.61,274.12 430.08,274.05 
					430.05,274.05 430.08,274.04 430.28,273.99 442.83,270.78 443.37,270.81 470.43,272.11 				"/>
				<polygon class="st14" points="461.62,277.21 511.46,278.43 511.43,276.01 469.91,272.34 464.31,275.07 				"/>
				
					<linearGradient id="SVGID_00000077281888790054489970000006448606415071784891_" gradientUnits="userSpaceOnUse" x1="412.842" y1="266.8182" x2="477.2331" y2="315.4925">
					<stop  offset="0" style="stop-color:#99467F"/>
					<stop  offset="1" style="stop-color:#663585"/>
				</linearGradient>
				
					<polygon style="fill-rule:evenodd;clip-rule:evenodd;fill:url(#SVGID_00000077281888790054489970000006448606415071784891_);" points="
					452.82,303.45 450.67,305.28 450.33,305.22 450.23,305.2 439.07,303.14 438.01,299.7 434.42,288.08 430.08,274.05 
					430.08,274.04 430.05,273.95 430.28,273.99 430.6,274.05 431.85,274.27 448.42,277.21 452.77,303.14 				"/>
				
					<linearGradient id="SVGID_00000039115683993722309400000012334701206838135209_" gradientUnits="userSpaceOnUse" x1="434.2627" y1="279.8609" x2="468.8864" y2="306.0335">
					<stop  offset="0" style="stop-color:#994A46"/>
					<stop  offset="1" style="stop-color:#663585"/>
				</linearGradient>
				
					<polygon style="opacity:0.5;fill-rule:evenodd;clip-rule:evenodd;fill:url(#SVGID_00000039115683993722309400000012334701206838135209_);" points="
					450.24,305.28 448.41,277.21 452.82,303.45 				"/>
				
					<linearGradient id="SVGID_00000073707601102007068010000014795629544949620627_" gradientUnits="userSpaceOnUse" x1="421.3992" y1="207.3493" x2="499.5343" y2="207.3493">
					<stop  offset="0" style="stop-color:#467799"/>
					<stop  offset="1" style="stop-color:#663585"/>
				</linearGradient>
				
					<polygon style="opacity:0.5;fill-rule:evenodd;clip-rule:evenodd;fill:url(#SVGID_00000073707601102007068010000014795629544949620627_);" points="
					499.53,197.19 499.53,201.68 498.32,201.61 498.14,201.61 476.35,200.35 476.21,200.39 466.24,202.91 466.07,203.02 
					461.06,206.31 460.71,206.3 450.45,206.07 451.09,214.4 450.83,214.41 432.18,215.42 429.08,215.42 428.86,215.42 
					424.13,216.98 423.04,217.34 422.53,217.51 421.4,210.83 422.76,210.55 427.99,209.47 431.59,209.47 450.64,211.31 
					450.71,211.32 450.17,203.89 460.41,203.89 465.81,202.31 476.32,197.26 476.46,197.19 				"/>
				
					<linearGradient id="SVGID_00000025427398364745246690000008868476130888694677_" gradientUnits="userSpaceOnUse" x1="425.7131" y1="183.1897" x2="428.8048" y2="172.1129">
					<stop  offset="0" style="stop-color:#467799"/>
					<stop  offset="1" style="stop-color:#663585"/>
				</linearGradient>
				
					<polygon style="opacity:0.5;fill-rule:evenodd;clip-rule:evenodd;fill:url(#SVGID_00000025427398364745246690000008868476130888694677_);" points="
					444.98,174.54 441.65,175.15 428.39,175.6 428.23,175.57 422.22,174.33 422.21,174.33 422.19,174.34 415.44,176.33 
					412.9,177.08 412.87,177.09 411.79,172.7 411.8,172.7 414.6,172.41 421.75,171.68 421.78,171.68 421.79,171.68 428.05,173.74 
					428.21,173.79 				"/>
				<polygon class="st14" points="446.59,220.87 462.48,220.87 451.1,218.73 				"/>
				
					<linearGradient id="SVGID_00000023974172160854539250000013297336655044917663_" gradientUnits="userSpaceOnUse" x1="417.2703" y1="124.9715" x2="441.7557" y2="124.9715">
					<stop  offset="0" style="stop-color:#994A46"/>
					<stop  offset="1" style="stop-color:#663585"/>
				</linearGradient>
				
					<polygon style="opacity:0.16;fill-rule:evenodd;clip-rule:evenodd;fill:url(#SVGID_00000023974172160854539250000013297336655044917663_);" points="
					441.76,130.75 424.87,142.47 419.23,130.37 417.27,126.16 433.7,107.48 433.92,108.29 436.92,119.32 				"/>
				
					<linearGradient id="SVGID_00000129886081348738530390000006034681251618157215_" gradientUnits="userSpaceOnUse" x1="475.4499" y1="231.9342" x2="524.559" y2="328.313">
					<stop  offset="0" style="stop-color:#994A46"/>
					<stop  offset="1" style="stop-color:#663585"/>
				</linearGradient>
				
					<polygon style="opacity:0.5;fill-rule:evenodd;clip-rule:evenodd;fill:url(#SVGID_00000129886081348738530390000006034681251618157215_);" points="
					520.05,309.06 497.82,309.06 495.67,308.85 495.02,278.03 518.11,278.44 				"/>
			</g>
			<g>
				
					<linearGradient id="SVGID_00000088131871890344960590000017112346781723899531_" gradientUnits="userSpaceOnUse" x1="482.8535" y1="376.5328" x2="573.2032" y2="52.8229">
					<stop  offset="5.347590e-03" style="stop-color:#35003E"/>
					<stop  offset="1" style="stop-color:#402253"/>
				</linearGradient>
				
					<polygon style="fill-rule:evenodd;clip-rule:evenodd;fill:url(#SVGID_00000088131871890344960590000017112346781723899531_);" points="
					606.6,321.6 602.11,321.16 577.92,318.81 558.05,316.89 558.05,316.88 557.06,312.49 517.1,312.49 516,309.06 506.19,278.3 
					506.17,278.23 506.15,278.18 505.47,276.04 505.29,275.47 505.26,275.37 504.13,271.84 503.75,270.65 499.32,256.75 
					499.31,256.74 498.83,255.24 498.8,255.13 498.8,255.13 497.77,251.91 487.7,236.53 503.88,223.97 503.75,223.45 498.14,201.61 
					497.01,197.19 496.78,196.3 496.62,194.99 495.63,187.1 495.13,183.05 495.06,182.5 493.9,173.16 492.97,165.75 492.28,160.26 
					490.65,154.9 487.65,145.08 474.49,101.92 462.81,63.6 462.27,61.84 462.43,61.72 463.64,60.82 463.84,60.67 463.85,60.66 
					468.38,57.29 487.54,49.94 487.61,49.91 501.42,44.61 503.09,43.97 504.25,43.53 521.35,36.97 526.01,35.78 543.68,37.43 
					543.73,37.34 544.72,35.79 544.72,35.78 544.73,35.77 561.38,9.55 561.38,9.55 561.76,8.95 561.79,9.27 563.2,8.29 566.24,6.21 
					570.09,3.57 570.11,3.57 584.46,2.01 592.57,1.13 602.97,0 603.55,50.24 603.57,51.89 603.58,52.29 604.19,105.84 
					604.25,110.55 604.25,110.55 604.3,115.62 604.39,122.93 604.41,125.02 604.85,162.54 604.92,169.12 604.97,173.47 
					604.98,174.53 605.01,177.05 605.01,177.27 605.02,177.3 605.15,189.72 605.15,189.76 605.16,190.1 605.18,192.1 605.18,192.11 
					605.27,200.29 605.27,200.4 605.28,200.98 605.28,200.99 605.34,206.66 605.34,206.84 605.57,228.08 605.63,232.98 
					605.89,256.92 605.97,263.61 606.01,267.52 606.03,269.64 606.07,273.32 606.12,277.2 606.22,287.14 606.27,290.83 
					606.6,321.38 606.6,321.38 				"/>
				
					<linearGradient id="SVGID_00000025434817205013789020000008959268573234221497_" gradientUnits="userSpaceOnUse" x1="557.8365" y1="114.8457" x2="592.6659" y2="114.8457">
					<stop  offset="0" style="stop-color:#663299"/>
					<stop  offset="1" style="stop-color:#371761"/>
				</linearGradient>
				
					<polygon style="opacity:0.3;fill-rule:evenodd;clip-rule:evenodd;fill:url(#SVGID_00000025434817205013789020000008959268573234221497_);" points="
					585.96,122.11 589.48,150.3 577.8,148.69 572.28,94.59 568.74,85.58 568.6,87.19 571.57,117.6 570.58,117.6 566.47,89.75 
					563.36,83.7 557.84,80.2 591.25,79.39 592.67,106.3 584.81,117.56 584.82,117.6 585.14,118.86 				"/>
				
					<linearGradient id="SVGID_00000080184747982655966300000010110751009132621232_" gradientUnits="userSpaceOnUse" x1="534.8965" y1="255.4584" x2="534.3377" y2="252.352">
					<stop  offset="0" style="stop-color:#663299"/>
					<stop  offset="1" style="stop-color:#371761"/>
				</linearGradient>
				
					<polygon style="opacity:0.2;fill-rule:evenodd;clip-rule:evenodd;fill:url(#SVGID_00000080184747982655966300000010110751009132621232_);" points="
					514.31,255.07 554.55,250.69 550.79,252.85 				"/>
				
					<linearGradient id="SVGID_00000182528455701679233890000006916027195808623492_" gradientUnits="userSpaceOnUse" x1="566.5209" y1="322.2449" x2="550.1211" y2="231.0811">
					<stop  offset="0" style="stop-color:#663299"/>
					<stop  offset="1" style="stop-color:#371761"/>
				</linearGradient>
				
					<path style="opacity:0.3;fill-rule:evenodd;clip-rule:evenodd;fill:url(#SVGID_00000182528455701679233890000006916027195808623492_);" d="
					M610.9,321.59l-4.3-0.21l-4.49-0.22l-44.06-4.27l-6.94-61.84c-27.91-3.92-51.8,1.7-51.8,1.7l0-0.01l-1.54-4.83l-10.07-15.38
					l16.18-12.56l-0.13-0.52l0.13-0.11l26.63-5.36l0.28-5.38l12.06-4.95h14.04l0.33-3.61l10.07-1.88l37.98-1.17l2.82-0.09
					L610.9,321.59z"/>
				<polygon class="st25" points="522.38,215.97 519.5,217.12 516.84,218.18 503.9,223.34 503.88,223.34 503.88,223.34 
					498.32,201.61 497.18,197.19 496.62,194.99 494.72,187.55 493.37,182.29 491.37,174.49 491.37,174.44 491.95,165.41 
					492.28,160.26 481.46,157.28 481.43,157.27 471.75,108.61 470.53,102.47 462.81,63.6 462.43,61.72 462.27,60.9 462.8,60.82 
					463.84,60.67 464.07,60.64 474.16,59.17 474.44,59.5 474.78,59.9 512.31,104.37 509.95,126.94 504.84,128.39 501.49,129.34 
					488.32,133.08 501.94,131.54 505.21,131.17 509.76,130.66 511.55,149.5 511.82,152.36 512.03,154.52 512.88,163.53 
					513.91,174.4 514.25,177.92 515.49,190.98 514.24,191.46 513.32,191.82 499.65,197.13 513.64,194.21 514.75,193.98 
					516.02,193.72 				"/>
				
					<linearGradient id="SVGID_00000157274870608615876460000006486193800741695389_" gradientUnits="userSpaceOnUse" x1="584.8067" y1="109.477" x2="605.1189" y2="109.477">
					<stop  offset="0" style="stop-color:#663299"/>
					<stop  offset="1" style="stop-color:#371761"/>
				</linearGradient>
				
					<path style="opacity:0.7;fill-rule:evenodd;clip-rule:evenodd;fill:url(#SVGID_00000157274870608615876460000006486193800741695389_);" d="
					M605.12,162.45l-0.27,0.09l-13.27,4.61l-1.9-15.27l-0.05-0.42l-0.14-1.16l-2.65-21.3l-0.33-2.65l-0.53-4.25l-0.83-3.25
					l-0.32-1.26l-0.01-0.04l7.15-10.19l0.06-0.08l0.04-0.06l0.67-0.96l-1.32-23.91c0-0.04-0.01-0.08-0.01-0.12l-0.66-11.9
					l7.15-10.28l3.1-4.47l0.13-0.19l2.43-3.49l0.06-0.09l0,0.41l0.59,53.63l0.04,3.97l0.01,0.75v0l0.06,5.06l0.03,3.26l0.07,4.05
					l0.04,2.08L605.12,162.45z"/>
				<polygon class="st25" points="501.41,44.57 525.02,99.35 541.54,99.35 526.01,35.79 				"/>
				<polygon class="st25" points="564.82,202.15 557.23,204.04 556.9,207.65 534.44,177.36 523.54,145.65 525.85,104.06 
					528.53,103.61 529.94,133.35 531.08,133.35 531.08,103.61 534.43,102.64 534.44,102.64 537.59,102.26 539.43,109.53 
					539.43,101.81 541.95,101.39 547.98,126.19 549.3,145.65 557.23,154.44 556.24,167.15 				"/>
				<polygon class="st25" points="566.24,6.18 566.24,6.21 564.34,32.14 560.83,80.08 560.83,80.12 560.82,80.24 557.89,80.23 
					549.31,80.2 549.3,80.2 544.72,35.79 544.72,35.78 544.73,35.77 561.9,10.23 563.2,8.29 				"/>
				
					<linearGradient id="SVGID_00000164498525521622581620000003880341109328639411_" gradientUnits="userSpaceOnUse" x1="562.1448" y1="162.5014" x2="488.9315" y2="112.6541">
					<stop  offset="0" style="stop-color:#2D6D99"/>
					<stop  offset="1" style="stop-color:#5E2085"/>
				</linearGradient>
				
					<path style="opacity:0.5;fill-rule:evenodd;clip-rule:evenodd;fill:url(#SVGID_00000164498525521622581620000003880341109328639411_);" d="
					M555.61,139.39c0,0,0.3,2.34-2.51,3.75c-2.81,1.41-61.9,31.39-61.9,31.39l1.09-14.27l62.14-25.12l-0.04-7.14
					c0,0,19.96-6.36,30.44-10.4l0.32,1.26c-10.09,5.26-29.53,17.89-29.53,17.89V139.39z"/>
				
					<linearGradient id="SVGID_00000057833973964927015050000002263615696050969255_" gradientUnits="userSpaceOnUse" x1="457.965" y1="90.199" x2="571.8837" y2="225.7601">
					<stop  offset="0" style="stop-color:#2D6D99"/>
					<stop  offset="1" style="stop-color:#5E2085"/>
				</linearGradient>
				
					<path style="opacity:0.5;fill-rule:evenodd;clip-rule:evenodd;fill:url(#SVGID_00000057833973964927015050000002263615696050969255_);" d="
					M530.75,166.64l26.32-12.13c0.03,0.33,0.06,0.65,0.08,0.95v0c0.09,1.32,0.08,2.28-0.18,2.29c-0.02,0-0.05-0.01-0.07-0.02
					c-0.43-0.22-12.09,5.31-25.19,11.67c-5.82,2.82-11.92,5.8-17.46,8.52c-0.86,0.42-1.71,0.84-2.53,1.25
					c-0.03,0.01-0.06,0.03-0.08,0.04c-1.71,0.84-3.35,1.65-4.89,2.41c-1.35,0.66-2.61,1.29-3.79,1.86
					c-3.42,1.69-6.02,2.97-7.32,3.62c-0.6,0.29-0.92,0.45-0.92,0.45l-0.99-3.85l1.4-0.65l0.93-0.43l11.07-5.1l3.87-1.78l0.15-0.07
					l2.76-1.27L530.75,166.64z"/>
				
					<linearGradient id="SVGID_00000032615063459475077850000017403689795532156838_" gradientUnits="userSpaceOnUse" x1="540.6872" y1="132.2832" x2="567.9284" y2="164.6998">
					<stop  offset="0" style="stop-color:#2D6D99"/>
					<stop  offset="1" style="stop-color:#5E2085"/>
				</linearGradient>
				
					<path style="opacity:0.5;fill-rule:evenodd;clip-rule:evenodd;fill:url(#SVGID_00000032615063459475077850000017403689795532156838_);" d="
					M556.59,148.47c0.28,2.6,0.64,5.97,0.64,5.97l-0.16,0.07c-0.01-0.09-0.02-0.18-0.02-0.27v-0.01
					C556.85,152.12,556.55,149.61,556.59,148.47z"/>
				
					<linearGradient id="SVGID_00000103964079252284078420000001299981257077849244_" gradientUnits="userSpaceOnUse" x1="530.4962" y1="75.9544" x2="614.6693" y2="176.1188">
					<stop  offset="0" style="stop-color:#2D6D99"/>
					<stop  offset="1" style="stop-color:#5E2085"/>
				</linearGradient>
				
					<path style="opacity:0.5;fill-rule:evenodd;clip-rule:evenodd;fill:url(#SVGID_00000103964079252284078420000001299981257077849244_);" d="
					M604.79,122.89v2.04l-0.32,0.07l-0.06,0.01l-17.59,3.99l-0.04,0.01l0.66,5.65c0,0-4.8,2.06-10.61,4.55
					c-8.56,3.67-19.3,8.28-20.07,8.62c-0.01,0.01-0.03,0.01-0.03,0.02c-0.09,0.04-0.13,0.27-0.15,0.62
					c-0.07-0.64-0.13-1.23-0.18-1.72v0l-0.07-0.65c-0.01-0.06-0.01-0.11-0.02-0.16l-0.03-0.28c-0.07-0.67,11.32-5.45,20.28-9.1
					c5.79-2.36,10.56-4.24,10.56-4.24l-0.63-5.96l-0.2-1.89l18.1-1.54l0.04,0L604.79,122.89z"/>
				
					<linearGradient id="SVGID_00000168810319398221137830000013077987839981076125_" gradientUnits="userSpaceOnUse" x1="388.9729" y1="58.2046" x2="583.0421" y2="289.1432">
					<stop  offset="0" style="stop-color:#2D6D99"/>
					<stop  offset="1" style="stop-color:#5E2085"/>
				</linearGradient>
				
					<path style="opacity:0.5;fill-rule:evenodd;clip-rule:evenodd;fill:url(#SVGID_00000168810319398221137830000013077987839981076125_);" d="
					M606.61,263.7l-47.5-6.92l-0.23-0.03l-1.65-5.78l-7.43-0.31l-50.48,6.09l0-0.01l-1.54-5.77c0,0,44.41-5.41,55.62-6.55
					c1.02-0.11,1.77-0.17,2.18-0.2c4.95-0.31,49.38,3.77,49.38,3.77L606.61,263.7z"/>
				
					<linearGradient id="SVGID_00000005961053030698828580000014160649432322164374_" gradientUnits="userSpaceOnUse" x1="527.6531" y1="226.5449" x2="570.3312" y2="73.6355">
					<stop  offset="0" style="stop-color:#663299"/>
					<stop  offset="1" style="stop-color:#371761"/>
				</linearGradient>
				
					<polygon style="opacity:0.79;fill-rule:evenodd;clip-rule:evenodd;fill:url(#SVGID_00000005961053030698828580000014160649432322164374_);" points="
					589.69,200.9 578.51,201.52 567.3,202.15 564.82,202.15 561.19,187.24 561.05,186.79 561.05,186.77 560.86,186.15 
					556.47,168.11 556.24,167.15 556.97,157.76 557.15,155.47 557.15,155.46 557.23,154.44 557.05,154.24 550.46,146.75 
					550.2,144.61 549.49,138.76 549.31,137.2 549.3,137.16 547.98,126.19 541.95,101.39 541.46,99.35 526.03,35.84 526.03,35.84 
					526.01,35.78 543.68,37.43 543.73,37.34 544.68,38.3 554.37,128 554.37,128.01 555.61,139.39 555.61,139.4 555.61,139.43 
					556.28,145.65 556.31,145.93 556.33,146.1 556.4,146.75 556.4,146.75 556.76,147.83 558.88,154.13 563.01,156.48 570.58,170.09 
					570.6,170.14 570.65,170.76 570.65,170.76 570.65,170.79 572.7,200.9 				"/>
				
					<linearGradient id="SVGID_00000134235704907370896270000016701420455008469435_" gradientUnits="userSpaceOnUse" x1="530.693" y1="333.0744" x2="559.9401" y2="228.2861">
					<stop  offset="0" style="stop-color:#663299"/>
					<stop  offset="1" style="stop-color:#371761"/>
				</linearGradient>
				
					<polygon style="opacity:0.79;fill-rule:evenodd;clip-rule:evenodd;fill:url(#SVGID_00000134235704907370896270000016701420455008469435_);" points="
					559.37,248.14 559.11,256.78 558.88,264.15 558.05,316.89 551.12,255.05 554.42,247.98 553.4,244.42 542.86,207.65 
					556.9,207.65 555.58,244.22 				"/>
				<polygon class="st34" points="530.53,212.61 544.18,211.57 549.16,207.65 542.86,207.65 				"/>
				<polygon class="st34" points="554.42,247.98 551.12,255.05 514.31,255.07 				"/>
				
					<linearGradient id="SVGID_00000079476325461206805420000008538111166691030201_" gradientUnits="userSpaceOnUse" x1="562.6248" y1="122.4319" x2="591.2238" y2="19.9659">
					<stop  offset="0" style="stop-color:#663299"/>
					<stop  offset="1" style="stop-color:#371761"/>
				</linearGradient>
				
					<path style="opacity:0.6;fill-rule:evenodd;clip-rule:evenodd;fill:url(#SVGID_00000079476325461206805420000008538111166691030201_);" d="
					M604.03,49.81l-0.07,1.99c0,0-0.12,0.15-0.33,0.41c-0.02,0.02-0.04,0.05-0.06,0.08c-0.47,0.6-1.34,1.7-2.41,3.08l0,0.01
					c-0.05,0.07-0.1,0.13-0.16,0.2c-3.85,4.97-10.11,13.24-10.25,14.69v0c0,0.02,0,0.03,0,0.05c0,0.58,0.2,4.26,0.49,9.07
					c0.03,0.49,0.06,1,0.09,1.52c0,0.05,0.01,0.1,0.01,0.15c0.02,0.38,0.05,0.77,0.07,1.16c0,0.04,0.01,0.08,0.01,0.12
					c0.13,2.19,0.27,4.5,0.41,6.81c0.48,7.83,0.95,15.47,1.05,17.1c0.01,0.21,0.02,0.32,0.02,0.32l-0.78,0.74l-0.05,0.05
					c0,0,0-0.02-0.01-0.06c0-0.02,0-0.05-0.01-0.08c0-0.01,0-0.03,0-0.04c-0.17-2.26-1.91-25.17-2.63-25.72
					c-0.47-0.35-15.73,0.68-27.22,1.51c-4.72,0.34-8.81,0.65-10.96,0.82c-1.03,0.08-1.62,0.12-1.62,0.12l-0.32-3.7l-0.18-2.04
					c0,0,2.36,2.06,3.47,2.04c1.8-0.03,4.75-0.07,8.23-0.12c1.64-0.02,3.39-0.05,5.19-0.08c0.03,0,0.07,0,0.1,0
					c4.82-0.09,9.99-0.2,14.25-0.34c0.01,0,0.02,0,0.03,0c5.2-0.18,9.03-0.41,9.18-0.7c0.48-0.91-4.79-72.23-5.13-76.94
					c-0.01-0.16-0.02-0.24-0.02-0.24l8.13-0.78c0,0,0,0.05-0.01,0.14c-0.23,3.14-4.31,58.63-0.78,58.78
					c0.88,0.04,9.61-7.74,11.76-9.67C603.86,49.97,604.03,49.81,604.03,49.81z"/>
				
					<linearGradient id="SVGID_00000021813814801977955900000008033084522980825250_" gradientUnits="userSpaceOnUse" x1="661.6916" y1="204.6663" x2="630.8123" y2="185.2318">
					<stop  offset="0" style="stop-color:#663299"/>
					<stop  offset="1" style="stop-color:#371761"/>
				</linearGradient>
				
					<polygon style="opacity:0.79;fill-rule:evenodd;clip-rule:evenodd;fill:url(#SVGID_00000021813814801977955900000008033084522980825250_);" points="
					605.45,169.19 604.92,169.12 591.58,167.15 604.85,162.54 605.12,162.45 				"/>
				
					<linearGradient id="SVGID_00000078740144668417008200000014641506937827062678_" gradientUnits="userSpaceOnUse" x1="576.4147" y1="249.9342" x2="575.1205" y2="242.7402">
					<stop  offset="0" style="stop-color:#663299"/>
					<stop  offset="1" style="stop-color:#371761"/>
				</linearGradient>
				
					<polygon style="opacity:0.7;fill-rule:evenodd;clip-rule:evenodd;fill:url(#SVGID_00000078740144668417008200000014641506937827062678_);" points="
					559.37,248.14 595.71,247.04 555.58,244.22 				"/>
				
					<linearGradient id="SVGID_00000159451170825657725770000013766523255455468940_" gradientUnits="userSpaceOnUse" x1="571.8563" y1="161.6746" x2="575.1996" y2="149.696">
					<stop  offset="0" style="stop-color:#663299"/>
					<stop  offset="1" style="stop-color:#371761"/>
				</linearGradient>
				
					<polygon style="opacity:0.6;fill-rule:evenodd;clip-rule:evenodd;fill:url(#SVGID_00000159451170825657725770000013766523255455468940_);" points="
					577.37,151.46 558.88,154.13 563.01,156.48 579.52,152.87 589.67,151.88 589.62,151.46 				"/>
				
					<linearGradient id="SVGID_00000000203369747133547000000003783758143216059309_" gradientUnits="userSpaceOnUse" x1="583.5298" y1="294.3406" x2="582.0924" y2="286.35">
					<stop  offset="0" style="stop-color:#663299"/>
					<stop  offset="1" style="stop-color:#371761"/>
				</linearGradient>
				
					<polygon style="opacity:0.6;fill-rule:evenodd;clip-rule:evenodd;fill:url(#SVGID_00000000203369747133547000000003783758143216059309_);" points="
					606.61,287.11 564.82,290.52 559.86,289.73 558.55,288.32 558.47,290.52 564.82,291.46 605.78,290.83 606.61,290.83 				"/>
				<polygon class="st34" points="557.23,204.04 605.78,206.86 605.78,200.27 564.82,202.15 				"/>
				<polygon class="st25" points="604.62,110.65 604.62,110.66 604.6,115.59 604.33,115.62 604.3,115.62 584.81,117.56 
					592.07,107.35 603.74,110.42 604.25,110.55 604.27,110.56 				"/>
				
					<linearGradient id="SVGID_00000150099151964068578390000007461810118090654910_" gradientUnits="userSpaceOnUse" x1="592.0162" y1="108.3754" x2="605.7797" y2="108.3754">
					<stop  offset="0" style="stop-color:#663299"/>
					<stop  offset="1" style="stop-color:#371761"/>
				</linearGradient>
				
					<polygon style="opacity:0.6;fill-rule:evenodd;clip-rule:evenodd;fill:url(#SVGID_00000150099151964068578390000007461810118090654910_);" points="
					605.78,105.79 605.78,110.96 604.62,110.66 604.27,110.56 604.25,110.55 603.74,110.42 592.12,107.31 592.07,107.29 
					592.02,107.28 592.06,107.22 592.73,106.26 592.88,106.25 604.19,105.84 604.22,105.84 				"/>
				
					<linearGradient id="SVGID_00000054250109247024630520000011535253532173106063_" gradientUnits="userSpaceOnUse" x1="563.4197" y1="202.1543" x2="563.4197" y2="154.4409">
					<stop  offset="0" style="stop-color:#663299"/>
					<stop  offset="1" style="stop-color:#371761"/>
				</linearGradient>
				
					<polygon style="opacity:0.6;fill-rule:evenodd;clip-rule:evenodd;fill:url(#SVGID_00000054250109247024630520000011535253532173106063_);" points="
					557.23,154.44 563.01,156.48 570.6,170.14 567.3,202.15 564.82,202.15 556.24,167.15 				"/>
				
					<linearGradient id="SVGID_00000129920952571482747480000004936155140437474946_" gradientUnits="userSpaceOnUse" x1="442.0834" y1="170.529" x2="545.8397" y2="293.997">
					<stop  offset="0" style="stop-color:#2D6D99"/>
					<stop  offset="1" style="stop-color:#5E2085"/>
				</linearGradient>
				
					<polygon style="opacity:0.5;fill-rule:evenodd;clip-rule:evenodd;fill:url(#SVGID_00000129920952571482747480000004936155140437474946_);" points="
					503.75,270.65 553.36,275.05 554.35,283.83 518.34,274.23 518.34,273.15 503.75,271.81 				"/>
				
					<linearGradient id="SVGID_00000132085545035483830080000017379867884788244402_" gradientUnits="userSpaceOnUse" x1="559.3737" y1="263.5515" x2="611.7795" y2="263.5515">
					<stop  offset="0" style="stop-color:#663299"/>
					<stop  offset="1" style="stop-color:#371761"/>
				</linearGradient>
				
					<path style="opacity:0.7;fill-rule:evenodd;clip-rule:evenodd;fill:url(#SVGID_00000132085545035483830080000017379867884788244402_);" d="
					M559.37,204.16l7.23,40.59c0,0,6.15,2.55,6.83,2.96c0.68,0.41,0.11,39.7-0.03,40.51c-0.14,0.81-9.04,2.22-9.04,2.22l-4.56-0.74
					l0.47,1.08c0,0,4.84,0.68,5.23,0.67c0.39-0.01,7.89,0.67,8.32,1.07c0.42,0.4,4.05,26.26,4.05,26.26l33.89,4.15l-3.54-116.12
					L559.37,204.16z"/>
				<polygon class="st34" points="503.75,223.37 530.51,223.37 530.51,217.98 				"/>
				
					<linearGradient id="SVGID_00000040558227683869161010000007962534489542290867_" gradientUnits="userSpaceOnUse" x1="538.5938" y1="252.2368" x2="523.2717" y2="235.1882">
					<stop  offset="0" style="stop-color:#2D6D99"/>
					<stop  offset="1" style="stop-color:#5E2085"/>
				</linearGradient>
				
					<polygon style="opacity:0.5;fill-rule:evenodd;clip-rule:evenodd;fill:url(#SVGID_00000040558227683869161010000007962534489542290867_);" points="
					525.11,227.44 515.27,225.25 512.55,226.46 505.84,225.59 514.74,227.42 519.77,228.06 				"/>
				
					<linearGradient id="SVGID_00000027590233561698399750000018120011254255698328_" gradientUnits="userSpaceOnUse" x1="593.0526" y1="289.2069" x2="539.6761" y2="229.8161">
					<stop  offset="0" style="stop-color:#2D6D99"/>
					<stop  offset="1" style="stop-color:#5E2085"/>
				</linearGradient>
				
					<polygon style="opacity:0.5;fill-rule:evenodd;clip-rule:evenodd;fill:url(#SVGID_00000027590233561698399750000018120011254255698328_);" points="
					533.26,227.35 527.69,227.46 550.9,233.86 549.91,230.23 				"/>
				
					<linearGradient id="SVGID_00000002342660306883476280000004975358516899608480_" gradientUnits="userSpaceOnUse" x1="481.3821" y1="148.7072" x2="549.4928" y2="148.7072">
					<stop  offset="0" style="stop-color:#663299"/>
					<stop  offset="1" style="stop-color:#371761"/>
				</linearGradient>
				
					<polygon style="opacity:0.6;fill-rule:evenodd;clip-rule:evenodd;fill:url(#SVGID_00000002342660306883476280000004975358516899608480_);" points="
					481.38,157.3 514.71,148.68 549.3,137.16 549.49,138.76 524.46,148.34 525.1,150 512.03,154.52 492.28,160.26 				"/>
				<polygon class="st25" points="487.61,49.91 475.42,59.4 474.78,59.9 473.59,60.82 462.27,60.82 462.32,60.78 465.67,58.26 
					487.54,49.94 				"/>
				
					<linearGradient id="SVGID_00000154427712437745962550000007262343915644602046_" gradientUnits="userSpaceOnUse" x1="534.4316" y1="102.6365" x2="534.4373" y2="102.6365">
					<stop  offset="0" style="stop-color:#663299"/>
					<stop  offset="1" style="stop-color:#371761"/>
				</linearGradient>
				
					<polygon style="fill-rule:evenodd;clip-rule:evenodd;fill:url(#SVGID_00000154427712437745962550000007262343915644602046_);" points="
					534.44,102.64 534.44,102.64 534.43,102.64 				"/>
				
					<linearGradient id="SVGID_00000010287442423422840960000010983493809280564927_" gradientUnits="userSpaceOnUse" x1="658.8751" y1="223.6586" x2="653.4133" y2="221.0715">
					<stop  offset="0" style="stop-color:#663299"/>
					<stop  offset="1" style="stop-color:#371761"/>
				</linearGradient>
				
					<polygon style="opacity:0.7;fill-rule:evenodd;clip-rule:evenodd;fill:url(#SVGID_00000010287442423422840960000010983493809280564927_);" points="
					611.78,191.34 588.42,194.03 589.69,200.9 610.93,200.22 				"/>
				
					<linearGradient id="SVGID_00000119120019317028940370000009432427920872625818_" gradientUnits="userSpaceOnUse" x1="570.6297" y1="182.3956" x2="611.7802" y2="182.3956">
					<stop  offset="0" style="stop-color:#663299"/>
					<stop  offset="1" style="stop-color:#371761"/>
				</linearGradient>
				
					<polygon style="opacity:0.7;fill-rule:evenodd;clip-rule:evenodd;fill:url(#SVGID_00000119120019317028940370000009432427920872625818_);" points="
					611.78,178.29 611.75,178.53 610.04,190.14 609.83,191.57 609.83,191.58 605.18,192.11 588.42,194.03 580.91,190.8 
					581.48,187.84 570.65,170.79 570.63,170.76 570.63,170.76 570.65,170.76 605.01,177.05 610.37,178.03 				"/>
				
					<linearGradient id="SVGID_00000116950019416412722680000015999277376250102669_" gradientUnits="userSpaceOnUse" x1="585.0093" y1="162.4336" x2="605.1249" y2="219.9541">
					<stop  offset="0" style="stop-color:#663299"/>
					<stop  offset="1" style="stop-color:#371761"/>
				</linearGradient>
				
					<polygon style="opacity:0.5;fill-rule:evenodd;clip-rule:evenodd;fill:url(#SVGID_00000116950019416412722680000015999277376250102669_);" points="
					581.48,187.84 608.66,190 580.91,190.8 				"/>
				
					<linearGradient id="SVGID_00000183227131628395046260000005141737316503970751_" gradientUnits="userSpaceOnUse" x1="564.774" y1="230.095" x2="613.1953" y2="230.095">
					<stop  offset="0" style="stop-color:#2D6D99"/>
					<stop  offset="1" style="stop-color:#5E2085"/>
				</linearGradient>
				
					<polygon style="opacity:0.5;fill-rule:evenodd;clip-rule:evenodd;fill:url(#SVGID_00000183227131628395046260000005141737316503970751_);" points="
					612.49,233.86 587.43,230.63 582.61,228.08 564.77,226.6 585.45,226.33 593.09,228.08 613.2,228.08 				"/>
				
					<linearGradient id="SVGID_00000138553136579838801080000006689746520284590254_" gradientUnits="userSpaceOnUse" x1="571.2868" y1="180.849" x2="619.283" y2="180.849">
					<stop  offset="0" style="stop-color:#2D6D99"/>
					<stop  offset="1" style="stop-color:#5E2085"/>
				</linearGradient>
				
					<path style="opacity:0.5;fill-rule:evenodd;clip-rule:evenodd;fill:url(#SVGID_00000138553136579838801080000006689746520284590254_);" d="
					M619.28,179.9l-2.97,10.63c-0.19,0.03-2.01-0.09-4.73-0.28c-0.49-0.04-1-0.08-1.54-0.12c-0.55-0.04-1.13-0.08-1.73-0.13
					c-1-0.08-2.06-0.16-3.16-0.25c-9.2-0.72-21.09-1.7-23.31-1.89c-0.03,0-0.06,0-0.08-0.01c-0.05,0-0.1-0.01-0.14-0.01
					c-0.09-0.01-0.14-0.01-0.14-0.01l-2.69-4.98l22.79,3.23l0.56-0.81l-3.68-1.35L573.4,173.5l-2.11-2.35l33.73,6.15l5.42,0.99
					l0.03,0.01l1.28,0.23l0.28,0.05L619.28,179.9z"/>
				
					<linearGradient id="SVGID_00000096780032084519966710000000209926121932541837_" gradientUnits="userSpaceOnUse" x1="512.5673" y1="-684.6723" x2="498.0124" y2="-691.5668" gradientTransform="matrix(0.9875 -0.1577 0.1577 0.9875 359.2901 1072.6438)">
					<stop  offset="0" style="stop-color:#2D6D99"/>
					<stop  offset="1" style="stop-color:#5E2085"/>
				</linearGradient>
				
					<path style="opacity:0.5;fill-rule:evenodd;clip-rule:evenodd;fill:url(#SVGID_00000096780032084519966710000000209926121932541837_);" d="
					M619.09,268.88l-25.54-2.67l-32.17-4.9l12,3.53l1.46,1l33.55,4.08l-0.8,3.84l-7.08-2.06c0,0-4.4,0.26-4.61,0.7
					c-0.21,0.44-5.73,0.87-5.73,0.87l29.46,7.24L619.09,268.88z"/>
				
					<linearGradient id="SVGID_00000014620305818229828370000015683853059569851570_" gradientUnits="userSpaceOnUse" x1="517.4404" y1="248.9962" x2="554.4386" y2="248.9962">
					<stop  offset="0" style="stop-color:#663299"/>
					<stop  offset="1" style="stop-color:#371761"/>
				</linearGradient>
				
					<polygon style="opacity:0.6;fill-rule:evenodd;clip-rule:evenodd;fill:url(#SVGID_00000014620305818229828370000015683853059569851570_);" points="
					517.44,254.31 552.46,245.97 553.31,243.69 554.44,247.99 				"/>
				
					<linearGradient id="SVGID_00000106142497231576960760000001808271563943556776_" gradientUnits="userSpaceOnUse" x1="570.5799" y1="174.1896" x2="610.4642" y2="174.1896">
					<stop  offset="0" style="stop-color:#663299"/>
					<stop  offset="1" style="stop-color:#371761"/>
				</linearGradient>
				
					<polygon style="opacity:0.79;fill-rule:evenodd;clip-rule:evenodd;fill:url(#SVGID_00000106142497231576960760000001808271563943556776_);" points="
					610.46,178.3 610.43,178.29 605.01,177.27 570.65,170.76 570.65,170.76 570.63,170.76 570.6,170.76 570.59,170.3 570.58,170.09 
					570.58,170.08 588.7,173.58 604.97,173.47 608.66,173.45 610.37,178.03 				"/>
				<polygon class="st34" points="526.06,35.83 526.03,35.84 502.46,47.02 476.63,59.27 475.42,59.4 474.44,59.5 464.07,60.64 
					463.85,60.66 462.38,60.82 462.27,60.83 462.28,60.82 462.32,60.78 466.24,56.95 504.25,43.53 511.85,40.85 526.03,35.84 				
					"/>
				<polygon class="st34" points="561.79,9.27 561.38,9.55 561.76,8.95 				"/>
				<polygon class="st34" points="570.13,3.48 570.11,3.57 564.36,32.31 564.34,32.14 561.9,10.23 561.79,9.27 563.2,8.29 
					566.24,6.18 				"/>
				
					<linearGradient id="SVGID_00000044874996986350996030000005198053390601118135_" gradientUnits="userSpaceOnUse" x1="591.4891" y1="74.4511" x2="596.2894" y2="57.2527">
					<stop  offset="0" style="stop-color:#663299"/>
					<stop  offset="1" style="stop-color:#371761"/>
				</linearGradient>
				
					<polygon style="fill-rule:evenodd;clip-rule:evenodd;fill:url(#SVGID_00000044874996986350996030000005198053390601118135_);" points="
					590.71,70.32 590.71,61.65 601.17,55.37 				"/>
			</g>
		</g>
		<path class="st57" d="M592.61,1.09L592.62,1l0-0.05l-0.05,0l-8.14,0.74l-0.07,0.01l0.01,0.07l0.01,0.17l-14.1,1.48l0.05-0.24
			l-0.27,0.19l-8.12,5.59l0-0.02l-0.05-0.49l-0.27,0.42l-0.38,0.59L561.2,9.5v0L544.5,35.64l-0.04,0.07v0l-0.91,1.43l-17.5-1.65
			l-0.05,0l-0.05,0.01l-4.67,1.18l-0.02,0l-0.02,0.01l-13.69,5.23l-3.42,1.31l-3.46,1.22l-6.91,2.43l-27.65,9.72l-0.08,0.03
			l-0.06,0.06l-3.91,3.8l-0.04,0.03l-0.04,0.03l-0.18,0.03l0.02,0.1l-0.71,0.54h0.19l-0.14,0.13l0.77-0.08l0.06,0.29l-0.19,0.14
			l0.08,0.26l0.53,1.74l7.61,38.54l-15.56,9.2l0-2.64l0-0.42l-0.42-0.05l-16.54-2.06l-0.09-0.01l-0.09,0.02l-0.09,0.02l-0.27-0.03
			l-0.55-0.07l0,0.31l-2.13,0.55l-0.18,0.05l-0.01,0.02l-0.19-0.63l-0.59,0.67l-16.4,18.7l-0.2,0.22l0.12,0.27l1.84,4.03l-0.81,1.22
			l-6.55,6.74l-4.05-1.05l-0.67-0.17l0.03,0.15l-0.06-0.02l-0.15,0.08l-3.22,1.74l-0.29,0.16l0.08,0.32l6.38,25.17l-0.05,0.01
			l0.13,0.44c0.38,1.25,0.66,2.54,1,3.81l0.85,3.36h0l0.11,0.47l1.08,4.39l0.09,0.37l0.04-0.01l8.45,33.37l1.14,6.66l0.06,0.36
			l0.34-0.11l0.19-0.06l7.44,29.39l-0.48-0.01l0.63,0.5l15.91,12.63l-3.64,10.39l-12.41,3.22l-0.21-0.04l-0.2-0.03l0.05,0.16
			l-0.59,0.14l0.66,0.07l9.08,28.97l-8.84-29.01l0,0l-0.01-0.03l0.04,0.01l0.03,0l0.03-0.01l12.52-3.15l0,0l0.06,0l0.47,0.02l0.03,0
			l0.03-0.01l0.1-0.03l0.09-0.02l0.03-0.09l0.01-0.02l0.09-0.24l-0.26,0.01l-0.39,0.01l3.71-10.35l0.05-0.15l-0.13-0.1l-15.35-12.29
			l0.13,0l-0.62-0.5l-0.06-0.05l-7.48-29.89l-0.08-0.32l-0.32,0.1l-0.16,0.05l-1.06-6.32l0-0.01l0-0.01l-8.45-33.76l-0.09-0.36
			l-0.03,0.01l-0.87-3.56h0.01l-0.12-0.47l-0.96-3.84c-0.3-1.13-0.55-2.26-0.87-3.39l0.02,0l-0.11-0.43l-6.33-25.3l2.78-1.49
			l0.41,0.11l0.67,0.18l-0.03-0.15l3.62,0.95l0.24,0.06l0.18-0.18l6.77-6.93l0.03-0.03l0.02-0.04l0.97-1.46l0.14-0.21l-0.1-0.23
			l-1.81-3.99l15.67-17.77l0.28,0.95l0.58-0.88l0.38-0.57l2.31-0.59l0.37-0.09v0l0.08-0.02l16.03,1.96l0,3.05l0,0.83l0.71-0.43
			l16.52-9.83l0.27-0.16l-0.06-0.31l-7.78-38.85l0-0.02l-0.01-0.02l-0.46-1.5l0.14-0.1l-0.05-0.24l-0.08-0.42l0.12-0.02l-0.03-0.37
			l0.42-0.4h-0.02l3.22-3.15L494,47.51l6.91-2.45l3.45-1.22l3.42-1.32l13.66-5.26l4.6-1.18l17.61,1.61l0.16,0.02l0.09-0.14
			l1.04-1.64l0.04-0.07v0l16.54-26.22l0.03-0.04v0l0.09-0.14l0.01,0.11l0.24-0.17l8.13-5.69l0.1-0.01l14.35-1.62l0.07-0.01
			l-0.01-0.07l-0.01-0.17l8.01-0.8l-0.01,0.09l0,0.05l0.05-0.01L602.97,0L592.61,1.09z"/>
		<g class="st58">
			
				<linearGradient id="SVGID_00000157268148747660459520000014338823607883350958_" gradientUnits="userSpaceOnUse" x1="587.0716" y1="322.6841" x2="595.3647" y2="322.6841">
				<stop  offset="0" style="stop-color:#994843"/>
				<stop  offset="1" style="stop-color:#653385"/>
			</linearGradient>
			<path style="fill:url(#SVGID_00000157268148747660459520000014338823607883350958_);" d="M595.36,322.37
				c-1.64,0.8-8.89,1.01-8.25,0.55c0.47-0.52,4.48-0.59,7.24-0.7C594.93,322.23,595.28,322.29,595.36,322.37z"/>
			
				<linearGradient id="SVGID_00000023989737564548933320000007784557875619604620_" gradientUnits="userSpaceOnUse" x1="582.0138" y1="328.7976" x2="583.5872" y2="328.7976">
				<stop  offset="0" style="stop-color:#994843"/>
				<stop  offset="1" style="stop-color:#653385"/>
			</linearGradient>
			<path style="fill:url(#SVGID_00000023989737564548933320000007784557875619604620_);" d="M583.59,328.72
				c-0.52,0.09-1.03,0.19-1.57,0.15"/>
			
				<linearGradient id="SVGID_00000052821423445301050970000017169330891995722913_" gradientUnits="userSpaceOnUse" x1="510.256" y1="317.2236" x2="510.256" y2="317.2236">
				<stop  offset="0" style="stop-color:#994843"/>
				<stop  offset="1" style="stop-color:#653385"/>
			</linearGradient>
			<path style="fill:url(#SVGID_00000052821423445301050970000017169330891995722913_);" d="M510.26,317.22"/>
			
				<linearGradient id="SVGID_00000181767072362313883050000006312969091801962145_" gradientUnits="userSpaceOnUse" x1="504.354" y1="317.7595" x2="504.354" y2="317.7595">
				<stop  offset="0" style="stop-color:#994843"/>
				<stop  offset="1" style="stop-color:#653385"/>
			</linearGradient>
			<path style="fill:url(#SVGID_00000181767072362313883050000006312969091801962145_);" d="M504.35,317.76"/>
			
				<linearGradient id="SVGID_00000149357762787912857950000008230346155746142376_" gradientUnits="userSpaceOnUse" x1="939.6029" y1="901.6843" x2="939.6029" y2="901.6843" gradientTransform="matrix(-0.986 -0.167 0.167 -0.986 1207.6005 1368.4286)">
				<stop  offset="0" style="stop-color:#994843"/>
				<stop  offset="1" style="stop-color:#653385"/>
			</linearGradient>
			<path style="fill:url(#SVGID_00000149357762787912857950000008230346155746142376_);" d="M431.73,322.45"/>
		</g>
	</g>
</g>
</svg>
