<?xml version="1.0" encoding="utf-8"?>
<!-- Generator: Adobe Illustrator 26.0.3, SVG Export Plug-In . SVG Version: 6.00 Build 0)  -->
<svg version="1.1" id="Layer_1" xmlns="http://www.w3.org/2000/svg" xmlns:xlink="http://www.w3.org/1999/xlink" x="0px" y="0px"
	 viewBox="0 0 280 280" style="enable-background:new 0 0 280 280;" xml:space="preserve">
<style type="text/css">
	.st0{fill:#30538E;}
	.st1{fill:#FFFFFF;}
	.st2{fill:#F2B92E;}
	.st3{fill:#06329D;}
	.st4{fill:#C3A633;}
	.st5{fill:#F7931A;}
	.st6{fill:#6E69EB;}
	.st7{fill:#D2D2FF;}
	.st8{fill:#C3C3FF;}
	.st9{fill:#A5A5FF;}
	.st10{fill:#0F4FE3;}
	.st11{fill-rule:evenodd;clip-rule:evenodd;fill:#0090FF;}
	.st12{fill-rule:evenodd;clip-rule:evenodd;fill:#FFFFFF;}
	.st13{fill:#EBEBEB;}
	.st14{fill:url(#SVGID_1_);}
	.st15{fill:url(#SVGID_00000063599650338763005760000014777158326673255302_);}
	.st16{fill-rule:evenodd;clip-rule:evenodd;fill:#29ABE2;}
	.st17{fill:#ED6624;}
	.st18{fill:#434343;}
	.st19{fill:#E6007A;}
	.st20{fill:#FF007A;}
	.st21{fill:#335DD2;}
	.st22{fill:#01BAFE;}
	.st23{fill:#CC2323;}
	.st24{fill-rule:evenodd;clip-rule:evenodd;fill:#2BB8E6;}
	.st25{fill:url(#SVGID_00000057841396371498858590000007404014195986855352_);}
	.st26{fill:url(#SVGID_00000148621368461030310050000014392620205019421337_);}
	.st27{fill:url(#SVGID_00000173155230486533045760000010059190159141755060_);}
</style>
<g>
	<g>
		<path class="st0" d="M-246.7,860c-77.3,0-140,62.7-140,140c0,77.3,62.7,140,140,140s140-62.7,140-140
			C-106.7,922.7-169.4,860-246.7,860z"/>
	</g>
	<g>
		<path class="st1" d="M-178.9,1069.9h-129.6l13.3-49.7l-18.8,6.9l6.2-23.4l18.8-6.9l22.5-84.4h48.7l-17.2,64.6l23.8-8.7l0.2,0.6
			l-6.1,22.6l-24.2,8.8l-10.2,38.5h80.9L-178.9,1069.9z"/>
	</g>
</g>
<g>
	<g>
		<path d="M913.3,0c-77.2,0-140,62.7-140,140c0,77.4,62.7,140,140,140s140-62.7,140-140S990.6,0,913.3,0z"/>
	</g>
	<g>
		<path class="st1" d="M851.5,67.4l40.1,39.6c5.8,5.7,13.7,8.9,21.8,8.9c8.2,0,16-3.2,21.8-8.9l40-39.6h25.3l-52.6,52.2
			c-9.2,9.1-21.6,14.1-34.5,14.1c-12.9,0-25.3-5.1-34.5-14.1l-52.6-52.2H851.5L851.5,67.4z M975.5,212.4l-40.3-39.9
			c-5.8-5.7-13.6-9-21.8-9c-8.2,0-16,3.2-21.8,9l-40.2,39.9h-25.4l53-52.5c9.2-9.1,21.6-14.1,34.5-14.1c12.9,0,25.3,5.1,34.5,14.1
			l53,52.5H975.5z"/>
	</g>
</g>
<g>
	<g>
		<path class="st2" d="M2460,0c-77.2,0-140,62.7-140,140s62.7,140,140,140c77.2,0,140-62.7,140-140S2537.2,0,2460,0z"/>
	</g>
	<g>
		<path class="st1" d="M2460,39.5l61.7,61.5l-22.7,22.7l-39-39l-39,39.1l-22.7-22.9L2460,39.5z M2482.7,139.7l-22.7,22.7l-22.7-22.6
			l22.7-22.7L2482.7,139.7z M2359.4,140l22.7-22.7l22.6,22.7l-22.3,22.6L2359.4,140z M2460,240.3l-61.7-61.5l22.7-22.7l39,39
			l39-39.1l22.7,22.7L2460,240.3z M2537.9,162.7l-22.7-22.7l22.6-22.7l22.9,22.7L2537.9,162.7z"/>
	</g>
</g>
<g>
	<g>
		<path class="st3" d="M1300,0c-77.2,0-140,62.7-140,140s62.7,140,140,140c77.2,0,140-62.8,140-140S1377.2,0,1300,0z"/>
	</g>
	<g>
		<path class="st1" d="M1194.4,145c-2.5-0.2-4.7-2.3-4.4-5.1c0.2-2.8,2.3-4.7,5.1-4.4l0,0c2.5,0.2,4.7,2.3,4.4,5
			C1199.3,143.1,1197.2,145,1194.4,145z M1380,86.6c3-1.5,6.7-0.2,8.3,2.8c1.5,3,0.2,6.7-2.8,8.3c-3,1.5-6.7,0.2-8.3-2.8
			C1375.7,91.7,1376.8,88.1,1380,86.6z M1359.5,106.2c2.1,4.2,0.5,9.5-3.8,11.7c-4.2,2.1-9.5,0.5-11.7-3.8
			c-2.1-4.2-0.5-9.5,3.8-11.7l0,0C1352.1,99.9,1357.3,101.7,1359.5,106.2z M1349.7,140c0,8.3-6.6,14.9-14.9,14.9c-0.2,0-0.6,0-0.8,0
			c-8.3-0.5-14.4-7.4-14-15.7s7.4-14.4,15.7-14c4,0.2,7.6,1.9,10.2,4.9C1348.5,132.8,1349.7,136.2,1349.7,140z M1348.5,46L1348.5,46
			c1.5-2.1,4.4-2.8,6.6-1.5c2.1,1.5,2.8,4.4,1.5,6.6c-1.5,2.1-4.4,2.8-6.6,1.5C1347.6,51.2,1347,48.3,1348.5,46z M1332.4,68.6
			c2.3-3.4,6.7-4.4,10.2-2.1c3.4,2.3,4.4,6.7,2.1,10.2c-2.3,3.4-6.7,4.4-10.2,2.1l0,0C1331.1,76.7,1330.3,72,1332.4,68.6z
			 M1325.6,97.3c6.7,4.4,8.6,13.8,4.2,20.5c-4.4,6.7-13.8,8.6-20.5,4.2c-6.7-4.4-8.6-13.8-4.2-20.5c2.8-4.2,7.4-6.7,12.5-6.7
			C1320.3,94.9,1323.1,95.7,1325.6,97.3z M1293.7,44.1c0.2-3.4,3.1-5.9,6.3-5.7c3.2,0.2,5.9,3.1,5.7,6.3c-0.2,3.4-3.1,5.9-6.3,5.7
			C1296,50.2,1293.4,47.6,1293.7,44.1L1293.7,44.1z M1300.4,71.4c4.9,0.2,8.5,4.4,8.3,9.1c-0.2,4.9-4.4,8.5-9.1,8.3
			c-4.9-0.2-8.5-4.4-8.3-9.1C1291.5,74.8,1295.6,71.2,1300.4,71.4z M1282.4,94.9c5.5,0,10.8,3.1,13.3,8c1.1,2.1,1.7,4.4,1.7,6.7
			c0,8.3-6.6,14.9-14.9,14.9c-5.5,0-10.8-3.1-13.3-8.3c-1.1-2.1-1.5-4.2-1.5-6.6C1267.6,101.7,1274.1,94.9,1282.4,94.9z
			 M1250.3,139.1c0.5-7.8,7-14,14.9-14c8.3,0,14.9,6.6,14.9,14.9c0,8.3-6.6,14.9-14.9,14.9h-0.8
			C1256,154.4,1249.8,147.3,1250.3,139.1L1250.3,139.1z M1257.7,66.1c3.6-1.9,8-0.5,9.9,3.1c1.9,3.6,0.5,8-3.1,9.9l0,0
			c-3.6,1.9-8,0.5-9.9-3.4C1252.6,72.5,1254.1,68.1,1257.7,66.1z M1245,44.7c2.3-1.3,5.3-0.2,6.3,2.1c1.3,2.3,0.2,5.3-2.1,6.3l0,0
			c-2.3,1.3-5.3,0.2-6.3-2.1C1241.6,48.8,1242.7,45.8,1245,44.7z M1212,89L1212,89c1.9-2.8,5.7-3.6,8.5-1.7c2.8,1.9,3.6,5.7,1.7,8.5
			c-1.9,2.8-5.7,3.6-8.5,1.7C1211,95.5,1210.2,92,1212,89z M1220.1,193.2c-3,1.5-6.7,0.2-8.3-2.8c-1.5-3-0.2-6.7,2.8-8.3l0,0
			c3-1.5,6.7-0.2,8.3,2.8C1224.3,188.2,1223,191.8,1220.1,193.2z M1221.9,147.6c-4-0.2-7.2-3.8-7-7.8c0.2-4,3.8-7.2,7.8-7
			c4,0.2,7.2,3.8,7,7.8C1229.5,144.6,1225.9,147.8,1221.9,147.6z M1240.7,105.4c2.5-4,8-5,12.1-2.5c4,2.5,5.1,8,2.5,12.1
			c-2.5,4-8,5.1-12.1,2.5l0,0C1239.2,114.8,1238.2,109.5,1240.7,105.4z M1240.5,173.8L1240.5,173.8c-2.1-4.2-0.5-9.5,3.8-11.7
			c4.2-2.1,9.5-0.5,11.7,3.8c2.1,4.2,0.5,9.5-3.8,11.7C1247.9,179.9,1242.7,178.2,1240.5,173.8z M1251.5,234
			c-1.5,2.1-4.4,2.8-6.6,1.5c-2.1-1.5-2.8-4.4-1.5-6.6c1.5-2.1,4.4-2.8,6.6-1.5l0,0C1252.4,228.6,1253,231.6,1251.5,234z
			 M1267.6,211.2c-2.3,3.4-6.7,4.4-10.2,2.1c-3.4-2.3-4.4-6.7-2.1-10.2c2.3-3.4,6.7-4.4,10.2-2.1
			C1268.9,203.2,1269.7,207.9,1267.6,211.2z M1274.4,182.7c-6.7-4.4-8.6-13.8-4.2-20.5c4.4-6.7,13.8-8.6,20.5-4.2
			c6.7,4.4,8.6,13.8,4.2,20.5c-2.8,4.2-7.4,6.7-12.5,6.7C1279.7,185,1276.9,184.3,1274.4,182.7z M1299.2,241.5
			c-3.4-0.2-5.9-3.1-5.7-6.3c0.2-3.4,3.1-5.9,6.3-5.7l0,0c3.4,0.2,5.9,3.1,5.7,6.3C1305.5,239.2,1302.5,241.8,1299.2,241.5z
			 M1308.2,200.3c-0.2,4.9-4.4,8.5-9.3,8.3c-4.9-0.2-8.5-4.4-8.3-9.3c0.2-4.9,4.4-8.5,9.3-8.3
			C1304.8,191.4,1308.5,195.4,1308.2,200.3L1308.2,200.3z M1324.1,183.3c-2.1,1.1-4.4,1.7-6.7,1.7c-5.5,0-10.8-3.1-13.3-8
			c-3.6-7.4-0.8-16.3,6.6-19.9c7.4-3.6,16.3-0.8,19.9,6.6C1334.5,170.8,1331.5,179.7,1324.1,183.3z M1342.4,213.8
			c-3.6,1.9-8,0.5-9.9-3.1c-1.9-3.6-0.5-8,3.1-9.9l0,0c3.6-1.9,8-0.5,9.9,3.1l0,0C1347.4,207.4,1346,211.9,1342.4,213.8z
			 M1355,235.2c-2.3,1.3-5.3,0.2-6.3-2.1c-1.1-2.3-0.2-5.3,2.1-6.3l0,0c2.3-1.3,5.3-0.2,6.3,2.1l0,0
			C1358.2,231.1,1357.3,234.1,1355,235.2z M1359.3,174.4c-2.5,4-8,5.1-12.1,2.5s-5-8-2.5-12.1c2.5-4,8-5.1,12.1-2.5
			C1360.7,165.1,1361.8,170.4,1359.3,174.4z M1370.2,139.3c0.2-4,3.8-7.2,7.8-7c4,0.2,7.2,3.8,7,7.8c-0.2,4-3.8,7.2-7.8,7
			C1373.2,146.9,1370,143.5,1370.2,139.3z M1388,190.9c-1.9,2.8-5.7,3.6-8.5,1.7c-2.8-1.9-3.6-5.7-1.7-8.5c2-2.7,5.7-3.6,8.5-1.7
			l0,0C1389.1,184.4,1389.8,188,1388,190.9z M1405,144.6c-2.5-0.2-4.7-2.3-4.4-5c0.2-2.5,2.3-4.7,5.1-4.4c2.5,0.2,4.7,2.3,4.4,5l0,0
			C1409.8,142.7,1407.7,144.6,1405,144.6z"/>
	</g>
</g>
<g>
	<g>
		<path d="M526.7,860c-77.2,0-140,62.8-140,140c0,77.2,62.8,140,140,140s140-62.8,140-140C666.7,922.8,603.9,860,526.7,860z"/>
	</g>
	<g>
		<path class="st1" d="M618.3,977.1l-6.8,3.5c-5.1,2.4-8.1,7.9-7.6,13.5c0.2,2,0.2,4,0.2,5.9c0,16.4-5.3,32.4-14.9,45.7
			c-25.1,34.8-73.8,42.4-108.5,17.2l13.8-7l0.9-0.5c9.4,5.3,20.1,8.1,31.1,8.1c35.2,0,63.7-28.4,63.7-63.7c0-2.9,0-5.4-0.5-8.3
			l-107,54.4l-22.1,11.4l-25.8,13.1v-16l26.1-13.1l12.7-6.5l144.8-73.8v-0.2h0.2l-0.2,0.2C618.3,961.2,618.3,977.1,618.3,977.1z
			 M618.7,945.3l-26.2,13.3l-12.7,6.4l-112.7,57.3l-6.4,3.2l-6.4,3.2l-19.7,10v-16l6.8-3.2c5.1-2.4,8.1-7.9,7.6-13.5
			c-0.2-2-0.2-4-0.2-5.9c0-16.4,5.3-32.4,14.9-45.7c25.1-34.8,73.8-42.4,108.5-17.2l-2,0.9l-12.7,6.4c-9.4-5.2-19.9-8.1-30.8-8.1
			c-35.2,0-63.7,28.4-63.7,63.7c0,2.9,0,5.4,0.5,8.3l106.7-54.4l22.1-11.1l26.2-13.3L618.7,945.3L618.7,945.3z"/>
	</g>
</g>
<g>
	<g>
		<path class="st4" d="M526.6,0c-77.2,0-140,62.7-140,140s62.7,140,140,140c77.2,0,140-62.7,140-140C666.6,62.8,603.8,0,526.6,0z"/>
	</g>
	<g>
		<path class="st1" d="M528.1,57.5h-60.9v73.3h-20.6v18.6h20.6v73.2h60.9c49.6,0,78.6-30.7,78.6-83.2
			C606.7,87,577.7,57.5,528.1,57.5z M524.1,192.6h-22.3v-43.3h33.6v-18.6h-33.6V87.4h22.3c30.6,0,47.7,18.5,47.7,52.2
			C571.8,174.3,555,192.6,524.1,192.6z"/>
	</g>
</g>
<g>
	<g>
		<path class="st5" d="M-246.7,0c-77.3,0-140,62.7-140,139.9s62.7,140,140,140s139.9-62.7,139.9-140S-169.4,0-246.7,0z"/>
	</g>
	<g>
		<path class="st1" d="M-184.2,162.1c-4.2-7-11.7-12.8-22.3-17.4c9.9-0.4,17.7-2.5,23.2-6.4c5.4-4,9.1-9.9,10.8-17.9
			c2.4-11.5,0.1-21-7-28.3c-6.3-6.5-16.7-11.6-30.9-15.2l5.5-25.8l-17.1-3.6l-5.4,25.7l-15-3.2l5.4-25.7l-17.1-3.6l-5.4,25.7
			l-33.1-7.1l-3.3,15.4l8,1.7c6.1,1.3,9.6,2.8,10.8,4.5c1.2,1.8,1.2,5.4,0,11l-17.1,80.6c-1.2,5.6-2.6,8.9-4.5,10
			c-1.8,1.2-5.7,1-11.7-0.2l-8-1.7l-3.3,15.5l33.1,7l-5.4,25.7l17.1,3.6l5.4-25.7l15,3.2l-5.4,25.7l17.1,3.6l5.5-25.9
			c17.1,2.9,30,2.8,38.8-0.5c10.3-3.7,16.9-12.4,19.8-25.8C-178.9,177.5-180.1,169.1-184.2,162.1z M-254.9,128.1l9.1-42.6l19.7,4.2
			c10.3,2.2,17.5,5.4,21.2,9.7c3.7,4.2,4.7,10.2,3.1,17.7c-1.7,7.6-5.1,12.5-10.6,14.8c-5.5,2.3-13.8,2.3-24.9-0.1L-254.9,128.1
			L-254.9,128.1L-254.9,128.1z M-221.8,195.7c-5.8,2.6-14.4,2.8-26.2,0.2l-20.5-4.3l10.2-47.8l18.7,4c12.5,2.7,21,6.4,25.4,11.1
			c4.4,4.7,5.7,11.3,3.8,19.9C-212.2,187.4-216,193-221.8,195.7z"/>
	</g>
</g>
<g>
	<g>
		<path class="st6" d="M140,0C62.8,0,0,62.8,0,140s62.8,140,140,140s140-62.8,140-140S217.2,0,140,0z"/>
	</g>
	<g>
		<g>
			<path class="st1" d="M139.8,27.6l69.1,113.9l-70.4,40.2l-67.8-40.5L139.8,27.6z M139.8,252.4L67.1,151.8l71.1,42.4l74.1-42.6
				L139.8,252.4z"/>
		</g>
		<polygon class="st7" points="139.8,27.6 138.4,181.8 208.9,141.5 		"/>
		<polygon class="st7" points="138.2,194.2 139.8,252.4 212.4,151.6 		"/>
		<polygon class="st8" points="70.6,141.3 139,109.7 138.4,181.8 		"/>
		<polygon class="st9" points="139,109.7 208.9,141.5 138.4,181.8 		"/>
	</g>
</g>
<g>
	<g>
		<path d="M2846.7,0c-77.2,0-140,62.8-140,140s62.8,140,140,140s140-62.8,140-140S2924.1,0,2846.7,0z"/>
	</g>
	<g>
		<path class="st1" d="M2921.3,162.1c-7.9-7.2-17.7-14.7-28.6-22.3c10.9-7.7,20.6-15.1,28.6-22.3c16.8-14.9,23.4-25.8,19.7-32.4
			c-3.7-6.6-16.8-5.7-34.1-0.2c-1.5-2-3.7-3.1-6.3-3.1c-4.4,0-7.9,3.5-7.9,7.9v0.2c-7.4,2.6-14.9,6.1-23,9.8
			c-3.1-38.3-10.9-69.1-23-69.1s-19.9,30.8-23.2,69.1c-12-5.7-23.4-10.3-33.7-13.8c-21.2-7-34.1-7.2-37.6-0.7
			c-3.7,6.6,3.7,17.9,17.7,30.6c-0.2,0.9-0.4,1.7-0.4,2.6c0,4.4,3.5,7.9,7.9,7.9c1.3,0,2.6-0.4,3.5-0.9c5.9,4.8,12.5,9.6,19.5,14.4
			c-31.3,21.9-54.2,44.2-48.1,54.7c1.7,3.1,5.7,4.6,11.6,4.6c6.3,0,15.1-2,26.5-5.5c10.1-3.3,21.4-7.9,33.7-13.6
			c0.7,8.5,1.7,16.8,2.6,24.3c-2.4,1.5-3.9,3.9-3.9,7c0,3.9,2.8,7.4,6.8,7.9c4.2,18.2,10.1,30.2,17.7,30.2
			c12.2,0,19.9-30.8,23.2-69.1c24.1,11.6,46.4,19,59.9,19c5.7,0,9.8-1.5,11.6-4.6C2944.9,187.9,2938.3,177,2921.3,162.1z
			 M2894.4,94.7c1.5,1.7,3.5,2.8,6.1,2.8c4.4,0,7.9-3.5,7.9-7.9c16.2-4.8,26.5-5.5,28.4-2.2c1.7,2.8-2.4,11.4-18.6,26
			c-8.1,7.4-18.2,15.1-29.7,23c-5.5-3.7-11.4-7.4-17.3-11.2c-0.2-6.8-0.4-13.8-1.1-20.3C2878.8,100.9,2887.2,97.4,2894.4,94.7z
			 M2856.5,156.8c-3.3,2-6.6,3.7-9.8,5.5c-3.1-1.7-6.6-3.5-9.8-5.5c-3.3-2-6.6-3.7-9.6-5.7c0-3.7-0.2-7.7-0.2-11.4
			c0-3.7,0-7.7,0.2-11.4c3.1-2,6.3-3.7,9.6-5.7l0,0c3.3-2,6.8-3.7,9.8-5.5c3.3,2,6.6,3.5,9.8,5.5s6.6,3.7,9.6,5.9
			c0,3.7,0.2,7.4,0.2,11.4c0,3.7,0,7.7-0.2,11.4C2862.9,153.1,2859.8,154.9,2856.5,156.8z M2866.2,157.1c-0.2,5.2-0.4,10.3-0.7,15.1
			c-4.4-2.2-8.7-4.4-13.3-7c2.4-1.3,4.8-2.6,7.2-3.9C2861.3,159.7,2863.5,158.4,2866.2,157.1z M2841.4,165.2c-4.6,2.6-9,4.8-13.3,7
			c-0.4-4.8-0.7-9.8-0.7-15.1c2.4,1.5,4.6,2.6,7.2,4.2C2836.6,162.7,2839,163.8,2841.4,165.2z M2821.8,147.9
			c-4.4-2.6-8.7-5.5-12.9-8.1c3.9-2.6,8.1-5.5,12.9-8.1c0,2.6,0,5.5,0,8.1C2821.8,142.6,2821.8,145.2,2821.8,147.9z M2827,122.5
			c0.2-5.2,0.4-10.3,0.7-15.1c4.4,2.2,9,4.4,13.3,7c-2.4,1.3-4.8,2.6-7.2,3.9C2831.8,119.7,2829.6,121.2,2827,122.5z M2851.9,114.4
			c4.6-2.6,9.2-4.8,13.3-7c0.4,4.8,0.7,9.8,0.7,15.1c-2.4-1.5-4.6-2.6-7.2-4.2C2856.8,116.8,2854.1,115.7,2851.9,114.4z
			 M2871.2,131.7c4.4,2.6,8.5,5.5,12.9,8.1c-3.9,2.6-8.3,5.5-12.9,8.1c0-2.6,0-5.5,0-8.1C2871.4,137.2,2871.4,134.3,2871.2,131.7z
			 M2846.7,35.7c6.6,0,14.9,24.5,18.2,66.3c-6.1,2.8-12.2,6.1-18.2,9.4c-6.1-3.3-12.5-6.6-18.2-9.4
			C2831.6,60.2,2840.1,35.7,2846.7,35.7z M2784.6,121.8c0.4-1.1,0.9-2.2,0.9-3.3c0-4.4-3.5-7.9-7.9-7.9c-1.7,0-3.1,0.4-4.4,1.3
			c-12.7-11.8-18.4-20.6-16.4-23.8c0.7-1.3,2.8-2.2,7-2.2c5.2,0,13.1,1.5,24.9,5.2c10.5,3.3,22.3,8.3,34.6,14.2
			c-0.4,6.8-0.9,13.6-1.1,20.6c-5.9,3.5-11.8,7.4-17.3,11.2C2797,131.5,2790.3,126.4,2784.6,121.8z M2788.5,188.8
			c-21,7-30.2,6.1-31.9,3.1c-3.1-5.7,13.8-25.2,48.3-49.2c5.7,3.7,11.4,7.7,17.3,11.2c0.2,7,0.4,13.8,1.1,20.6
			C2810.6,180.5,2798.8,185.3,2788.5,188.8z M2846.7,243.9c-3.9,0-8.5-9.2-12.7-26c2.4-1.5,3.9-3.9,3.9-7c0-3.9-2.8-7.4-7-7.9
			c-1.3-7.7-2.2-16.2-2.8-25.6c5.9-2.8,12.2-6.1,18.2-9.4c6.1,3.3,12.2,6.6,18.2,9.4C2861.6,219.4,2853,243.9,2846.7,243.9z
			 M2936.8,191.8c-3.1,5.7-28.6,0.7-66.7-17.5c0.4-6.8,0.9-13.6,1.1-20.6c6.1-3.7,11.8-7.4,17.3-11.2c11.4,7.9,21.7,15.5,29.7,23
			C2934.6,180.5,2938.5,189,2936.8,191.8z"/>
		<circle class="st1" cx="2846.7" cy="139.8" r="13.1"/>
	</g>
</g>
<g>
	<g>
		<g>
			<path class="st10" d="M2460,860c-77.2,0-140,62.8-140,140c0,77.2,62.8,140,140,140s140-62.8,140-140
				C2600,922.8,2537.2,860,2460,860z"/>
		</g>
	</g>
	<path class="st1" d="M2505.1,981.6l16.6,76.1l-54,31.1L2505.1,981.6z M2420.2,964.3l39.8-52.3l39.8,52.3l-39.8,114.2L2420.2,964.3z
		 M2398.5,1057.8l16.6-76.1l37.4,107.2L2398.5,1057.8z M2511.6,962.6L2460,895l-51.6,67.6l-21.9,100l73.5,42.4l73.3-42.2
		L2511.6,962.6z"/>
</g>
<g>
	<path class="st11" d="M1686.7,1140c-77,0-140-63-140-140.7c0.7-77,63-140,140.7-139.3c77,0.7,139.3,63,139.3,141.3
		C1826,1077.7,1763.7,1140,1686.7,1140"/>
	<path class="st12" d="M1698.6,983.7l-4.1,22.3l39.6,5.6l-2.7,10.5l-39-5.6c-2.7,9.1-4.1,18.8-7.6,27c-3.5,9.7-7,19.4-11.1,28.4
		c-5.6,11.7-15.3,20.2-28.4,22.3c-7.6,1.4-16.1,0.6-22.3-4.1c-2.1-1.4-4.1-4.1-4.1-6.2c0-3.3,0.2-4.9,2.5-7c2.1-1.9,4.9-1.9,7.8,0
		c2.9,1.6,4.1,4.9,5.6,7.6c4.1,5.6,9.7,6.2,15.3,2.1c6.2-5.6,9.7-13.2,11.7-20.8c4.1-16.7,8.2-32.6,11.7-49.3v-2.7l-36.9-5.6
		l1.4-10.5l38.3,5.4l4.9-21.4l-39.6-6.2l1.4-11.1l41,5.6c1.4-4.1,2.1-7.6,3.5-11.1c3.5-12.6,7-24.9,15.3-36.1
		c8.2-11.1,18.1-18.1,32.6-17.3c6.2,0,12.6,2.1,16.7,7c0.6,0.6,1.6,2.1,2.1,3.5c0.8,2.5,1.2,5.6-2.1,8.2c-2.7,2.1-6.2,1.4-9.1-1.4
		c-2.1-2.1-3.5-4.1-5.6-6.2c-4.1-5.6-10.5-6.2-15.3-1.4c-3.5,3.5-7,8.2-9.1,13.2c-4.9,14.6-8.2,29.9-13.2,45.1l38.1,5.4l-2.7,10.5
		L1698.6,983.7"/>
</g>
<g>
	<g>
		<g>
			<g>
				<path class="st13" d="M1300,860c-77.2,0-140,62.8-140,140c0,77.2,62.8,140,140,140c77.2,0,140-62.8,140-140
					C1440,922.8,1377.2,860,1300,860z"/>
			</g>
		</g>
	</g>
	<g>
		
			<linearGradient id="SVGID_1_" gradientUnits="userSpaceOnUse" x1="1070.5852" y1="2440.175" x2="1141.1765" y2="2512.9011" gradientTransform="matrix(1 0 0 1 256.5 -1484)">
			<stop  offset="0.21" style="stop-color:#F15A24"/>
			<stop  offset="0.6841" style="stop-color:#FBB03B"/>
		</linearGradient>
		<path class="st14" d="M1354,948.6c-11.8,0-24.5,6.3-38.1,18.6c-6.3,5.9-12,12-16.2,17.1c0,0,6.6,7.4,13.8,15.3
			c3.9-4.8,9.4-11.4,16-17.3c12-10.9,19.9-13.1,24.3-13.1c16.8,0,30.6,13.8,30.6,31.1c0,17.1-13.8,30.8-30.6,31.1
			c-0.9,0-1.8,0-2.8-0.4c4.8,2.2,10.3,3.9,15.1,3.9c30.8,0,37-21,37.4-22.3c0.9-3.9,1.5-7.9,1.5-12
			C1405,971.6,1382,948.6,1354,948.6z"/>
		
			<linearGradient id="SVGID_00000016772332518718125570000012352946483246817161_" gradientUnits="userSpaceOnUse" x1="1016.394" y1="2527.8503" x2="945.8028" y2="2455.1243" gradientTransform="matrix(1 0 0 1 256.5 -1484)">
			<stop  offset="0.21" style="stop-color:#ED1E79"/>
			<stop  offset="0.8929" style="stop-color:#522785"/>
		</linearGradient>
		<path style="fill:url(#SVGID_00000016772332518718125570000012352946483246817161_);" d="M1246,1051.4c11.8,0,24.5-6.3,38.1-18.6
			c6.3-5.9,12-12,16.2-17.1c0,0-6.6-7.4-13.8-15.3c-3.9,4.8-9.4,11.4-16,17.3c-12,10.9-19.9,13.1-24.3,13.1
			c-16.8,0-30.6-13.8-30.6-31.1c0-17.1,13.8-30.8,30.6-31.1c0.9,0,1.8,0,2.8,0.4c-4.8-2.2-10.3-3.9-15.1-3.9
			c-30.8,0-37,21-37.4,22.3c-0.9,3.9-1.5,7.9-1.5,12C1195,1028.4,1217.8,1051.4,1246,1051.4z"/>
		<path class="st16" d="M1269.6,982.7c-3.3-3.3-19.9-16.4-35.7-16.8c-28.2-0.7-36.5,19.5-37.2,21.9c5.5-22.5,25.6-39.4,49.4-39.4
			c19.5,0,39.2,18.8,53.8,35.7l0,0c0,0,6.6,7.4,13.8,15.3c0,0,8.1,9.4,16.8,17.7c3.3,3.3,19.9,16.2,35.7,16.6
			c28.9,0.9,37-20.3,37.4-21.9c-5.2,22.5-25.6,39.4-49.4,39.6c-19.5,0-39.2-18.8-53.8-35.7l0,0c0,0-6.6-7.4-13.8-15.3
			C1286.4,1000.4,1278.1,991,1269.6,982.7z M1196.5,988L1196.5,988L1196.5,988z"/>
	</g>
</g>
<g>
	<path class="st1" d="M2213.3,1000c0,77.2-62.8,140-140,140c-77.2,0-140-62.8-140-140c0-77.4,62.8-140,140-140
		C2150.6,860,2213.3,922.6,2213.3,1000z"/>
	<path id="_149931032_1_" class="st17" d="M2073.3,860c-77.2,0-140,62.8-140,140c0,15.5,2.4,30.4,7,44.2h41.8V926.5l91.2,91l91-91
		v117.7h41.8c4.6-14,7-28.7,7-44.2C2213.6,922.8,2150.6,860,2073.3,860L2073.3,860z"/>
	<path id="_149931160_1_" class="st18" d="M2012.7,998.7v74.2h-59.1c24.5,40.2,68.9,67.2,119.7,67.2s95.2-26.9,119.7-67.4h-59.1
		v-73.9l-60.6,60.6L2012.7,998.7z"/>
</g>
<g>
	<g>
		<path class="st13" d="M2073.3,0c-77.2,0-140,62.8-140,140s62.8,140,140,140s140-62.8,140-140S2150.5,0,2073.3,0z"/>
	</g>
	<g>
		<path d="M2074.3,45.4c-39.6,0.2-71.5,32.1-71.7,71.7c0,7.9,1.4,15.8,3.7,23.2c2,5.1,7.3,7.9,12.6,6.3c5.1-2,7.7-7.3,6.1-12.4
			c-2.2-5.9-3-12-2.8-18.3c1-28.6,24.8-50.8,53.2-50c28.6,1,50.8,24.8,50,53.2c-0.8,26.8-21.7,48.7-48.5,50c0,0-10,0.6-15.2,1.2
			c-2,0.2-3.5,0.6-5.5,1.2c-0.2,0.2-0.8,0.2-1,0l0,0c-0.2-0.2-0.2-0.6,0-0.8l1.6-8.5l9.5-42.6c1.2-5.3-2.4-10.6-7.5-11.8
			c-5.1-1.2-10.6,2.4-11.8,7.5c0,0-22.5,104-22.5,105c-1.4,5.1,1.8,10.2,6.9,11.6h0.2h0.6c5.1,1.4,10.2-1.8,11.6-6.9v-0.4
			c0-0.2,0-0.4,0-0.4c0.2-1.2,3-15.2,3-15.2c2.2-10.4,10.6-18.5,21.3-20.1c2.2-0.4,11.4-1,11.4-1c39.4-3.9,68.2-39,64.2-78.4
			C2140.1,74,2110.4,46.4,2074.3,45.4z"/>
		<path class="st19" d="M2078.7,210.5c-6.5-1.4-12.8,2.8-14.2,9.3v0.2c-1.4,6.5,2.6,12.6,9.1,14.2l0,0h0.4
			c6.3,1.6,12.6-2.4,14.2-8.7v-0.2v-0.6C2089.3,218.4,2085.2,212.1,2078.7,210.5z"/>
	</g>
</g>
<g>
	<g>
		<g>
			<path class="st20" d="M1686.7,0c-77.2,0-140,62.8-140,140s62.8,140,140,140s140-62.8,140-140S1763.9,0,1686.7,0z"/>
		</g>
	</g>
	<g>
		<path class="st1" d="M1654.5,61.5c-2.4-0.4-2.4-0.4-1.3-0.7c2.2-0.4,7.2,0.2,10.7,0.9c8.3,2,15.7,7,23.6,15.7l2.2,2.4l3.1-0.4
			c12.7-2,25.8-0.4,36.5,4.6c3.1,1.3,7.7,4.2,8.3,4.8c0.2,0.2,0.4,1.7,0.7,3.3c0.9,5.2,0.4,9.4-1.3,12.5c-0.9,1.7-0.9,2.2-0.4,3.5
			c0.4,1.1,1.7,2,3.1,2c2.6,0,5.7-4.4,7-10.3l0.4-2.4l1.1,1.1c5.9,6.6,10.3,15.5,11.2,21.9l0.2,1.7l-0.7-1.7
			c-1.7-2.6-3.3-4.4-5.5-5.7c-3.9-2.6-8.1-3.5-19-3.9c-9.8-0.4-15.5-1.3-21-3.1c-9.4-3.1-14.2-7-25.4-21.7
			c-5-6.6-8.1-10.1-11.2-12.9C1670,66.3,1663.3,62.8,1654.5,61.5z"/>
		<path class="st1" d="M1739.8,75.9c0.2-4.4,0.9-7.2,2-9.8c0.4-1.1,0.9-2,0.9-2s-0.2,0.7-0.4,1.7c-0.9,2.6-1.1,5.9-0.4,10.1
			c0.7,5,1.1,5.9,6.6,11.4c2.6,2.6,5.5,5.9,6.6,7.2l2,2.6l-2-1.7c-2.4-2.2-7.9-6.6-9.2-7.2c-0.9-0.4-0.9-0.4-1.5,0
			c-0.4,0.4-0.7,1.1-0.7,4.4c0,5-0.9,8.3-2.4,11.6c-0.9,1.7-1.1,1.3-0.2-0.7c0.7-1.5,0.7-2.2,0.7-7c0-9.8-1.1-12.2-8.1-16.4
			c-1.7-1.1-4.6-2.6-6.3-3.3c-1.7-0.9-3.3-1.5-3.1-1.5c0.2-0.2,7,1.7,9.6,2.8c3.9,1.5,4.8,1.7,5.2,1.5
			C1739.6,79.6,1739.6,78.8,1739.8,75.9z"/>
		<path class="st1" d="M1659.1,93c-4.8-6.6-7.9-16.8-7.2-24.5l0.2-2.4l1.1,0.2c2,0.4,5.7,1.7,7.4,2.6c4.6,2.8,6.6,6.3,8.5,15.7
			c0.7,2.8,1.3,5.9,1.7,7c0.7,1.7,2.8,5.7,4.6,8.3c1.3,1.7,0.4,2.6-2.4,2.4C1668.7,101.9,1663.1,98,1659.1,93z"/>
		<path class="st1" d="M1733.9,142.4c-22.7-9.2-30.6-17.1-30.6-30.4c0-2,0-3.5,0.2-3.5c0,0,0.9,0.7,2,1.5c4.6,3.7,9.8,5.2,24.1,7.2
			c8.3,1.3,13.1,2.2,17.5,3.7c13.8,4.6,22.5,13.8,24.5,26.5c0.7,3.7,0.2,10.5-0.7,14.2c-0.7,2.8-3.1,8.1-3.7,8.3
			c-0.2,0-0.4-0.7-0.4-1.5c-0.2-4.8-2.6-9.4-6.8-12.9C1755.3,151.6,1749,148.3,1733.9,142.4z"/>
		<path class="st1" d="M1717.9,146.1c-0.2-1.7-0.9-3.9-1.1-4.8l-0.7-1.7l1.1,1.1c1.5,1.7,2.6,3.7,3.7,6.6c0.7,2.2,0.9,2.8,0.9,6.3
			c0,3.5,0,4.2-0.9,6.1c-1.1,3.1-2.4,5.2-4.8,7.7c-4.2,4.2-9.4,6.6-17.3,7.4c-1.3,0.2-5.2,0.4-8.7,0.7c-8.7,0.4-14.4,1.3-19.5,3.1
			c-0.7,0.2-1.3,0.4-1.5,0.4c-0.2-0.2,3.3-2.2,6.1-3.7c4.2-2,8.1-3.1,17.1-4.6c4.4-0.7,9-1.5,10.3-2
			C1714.2,165.6,1719.9,156.8,1717.9,146.1z"/>
		<path class="st1" d="M1728.4,164.5c-3.1-6.3-3.7-12.7-2-18.4c0.2-0.7,0.4-1.1,0.7-1.1c0.2,0,0.9,0.4,1.5,0.9
			c1.3,0.9,4.2,2.4,11.6,6.6c9.2,5,14.7,9,18.2,13.3c3.1,3.9,5,8.3,6.1,13.8c0.4,3.1,0.2,10.5-0.7,13.6c-2.4,9.6-8.3,17.3-16.6,21.9
			c-1.3,0.7-2.4,1.1-2.4,1.1c-0.2,0,0.2-1.1,0.9-2.4c2.8-5.7,3.1-11.4,1.1-17.7c-1.3-3.9-3.9-8.5-9.2-16.4
			C1731.5,170.2,1730,167.8,1728.4,164.5z"/>
		<path class="st1" d="M1643.1,199.3c8.5-7,18.8-12,28.4-13.6c4.2-0.7,10.9-0.4,14.9,0.7c6.1,1.5,11.6,5,14.4,9.2
			c2.8,4.2,3.9,7.7,5.2,15.5c0.4,3.1,1.1,6.1,1.1,7c0.9,4.2,2.8,7.4,5,9c3.5,2.6,9.6,2.8,15.7,0.4c1.1-0.4,2-0.7,2-0.7
			c0.2,0.2-2.8,2.2-5,3.3c-2.8,1.5-5.2,2-8.3,2c-5.5,0-10.1-2.8-14-8.5c-0.7-1.1-2.4-4.6-3.7-7.4c-4.2-9.2-6.1-12-10.7-15.1
			c-4.2-2.6-9.4-3.1-13.3-1.3c-5.2,2.6-6.8,9.2-2.8,13.3c1.5,1.7,4.2,3.1,6.6,3.3c4.2,0.4,7.9-2.6,7.9-7c0-2.8-1.1-4.4-3.7-5.5
			c-3.7-1.7-7.7,0.2-7.7,3.7c0,1.5,0.7,2.4,2.2,3.1c0.9,0.4,0.9,0.4,0.2,0.2c-3.3-0.7-4.2-4.8-1.5-7.4c3.3-3.3,10.1-1.7,12.2,2.6
			c0.9,1.7,1.1,5.5,0.2,7.7c-2,5-7.4,7.7-12.9,6.1c-3.7-0.9-5.5-2-10.1-6.8c-8.1-8.1-11.2-9.8-22.5-11.6l-2.2-0.4L1643.1,199.3z"/>
		<path class="st12" d="M1605.5,53c26.7,32.1,45.1,45.5,47.2,48.3c1.7,2.4,1.1,4.4-1.7,6.1c-1.5,0.9-4.8,1.7-6.6,1.7
			c-2,0-2.4-0.7-2.4-0.7c-1.1-1.1-1.7-0.9-7.2-10.7c-7.7-11.8-14.2-21.9-14.4-21.9c-0.4-0.4-0.4-0.4,13.6,24.5
			c2.2,5.2,0.4,7,0.4,7.9c0,1.5-0.4,2.2-2.2,4.4c-3.1,3.5-4.6,7.2-5.5,15.3c-1.1,9-4.4,15.3-13.1,26.2c-5,6.3-5.9,7.4-7.2,10.1
			c-1.5,3.3-2,5-2.2,9.2c-0.2,4.4,0.2,7,1.5,11.2c1.1,3.5,2.4,5.9,5.5,10.7c2.6,4.2,4.2,7.2,4.2,8.3c0,0.9,0.2,0.9,4.4,0
			c9.8-2.2,17.9-6.1,22.5-10.9c2.8-3.1,3.5-4.6,3.5-8.7c0-2.6,0-3.3-0.9-4.8c-1.1-2.4-3.3-4.6-8.1-7.7c-6.1-4.2-8.7-7.7-9.6-12.2
			c-0.7-3.7,0-6.6,3.5-13.6c3.5-7.4,4.4-10.5,5-17.9c0.4-4.8,0.9-6.8,2.4-8.3c1.5-1.5,2.8-2.2,6.3-2.6c5.9-0.9,9.6-2.2,12.7-5
			c2.6-2.4,3.7-4.8,3.9-8.3l0.2-2.6l-1.5-1.7c-5.9-6.3-57.7-51-58-51S1603.3,50.3,1605.5,53z M1618,178.1c1.3-2.2,0.7-4.8-1.5-6.1
			c-2-1.3-4.8-0.7-4.8,0.9c0,0.4,0.2,0.9,0.9,1.1c1.1,0.4,1.1,1.1,0.2,2.4c-0.9,1.3-0.9,2.4,0.2,3.1
			C1614.7,180.7,1616.9,180,1618,178.1z"/>
		<path class="st12" d="M1664.4,118.1c-2.8,0.9-5.5,3.7-6.1,6.8c-0.4,1.7-0.2,5,0.4,6.1c1.3,1.5,2.4,2,5.7,2
			c6.3,0,11.6-2.6,12.2-6.1c0.4-2.6-2-6.6-5.2-8.1C1669.8,117.9,1666.1,117.7,1664.4,118.1z M1671.8,123.8c0.9-1.3,0.4-2.8-1.1-3.7
			c-3.1-2-7.9-0.2-7.9,2.6c0,1.5,2.4,3.1,4.8,3.1C1669,125.6,1671.1,124.7,1671.8,123.8z"/>
	</g>
</g>
<g>
	<g>
		<g>
			<path class="st21" d="M140,860C62.8,860,0,922.8,0,1000c0,77.2,62.8,140,140,140c77.2,0,140-62.8,140-140
				C280,922.8,217.4,860,140,860z"/>
		</g>
	</g>
	<g>
		<path class="st1" d="M140,1096.3l-83.3-48.1v-96.3l83.3-48.1l83.3,48.1v96.3L140,1096.3z M84.7,1031.9l55.3,31.9l55.3-31.9v-63.9
			L140,936.1l-55.3,31.9V1031.9z"/>
	</g>
</g>
<g>
	<g>
		<g>
			<path class="st22" d="M913.3,860c-77.2,0-140,62.8-140,140c0,77.2,62.8,140,140,140s140-62.8,140-140
				C1053.3,922.8,990.6,860,913.3,860z"/>
		</g>
	</g>
	<g>
		<g>
			<path class="st1" d="M1003,933.5c0,0-54.2,108.7-74.2,148.5c-3.7,7.2-9.2,11.6-17.1,11.6c-7.7,0-13.1-4.2-16.6-11.2
				c-23.2-46.6-46.6-93.4-70-140.2c-3.3-6.8-1.5-9.4,6.1-9.6c9.2-0.2,18.2,0.2,27.3-0.2c5.2-0.2,8.3,1.8,10.5,6.1
				c14.9,29.5,29.5,58.8,44.2,88.2c0.9,1.8,1.5,3.9,2.6,5.7c2.8,5,6.8,8.5,12.9,8.5c5.9-0.2,9.4-3.7,11.8-8.8
				c8.5-17.1,49-98.4,49-98.4L1003,933.5z"/>
		</g>
	</g>
</g>
<g>
	<g>
		<g>
			<path class="st23" d="M2846.7,860c-77.2,0-140,62.8-140,140c0,77.2,62.8,140,140,140c77.2,0,140-62.8,140-140
				C2986.7,922.8,2923.9,860,2846.7,860z"/>
		</g>
	</g>
	<g>
		<g id="_x2F_" transform="translate(-40.000000, -31.000000)">
			<g id="bg" transform="translate(0.000000, -1.000000)">
				<g transform="translate(40.000000, 31.000000)">
					<g id="logo">
						<path id="Fill-1" class="st12" d="M2771.2,922.3l70.4,175l98-118.1l-34.8-32.6L2771.2,922.3z M2796.1,936.3l96.5,17.5
							l-37.4,30.8L2796.1,936.3z M2789.4,942.6l61.5,50.3l-9.6,78.5L2789.4,942.6z M2902.9,957.3l20.6,19.2l-56,10.1L2902.9,957.3z
							 M2859.8,997.3l61.9-11.2l-71.1,85.5L2859.8,997.3z"/>
					</g>
				</g>
			</g>
		</g>
	</g>
</g>
<g>
	<g>
		<path class="st24" d="M3233.4,280c-77,0-140-63-140-140.6c0.7-77,63-140,140.6-139.3c77,0.7,139.3,63,139.3,141.3
			C3372.7,217.6,3310.3,280,3233.4,280"/>
	</g>
	<g>
		<g>
			<path class="st1" d="M3296.4,228.1l-12.5,12.5h-101l-12.5-12.5V51.9l12.5-12.5h101l12.5,12.5V228.1z M3190.1,220.7h86.6V59.3
				h-86.6V220.7z"/>
		</g>
		<g>
			<polygon class="st1" points="3264.6,149.8 3243.6,149.8 3223.7,149.8 3202.1,149.8 3202.1,169.7 3223.7,169.7 3223.7,189.4 
				3243.6,189.4 3243.6,169.7 3264.6,169.7 			"/>
			<polygon class="st1" points="3202.1,130.2 3223.1,130.2 3243,130.2 3264.6,130.2 3264.6,110.3 3243,110.3 3243,90.6 3223.1,90.6 
				3223.1,110.3 3202.1,110.3 			"/>
		</g>
	</g>
</g>
<g>
	<g>
		<g>
			<path d="M3233.3,860c-77.2,0-140,62.8-140,140c0,77.2,62.8,140,140,140s140-62.8,140-140C3373.3,922.8,3310.8,860,3233.3,860z"/>
		</g>
	</g>
	<g>
		
			<linearGradient id="SVGID_00000176021501489273543900000010998252434150070156_" gradientUnits="userSpaceOnUse" x1="3310.665" y1="614.2488" x2="3205.8235" y2="413.435" gradientTransform="matrix(1 0 0 -1 0 1522)">
			<stop  offset="0" style="stop-color:#00FFA3"/>
			<stop  offset="1" style="stop-color:#DC1FFF"/>
		</linearGradient>
		<path style="fill:url(#SVGID_00000176021501489273543900000010998252434150070156_);" d="M3169.3,1039.2c1.2-1.2,2.7-1.8,4.4-1.8
			h151.5c2.8,0,4.1,3.3,2.2,5.3l-29.9,29.9c-1.2,1.2-2.7,1.8-4.4,1.8h-151.5c-2.8,0-4.1-3.3-2.2-5.3L3169.3,1039.2z"/>
		
			<linearGradient id="SVGID_00000157295812854538643770000006831422913215694772_" gradientUnits="userSpaceOnUse" x1="3264.8225" y1="638.1824" x2="3159.9812" y2="437.3685" gradientTransform="matrix(1 0 0 -1 0 1522)">
			<stop  offset="0" style="stop-color:#00FFA3"/>
			<stop  offset="1" style="stop-color:#DC1FFF"/>
		</linearGradient>
		<path style="fill:url(#SVGID_00000157295812854538643770000006831422913215694772_);" d="M3169.3,927.4c1.2-1.2,2.7-1.8,4.4-1.8
			h151.5c2.8,0,4.1,3.3,2.2,5.3l-29.9,29.9c-1.2,1.2-2.7,1.8-4.4,1.8h-151.5c-2.8,0-4.1-3.3-2.2-5.3L3169.3,927.4z"/>
		
			<linearGradient id="SVGID_00000152975148262515886390000009562179501466619051_" gradientUnits="userSpaceOnUse" x1="3287.5979" y1="626.2918" x2="3182.7566" y2="425.4785" gradientTransform="matrix(1 0 0 -1 0 1522)">
			<stop  offset="0" style="stop-color:#00FFA3"/>
			<stop  offset="1" style="stop-color:#DC1FFF"/>
		</linearGradient>
		<path style="fill:url(#SVGID_00000152975148262515886390000009562179501466619051_);" d="M3297.4,983c-1.2-1.2-2.7-1.8-4.4-1.8
			h-151.5c-2.8,0-4.1,3.3-2.2,5.3l29.9,29.9c1.2,1.2,2.7,1.8,4.4,1.8h151.5c2.8,0,4.1-3.3,2.2-5.3L3297.4,983z"/>
	</g>
</g>
<g>
	<path d="M913.3,380c-77.2,0-140,62.7-140,140c0,77.4,62.7,140,140,140s140-62.7,140-140S990.6,380,913.3,380z M851.5,447.4
		l40.1,39.6c5.8,5.7,13.7,8.9,21.8,8.9c8.2,0,16-3.2,21.8-8.9l40-39.6h25.3l-52.6,52.2c-9.2,9-21.6,14.1-34.5,14.1
		s-25.3-5.1-34.5-14.1l-52.6-52.2H851.5z M975.5,592.4l-40.3-39.9c-5.8-5.7-13.6-9-21.8-9c-8.2,0-16,3.2-21.8,9l-40.2,39.9h-25.4
		l53-52.5c9.2-9.1,21.6-14.1,34.5-14.1s25.3,5.1,34.5,14.1l53,52.5H975.5z"/>
</g>
<g>
	<path d="M2460,380c-77.2,0-140,62.7-140,140c0,77.2,62.7,140,140,140c77.2,0,140-62.7,140-140C2600,442.8,2537.2,380,2460,380z
		 M2460,419.5l61.7,61.5l-22.7,22.7l-39-39l-39,39.1l-22.7-22.9L2460,419.5z M2482.7,519.7l-22.7,22.7l-22.7-22.6l22.7-22.7
		L2482.7,519.7z M2359.4,520l22.7-22.7l22.6,22.7l-22.3,22.6L2359.4,520z M2460,620.3l-61.7-61.5l22.7-22.7l39,39l39-39.1l22.7,22.7
		L2460,620.3z M2537.9,542.7l-22.7-22.7l22.6-22.7l22.9,22.7L2537.9,542.7z"/>
</g>
<g>
	<path d="M1300,380c-77.2,0-140,62.7-140,140c0,77.2,62.7,140,140,140s140-62.8,140-140S1377.2,380,1300,380z M1194.4,525
		c-2.5-0.2-4.7-2.3-4.4-5.1c0.2-2.8,2.3-4.7,5.1-4.4c2.5,0.2,4.7,2.3,4.4,5C1199.3,523.1,1197.2,525,1194.4,525z M1380,466.6
		c3-1.5,6.7-0.2,8.3,2.8c1.5,3,0.2,6.7-2.8,8.3c-3,1.5-6.7,0.2-8.3-2.8C1375.7,471.7,1376.8,468.1,1380,466.6z M1359.5,486.2
		c2.1,4.2,0.5,9.5-3.8,11.7c-4.2,2.1-9.5,0.5-11.7-3.8c-2.1-4.2-0.5-9.5,3.8-11.7C1352.1,479.9,1357.3,481.7,1359.5,486.2z
		 M1349.7,520c0,8.3-6.6,14.9-14.9,14.9c-0.2,0-0.6,0-0.8,0c-8.3-0.5-14.4-7.4-14-15.7c0.4-8.3,7.4-14.4,15.7-14
		c4,0.2,7.6,1.9,10.2,4.9C1348.5,512.8,1349.7,516.2,1349.7,520z M1348.5,426c1.5-2.1,4.4-2.8,6.6-1.5c2.1,1.5,2.8,4.4,1.5,6.6
		c-1.5,2.1-4.4,2.8-6.6,1.5C1347.6,431.2,1347,428.3,1348.5,426z M1332.4,448.6c2.3-3.4,6.7-4.4,10.2-2.1c3.4,2.3,4.4,6.7,2.1,10.2
		c-2.3,3.4-6.7,4.4-10.2,2.1C1331.1,456.7,1330.3,452,1332.4,448.6z M1325.6,477.3c6.7,4.4,8.6,13.8,4.2,20.5
		c-4.4,6.7-13.8,8.6-20.5,4.2c-6.7-4.4-8.6-13.8-4.2-20.5c2.8-4.2,7.4-6.7,12.5-6.7C1320.3,474.9,1323.1,475.7,1325.6,477.3z
		 M1293.7,424.1c0.2-3.4,3.1-5.9,6.3-5.7c3.2,0.2,5.9,3.1,5.7,6.3c-0.2,3.4-3.1,5.9-6.3,5.7C1296,430.2,1293.4,427.6,1293.7,424.1z
		 M1300.4,451.4c4.9,0.2,8.5,4.4,8.3,9.1c-0.2,4.9-4.4,8.5-9.1,8.3c-4.9-0.2-8.5-4.4-8.3-9.1
		C1291.5,454.8,1295.6,451.2,1300.4,451.4z M1282.4,474.9c5.5,0,10.8,3.1,13.3,8c1.1,2.1,1.7,4.4,1.7,6.7c0,8.3-6.6,14.9-14.9,14.9
		c-5.5,0-10.8-3.1-13.3-8.3c-1.1-2.1-1.5-4.2-1.5-6.6C1267.6,481.7,1274.1,474.9,1282.4,474.9z M1280,520c0,8.3-6.6,14.9-14.9,14.9
		h-0.8c-8.3-0.5-14.5-7.5-14-15.7c0.5-7.8,7-14,14.9-14C1273.4,505.1,1280,511.7,1280,520z M1257.7,446.1c3.6-1.9,8-0.5,9.9,3.1
		c1.9,3.6,0.5,8-3.1,9.9c-3.6,1.9-8,0.5-9.9-3.4C1252.6,452.5,1254.1,448.1,1257.7,446.1z M1245,424.7c2.3-1.3,5.3-0.2,6.3,2.1
		c1.3,2.3,0.2,5.3-2.1,6.3c-2.3,1.3-5.3,0.2-6.3-2.1C1241.6,428.8,1242.7,425.8,1245,424.7z M1212,469c1.9-2.8,5.7-3.6,8.5-1.7
		c2.8,1.9,3.6,5.7,1.7,8.5c-1.9,2.8-5.7,3.6-8.5,1.7C1211,475.5,1210.2,472,1212,469z M1220.1,573.2c-3,1.5-6.7,0.2-8.3-2.8
		c-1.5-3-0.2-6.7,2.8-8.3c3-1.5,6.7-0.2,8.3,2.8C1224.3,568.2,1223,571.8,1220.1,573.2z M1229.7,520.6c-0.2,4-3.8,7.2-7.8,7
		c-4-0.2-7.2-3.8-7-7.8c0.2-4,3.8-7.2,7.8-7C1226.7,513,1229.9,516.6,1229.7,520.6z M1240.7,485.4c2.5-4,8-5,12.1-2.5
		c4,2.5,5.1,8,2.5,12.1c-2.5,4-8,5.1-12.1,2.5C1239.2,494.8,1238.2,489.5,1240.7,485.4z M1240.5,553.8c-2.1-4.2-0.5-9.5,3.8-11.7
		c4.2-2.1,9.5-0.5,11.7,3.8c2.1,4.2,0.5,9.5-3.8,11.7C1247.9,559.9,1242.7,558.2,1240.5,553.8z M1251.5,614
		c-1.5,2.1-4.4,2.8-6.6,1.5c-2.1-1.5-2.8-4.4-1.5-6.6c1.5-2.1,4.4-2.8,6.6-1.5C1252.4,608.6,1253,611.6,1251.5,614z M1267.6,591.2
		c-2.3,3.4-6.7,4.4-10.2,2.1c-3.4-2.3-4.4-6.7-2.1-10.2c2.3-3.4,6.7-4.4,10.2-2.1C1268.9,583.2,1269.7,587.9,1267.6,591.2z
		 M1274.4,562.7c-6.7-4.4-8.6-13.8-4.2-20.5c4.4-6.7,13.8-8.6,20.5-4.2c6.7,4.4,8.6,13.8,4.2,20.5c-2.8,4.2-7.4,6.7-12.5,6.7
		C1279.7,565,1276.9,564.3,1274.4,562.7z M1305.5,615.8c0,3.4-3,6-6.3,5.7c-3.4-0.2-5.9-3.1-5.7-6.3c0.2-3.4,3.1-5.9,6.3-5.7
		C1303.1,609.7,1305.7,612.6,1305.5,615.8z M1298.9,588.6c-4.9-0.2-8.5-4.4-8.3-9.3c0.2-4.9,4.4-8.5,9.3-8.3
		c4.9,0.5,8.5,4.4,8.3,9.3C1308,585.2,1303.8,588.7,1298.9,588.6z M1324.1,563.3c-2.1,1.1-4.4,1.7-6.7,1.7c-5.5,0-10.8-3.1-13.3-8
		c-3.6-7.4-0.8-16.3,6.6-19.9c7.4-3.6,16.3-0.8,19.9,6.6C1334.5,550.8,1331.5,559.7,1324.1,563.3z M1342.4,593.8
		c-3.6,1.9-8,0.5-9.9-3.1c-1.9-3.6-0.5-8,3.1-9.9c3.6-1.9,8-0.5,9.9,3.1C1347.4,587.4,1346,591.9,1342.4,593.8z M1355,615.2
		c-2.3,1.3-5.3,0.2-6.3-2.1c-1.1-2.3-0.2-5.3,2.1-6.3c2.3-1.3,5.3-0.2,6.3,2.1C1358.2,611.1,1357.3,614.1,1355,615.2z M1359.3,554.4
		c-2.5,4-8,5.1-12.1,2.5c-4-2.5-5-8-2.5-12.1c2.5-4,8-5.1,12.1-2.5C1360.7,545.1,1361.8,550.4,1359.3,554.4z M1370.2,519.3
		c0.2-4,3.8-7.2,7.8-7c4,0.2,7.2,3.8,7,7.8c-0.2,4-3.8,7.2-7.8,7C1373.2,526.9,1370,523.5,1370.2,519.3z M1388,570.9
		c-1.9,2.8-5.7,3.6-8.5,1.7c-2.8-1.9-3.6-5.7-1.7-8.5c2-2.7,5.7-3.6,8.5-1.7C1389.1,564.4,1389.8,568,1388,570.9z M1405.6,515.1
		c2.5,0.2,4.7,2.3,4.4,5c-0.2,2.5-2.3,4.4-5.1,4.4c-2.5-0.2-4.7-2.3-4.4-5C1400.8,517,1402.8,514.9,1405.6,515.1z"/>
</g>
<g>
	<path d="M526.6,380c-77.2,0-140,62.7-140,140s62.7,140,140,140s140-62.7,140-140S603.8,380,526.6,380z M528.1,602.6h-60.9v-73.2
		h-20.6v-18.6h20.6v-73.3h60.9c49.6,0,78.6,29.5,78.6,81.9C606.7,571.9,577.7,602.6,528.1,602.6z"/>
	<path d="M524.1,467.4h-22.3v43.3h33.6v18.6h-33.6v43.3h22.3c31,0,47.7-18.3,47.7-53.1C571.8,485.9,554.7,467.4,524.1,467.4z"/>
</g>
<g>
	<path d="M-246.7,380c-77.3,0-140,62.7-140,139.9s62.7,140,140,140s139.9-62.7,139.9-140S-169.4,380-246.7,380z M-172.5,500.4
		c-1.7,8-5.4,13.9-10.8,17.9c-5.5,3.9-13.3,6.1-23.2,6.4c10.6,4.6,18,10.4,22.3,17.4c4.2,7,5.3,15.4,3.4,25
		c-2.9,13.5-9.5,22.1-19.8,25.8c-8.8,3.2-21.8,3.4-38.8,0.5l-5.5,25.9l-17.1-3.6l5.4-25.7l-15-3.2l-5.4,25.7l-17.1-3.6l5.4-25.7
		l-33.1-7l3.3-15.5l8,1.7c6,1.3,9.9,1.4,11.7,0.2c1.8-1.1,3.3-4.5,4.5-10l17.1-80.6c1.2-5.6,1.2-9.2,0-11c-1.2-1.7-4.7-3.2-10.8-4.5
		l-8-1.7l3.3-15.4l33.1,7.1l5.4-25.7l17.1,3.6l-5.4,25.7l15,3.2l5.4-25.7l17.1,3.6l-5.5,25.8c14.3,3.7,24.6,8.7,30.9,15.2
		C-172.4,479.4-170,488.9-172.5,500.4z"/>
	<path d="M-226.1,469.7l-19.7-4.2l-9.1,42.6l17.5,3.7c11.1,2.4,19.4,2.4,24.9,0.1c5.5-2.3,9-7.2,10.6-14.8
		c1.6-7.5,0.6-13.5-3.1-17.7C-208.6,475.1-215.8,471.9-226.1,469.7z"/>
	<path d="M-239.6,527.8l-18.7-4l-10.2,47.8l20.5,4.3c11.7,2.5,20.4,2.4,26.2-0.2c5.8-2.7,9.6-8.3,11.4-16.9
		c1.9-8.7,0.6-15.2-3.8-19.9C-218.5,534.2-227,530.5-239.6,527.8z"/>
</g>
<path d="M140,380C62.8,380,0,442.8,0,520s62.8,140,140,140c77.2,0,140-62.8,140-140S217.2,380,140,380z M139.8,407.6l69.1,113.9
	l-70.4,40.2l-67.8-40.5L139.8,407.6z M139.8,632.4L67.1,531.8l71.1,42.4l74.1-42.6L139.8,632.4z"/>
<g>
	<path d="M2828.1,557.4c0.7,9.4,1.5,17.9,2.8,25.6c4.2,0.4,7,3.9,7,7.9c0,3.1-1.5,5.5-3.9,7c4.2,16.8,8.7,26,12.7,26
		c6.3,0,14.9-24.5,17.7-66.5c-5.9-2.8-12-6.1-18.2-9.4C2840.3,551.3,2834,554.6,2828.1,557.4z"/>
	<path d="M2841.4,545.2c-2.4-1.3-4.8-2.4-6.8-3.9c-2.6-1.5-4.8-2.6-7.2-4.2c0,5.2,0.2,10.3,0.7,15.1
		C2832.5,550,2836.8,547.8,2841.4,545.2z"/>
	<path d="M2841,494.4c-4.4-2.6-9-4.8-13.3-7c-0.2,4.8-0.4,9.8-0.7,15.1c2.6-1.3,4.8-2.8,6.8-4.2C2836.2,497,2838.6,495.7,2841,494.4
		z"/>
	<path d="M2864.8,481.9c-3.3-41.8-11.6-66.3-18.2-66.3c-6.6,0-15.1,24.5-18.2,66.3c5.7,2.8,12,6.1,18.2,9.4
		C2852.6,488.1,2858.7,484.8,2864.8,481.9z"/>
	<path d="M2888.5,516.5c11.6-7.9,21.7-15.5,29.7-23c16.2-14.7,20.3-23.2,18.6-26c-2-3.3-12.2-2.6-28.4,2.2c0,4.4-3.5,7.9-7.9,7.9
		c-2.6,0-4.6-1.1-6.1-2.8c-7.2,2.6-15.5,6.1-24.3,10.3c0.7,6.6,0.9,13.6,1.1,20.3C2877.1,509.1,2883,512.8,2888.5,516.5z"/>
	<path d="M2858.7,498.3c2.6,1.5,4.8,2.6,7.2,4.2c0-5.2-0.2-10.3-0.7-15.1c-4.2,2.2-8.7,4.4-13.3,7
		C2854.1,495.7,2856.8,496.8,2858.7,498.3z"/>
	<path d="M2852.2,545.2c4.6,2.6,9,4.8,13.3,7c0.2-4.8,0.4-9.8,0.7-15.1c-2.6,1.3-4.8,2.6-6.8,4.2
		C2857,542.5,2854.6,543.8,2852.2,545.2z"/>
	<path d="M2856.5,502.7c-3.3-2-6.6-3.5-9.8-5.5c-3.1,1.7-6.6,3.5-9.8,5.5c-3.3,2-6.6,3.7-9.6,5.7c-0.2,3.7-0.2,7.7-0.2,11.4
		c0,3.7,0.2,7.7,0.2,11.4c3.1,2,6.3,3.7,9.6,5.7c3.3,2,6.8,3.7,9.8,5.5c3.3-1.7,6.6-3.5,9.8-5.5c3.3-2,6.3-3.7,9.6-5.5
		c0.2-3.7,0.2-7.7,0.2-11.4c0-3.9-0.2-7.7-0.2-11.4C2863.1,506.4,2859.8,504.7,2856.5,502.7z M2846.7,532.9
		c-7.2,0-13.1-5.9-13.1-13.1c0-7.2,5.9-13.1,13.1-13.1c7.2,0,13.1,5.9,13.1,13.1C2859.8,527,2853.9,532.9,2846.7,532.9z"/>
	<path d="M2821.8,511.7c-4.8,2.6-9,5.5-12.9,8.1c4.2,2.6,8.5,5.5,12.9,8.1c0-2.6,0-5.2,0-8.1
		C2821.8,517.2,2821.8,514.3,2821.8,511.7z"/>
	<path d="M2763.8,466c-4.2,0-6.3,0.9-7,2.2c-2,3.3,3.7,12,16.4,23.8c1.3-0.9,2.6-1.3,4.4-1.3c4.4,0,7.9,3.5,7.9,7.9
		c0,1.1-0.4,2.2-0.9,3.3c5.7,4.6,12.5,9.6,20.3,15.3c5.5-3.7,11.4-7.7,17.3-11.2c0.2-7,0.7-13.8,1.1-20.6
		c-12.2-5.9-24.1-10.9-34.6-14.2C2776.9,467.5,2769.1,466,2763.8,466z"/>
	<path d="M2846.7,380c-77.2,0-140,62.8-140,140s62.8,140,140,140s140-62.8,140-140S2924.1,380,2846.7,380z M2941.8,574.9
		c-1.7,3.1-5.9,4.6-11.6,4.6c-13.6,0-35.9-7.4-59.9-19c-3.3,38.3-10.9,69.1-23.2,69.1c-7.7,0-13.6-12-17.7-30.2
		c-3.9-0.4-6.8-3.9-6.8-7.9c0-3.1,1.5-5.5,3.9-7c-0.9-7.4-2-15.7-2.6-24.3c-12.2,5.7-23.6,10.3-33.7,13.6
		c-11.4,3.5-20.1,5.5-26.5,5.5c-5.9,0-9.8-1.5-11.6-4.6c-6.1-10.5,16.8-32.8,48.1-54.7c-7-4.8-13.6-9.6-19.5-14.4
		c-0.9,0.4-2.2,0.9-3.5,0.9c-4.4,0-7.9-3.5-7.9-7.9c0-0.9,0.2-1.7,0.4-2.6c-14-12.7-21.4-24.1-17.7-30.6c3.5-6.6,16.4-6.3,37.6,0.7
		c10.3,3.5,21.7,8.1,33.7,13.8c3.3-38.3,11.2-69.1,23.2-69.1c12,0,19.9,30.8,23,69.1c8.1-3.7,15.5-7.2,23-9.8v-0.2
		c0-4.4,3.5-7.9,7.9-7.9c2.6,0,4.8,1.1,6.3,3.1c17.3-5.5,30.4-6.3,34.1,0.2c3.7,6.6-2.8,17.5-19.7,32.4
		c-8.1,7.2-17.7,14.7-28.6,22.3c10.9,7.7,20.8,15.1,28.6,22.3C2938.3,557,2944.9,567.9,2941.8,574.9z"/>
	<path d="M2918.2,545.6c-8.1-7.4-18.4-15.1-29.7-23c-5.5,3.7-11.2,7.4-17.3,11.2c-0.2,7-0.7,13.8-1.1,20.6
		c38.1,18.2,63.6,23.2,66.7,17.5C2938.5,569,2934.6,560.5,2918.2,545.6z"/>
	<path d="M2804.9,522.6c-34.6,24.1-51.4,43.5-48.3,49.2c1.7,3.1,10.9,3.9,31.9-3.1c10.3-3.5,22.1-8.3,34.8-14.4
		c-0.7-6.8-0.9-13.6-1.1-20.6C2816.3,530.3,2810.6,526.3,2804.9,522.6z"/>
	<path d="M2871.2,527.9c4.6-2.6,9-5.5,12.9-8.1c-4.4-2.6-8.5-5.5-12.9-8.1c0.2,2.6,0.2,5.5,0,8.1
		C2871.2,522.4,2871.2,525.2,2871.2,527.9z"/>
</g>
<g>
	<path d="M2073.3,380c-77.2,0-140,62.8-140,140s62.8,140,140,140c77.2,0,140-62.8,140-140S2150.5,380,2073.3,380z M2088.1,604.7v0.6
		v0.2c-1.6,6.3-7.9,10.2-14.2,8.7h-0.4c-6.5-1.6-10.4-7.7-9.1-14.2v-0.2c1.4-6.5,7.7-10.6,14.2-9.3
		C2085.2,592.1,2089.3,598.4,2088.1,604.7z M2079.7,568.1c0,0-9.3,0.6-11.4,1c-10.6,1.6-19.1,9.7-21.3,20.1c0,0-2.8,14-3,15.2
		c0,0,0,0.2,0,0.4v0.4c-1.4,5.1-6.5,8.3-11.6,6.9h-0.6h-0.2c-5.1-1.4-8.3-6.5-6.9-11.6c0-1,22.5-105,22.5-105
		c1.2-5.1,6.7-8.7,11.8-7.5s8.7,6.5,7.5,11.8l-9.5,42.6l-1.6,8.5c-0.2,0.2-0.2,0.6,0,0.8c0.2,0.2,0.8,0.2,1,0c2-0.6,3.5-1,5.5-1.2
		c5.1-0.6,15.2-1.2,15.2-1.2c26.8-1.4,47.7-23.2,48.5-50c0.8-28.4-21.5-52.2-50-53.2c-28.4-0.8-52.2,21.5-53.2,50
		c-0.2,6.3,0.6,12.4,2.8,18.3c1.6,5.1-1,10.4-6.1,12.4c-5.3,1.6-10.6-1.2-12.6-6.3c-2.4-7.5-3.7-15.4-3.7-23.2
		c0.2-39.6,32.1-71.5,71.7-71.7c36.1,1,65.8,28.6,69.5,64.2C2147.8,529.1,2119.1,564.1,2079.7,568.1z"/>
</g>
<g>
	<path d="M1670.7,500.1c-3.1-2-7.9-0.2-7.9,2.6c0,1.5,2.4,3.1,4.8,3.1c1.3-0.2,3.5-1.1,4.2-2C1672.7,502.5,1672.2,501,1670.7,500.1z
		"/>
	<path d="M1686.7,380c-77.2,0-140,62.8-140,140s62.8,140,140,140s140-62.8,140-140S1763.9,380,1686.7,380z M1724.1,455.3
		c0.2-0.2,7,1.7,9.6,2.8c3.9,1.5,4.8,1.7,5.2,1.5c0.7,0,0.7-0.9,0.9-3.7c0.2-4.4,0.9-7.2,2-9.8c0.4-1.1,0.9-2,0.9-2
		s-0.2,0.7-0.4,1.7c-0.9,2.6-1.1,5.9-0.4,10.1c0.7,5,1.1,5.9,6.6,11.4c2.6,2.6,5.5,5.9,6.6,7.2l2,2.6l-2-1.7
		c-2.4-2.2-7.9-6.6-9.2-7.2c-0.9-0.4-0.9-0.4-1.5,0c-0.4,0.4-0.7,1.1-0.7,4.4c0,5-0.9,8.3-2.4,11.6c-0.9,1.7-1.1,1.3-0.2-0.7
		c0.7-1.5,0.7-2.2,0.7-7c0-9.8-1.1-12.2-8.1-16.4c-1.7-1.1-4.6-2.6-6.3-3.3C1725.4,455.9,1723.8,455.3,1724.1,455.3z M1653.2,440.8
		c2.2-0.4,7.2,0.2,10.7,0.9c8.3,2,15.7,7,23.6,15.7l2.2,2.4l3.1-0.4c12.7-2,25.8-0.4,36.5,4.6c3.1,1.3,7.7,4.2,8.3,4.8
		c0.2,0.2,0.4,1.7,0.7,3.3c0.9,5.2,0.4,9.4-1.3,12.5c-0.9,1.7-0.9,2.2-0.4,3.5c0.4,1.1,1.7,2,3.1,2c2.6,0,5.7-4.4,7-10.3l0.4-2.4
		l1.1,1.1c5.9,6.6,10.3,15.5,11.2,21.9l0.2,1.7l-0.7-1.7c-1.7-2.6-3.3-4.4-5.5-5.7c-3.9-2.6-8.1-3.5-19-3.9
		c-9.8-0.4-15.5-1.3-21-3.1c-9.4-3.1-14.2-7-25.4-21.7c-5-6.6-8.1-10.1-11.2-12.9c-6.8-6.8-13.6-10.3-22.3-11.6
		C1652.1,441,1652.1,441,1653.2,440.8z M1717.9,526.1c-0.2-1.7-0.9-3.9-1.1-4.8l-0.7-1.7l1.1,1.1c1.5,1.7,2.6,3.7,3.7,6.6
		c0.7,2.2,0.9,2.8,0.9,6.3c0,3.5,0,4.2-0.9,6.1c-1.1,3.1-2.4,5.2-4.8,7.7c-4.2,4.2-9.4,6.6-17.3,7.4c-1.3,0.2-5.2,0.4-8.7,0.7
		c-8.7,0.4-14.4,1.3-19.5,3.1c-0.7,0.2-1.3,0.4-1.5,0.4c-0.2-0.2,3.3-2.2,6.1-3.7c4.2-2,8.1-3.1,17.1-4.6c4.4-0.7,9-1.5,10.3-2
		C1714.2,545.6,1719.9,536.8,1717.9,526.1z M1664.4,513c-3.3,0-4.4-0.4-5.7-2c-0.7-1.1-0.9-4.4-0.4-6.1c0.7-3.1,3.3-5.9,6.1-6.8
		c1.7-0.4,5.5-0.2,7,0.7c3.3,1.5,5.7,5.5,5.2,8.1C1676,510.4,1670.7,513,1664.4,513z M1651.9,448.5l0.2-2.4l1.1,0.2
		c2,0.4,5.7,1.7,7.4,2.6c4.6,2.8,6.6,6.3,8.5,15.7c0.7,2.8,1.3,5.9,1.7,7c0.7,1.7,2.8,5.7,4.6,8.3c1.3,1.7,0.4,2.6-2.4,2.4
		c-4.4-0.4-10.1-4.4-14-9.4C1654.3,466.4,1651.2,456.1,1651.9,448.5z M1615.4,583.6c0-1.1-1.5-4.2-4.2-8.3
		c-3.1-4.8-4.4-7.2-5.5-10.7c-1.3-4.2-1.7-6.8-1.5-11.2c0.2-4.2,0.7-5.9,2.2-9.2c1.3-2.6,2.2-3.7,7.2-10.1
		c8.7-10.9,12-17.3,13.1-26.2c0.9-8.1,2.4-11.8,5.5-15.3c1.7-2.2,2.2-2.8,2.2-4.4c0-0.9,1.7-2.6-0.4-7.9c-14-24.9-14-24.9-13.6-24.5
		c0.2,0,6.8,10.1,14.4,21.9c5.5,9.8,6.1,9.6,7.2,10.7c0,0,0.4,0.7,2.4,0.7c1.7,0,5-0.9,6.6-1.7c2.8-1.7,3.5-3.7,1.7-6.1
		c-2.2-2.8-20.6-16.2-47.2-48.3c-2.2-2.6-3.9-4.8-3.7-4.8c0.2,0,52.1,44.6,58,51l1.5,1.7l-0.2,2.6c-0.2,3.5-1.3,5.9-3.9,8.3
		c-3.1,2.8-6.8,4.2-12.7,5c-3.5,0.4-4.8,1.1-6.3,2.6c-1.5,1.5-2,3.5-2.4,8.3c-0.7,7.4-1.5,10.5-5,17.9c-3.5,7-4.2,9.8-3.5,13.6
		c0.9,4.6,3.5,8.1,9.6,12.2c4.8,3.1,7,5.2,8.1,7.7c0.9,1.5,0.9,2.2,0.9,4.8c0,4.2-0.7,5.7-3.5,8.7c-4.6,4.8-12.7,8.7-22.5,10.9
		C1615.6,584.5,1615.4,584.5,1615.4,583.6z M1724.9,610.1c-2.8,1.5-5.2,2-8.3,2c-5.5,0-10.1-2.8-14-8.5c-0.7-1.1-2.4-4.6-3.7-7.4
		c-4.2-9.2-6.1-12-10.7-15.1c-4.2-2.6-9.4-3.1-13.3-1.3c-5.2,2.6-6.8,9.2-2.8,13.3c1.5,1.7,4.2,3.1,6.6,3.3c4.2,0.4,7.9-2.6,7.9-7
		c0-2.8-1.1-4.4-3.7-5.5c-3.7-1.7-7.7,0.2-7.7,3.7c0,1.5,0.7,2.4,2.2,3.1c0.9,0.4,0.9,0.4,0.2,0.2c-3.3-0.7-4.2-4.8-1.5-7.4
		c3.3-3.3,10.1-1.7,12.2,2.6c0.9,1.7,1.1,5.5,0.2,7.7c-2,5-7.4,7.7-12.9,6.1c-3.7-0.9-5.5-2-10.1-6.8c-8.1-8.1-11.2-9.8-22.5-11.6
		l-2.2-0.4l2.4-1.7c8.5-7,18.8-12,28.4-13.6c4.2-0.7,10.9-0.4,14.9,0.7c6.1,1.5,11.6,5,14.4,9.2s3.9,7.7,5.2,15.5
		c0.4,3.1,1.1,6.1,1.1,7c0.9,4.2,2.8,7.4,5,9c3.5,2.6,9.6,2.8,15.7,0.4c1.1-0.4,2-0.7,2-0.7C1730.2,607,1727.1,609,1724.9,610.1z
		 M1763.9,573.1c-2.4,9.6-8.3,17.3-16.6,21.9c-1.3,0.7-2.4,1.1-2.4,1.1c-0.2,0,0.2-1.1,0.9-2.4c2.8-5.7,3.1-11.4,1.1-17.7
		c-1.3-3.9-3.9-8.5-9.2-16.4c-6.1-9.4-7.7-11.8-9.2-15.1c-3.1-6.3-3.7-12.7-2-18.4c0.2-0.7,0.4-1.1,0.7-1.1c0.2,0,0.9,0.4,1.5,0.9
		c1.3,0.9,4.2,2.4,11.6,6.6c9.2,5,14.7,9,18.2,13.3c3.1,3.9,5,8.3,6.1,13.8C1765,562.6,1764.7,570.1,1763.9,573.1z M1770.9,541.7
		c-0.7,2.8-3.1,8.1-3.7,8.3c-0.2,0-0.4-0.7-0.4-1.5c-0.2-4.8-2.6-9.4-6.8-12.9c-4.6-3.9-10.9-7.2-26-13.1
		c-22.7-9.2-30.6-17.1-30.6-30.4c0-2,0-3.5,0.2-3.5c0,0,0.9,0.7,2,1.5c4.6,3.7,9.8,5.2,24.1,7.2c8.3,1.3,13.1,2.2,17.5,3.7
		c13.8,4.6,22.5,13.8,24.5,26.5C1772.2,531.2,1771.7,537.9,1770.9,541.7z"/>
	<path d="M1616.5,551.9c-2-1.3-4.8-0.7-4.8,0.9c0,0.4,0.2,0.9,0.9,1.1c1.1,0.4,1.1,1.1,0.2,2.4c-0.9,1.3-0.9,2.4,0.2,3.1
		c1.7,1.3,3.9,0.7,5-1.3C1619.3,555.9,1618.7,553.2,1616.5,551.9z"/>
</g>
<g>
	<path d="M3190.1,600.7h86.6V439.3h-86.6V600.7z M3202.1,490.3h21v-19.7h19.9v19.7h21.7v19.9H3243h-19.9h-21V490.3z M3202.1,529.8
		h21.7h19.9h21v19.9h-21v19.7h-19.9v-19.7h-21.7V529.8z"/>
	<path d="M3234,380c-77.6-0.7-140,62.3-140.6,139.3c0,77.6,63,140.6,140,140.6s139.3-62.3,140-138.7C3373.3,443,3311,380.7,3234,380
		z M3296.4,608.1l-12.5,12.5h-101l-12.5-12.5V431.9l12.5-12.5h101l12.5,12.5V608.1z"/>
</g>
<g>
	<path d="M-246.7,1240c-77.3,0-140,62.7-140,140c0,77.3,62.7,140,140,140c77.3,0,140-62.7,140-140
		C-106.7,1302.7-169.4,1240-246.7,1240z M-178.9,1449.9h-129.6l13.3-49.7l-18.8,6.9l6.2-23.4l18.8-6.9l22.5-84.4h48.7l-17.2,64.6
		l23.8-8.7l0.2,0.6l-6.1,22.6l-24.2,8.8l-10.2,38.5h80.9L-178.9,1449.9z"/>
</g>
<g>
	<path d="M526.7,1240c-77.2,0-140,62.8-140,140s62.8,140,140,140c77.2,0,140-62.8,140-140S603.9,1240,526.7,1240z M618.3,1357.1
		l-6.8,3.5c-5.1,2.4-8.1,7.9-7.6,13.5c0.2,2,0.2,4,0.2,5.9c0,16.4-5.3,32.4-14.9,45.7c-25.1,34.8-73.8,42.4-108.5,17.2l13.8-7
		l0.9-0.5c9.4,5.3,20.1,8.1,31.1,8.1c35.2,0,63.7-28.4,63.7-63.7c0-2.9,0-5.4-0.5-8.3l-107,54.4l-22.1,11.4l-25.8,13.1v-16
		l26.1-13.1l12.7-6.5l144.8-73.8v-0.2h0.2l-0.2,0.2C618.3,1341.2,618.3,1357.1,618.3,1357.1z M618.7,1325.3l-26.2,13.3l-12.7,6.4
		l-112.7,57.3l-6.4,3.2l-6.4,3.2l-19.7,10v-16l6.8-3.2c5.1-2.4,8.1-7.9,7.6-13.5c-0.2-2-0.2-4-0.2-5.9c0-16.4,5.3-32.4,14.9-45.7
		c25.1-34.8,73.8-42.4,108.5-17.2l-2,0.9l-12.7,6.4c-9.4-5.2-19.9-8.1-30.8-8.1c-35.2,0-63.7,28.4-63.7,63.7c0,2.9,0,5.4,0.5,8.3
		l106.7-54.4l22.1-11.1l26.2-13.3L618.7,1325.3z"/>
</g>
<g>
	<polygon points="2467.7,1468.8 2521.7,1437.8 2505.1,1361.6 	"/>
	<path d="M2460,1240c-77.2,0-140,62.8-140,140s62.8,140,140,140s140-62.8,140-140S2537.2,1240,2460,1240z M2460,1485l-73.5-42.4
		l21.9-100l51.6-67.6l51.6,67.6l21.7,100.2L2460,1485z"/>
	<polygon points="2398.5,1437.8 2452.6,1468.8 2415.2,1361.6 	"/>
	<polygon points="2460,1292.1 2420.2,1344.3 2460,1458.5 2499.8,1344.3 	"/>
</g>
<g>
	<path d="M1687.3,1240c-77.7-0.7-140,62.3-140.7,139.3c0,77.7,63,140.7,140,140.7c77,0,139.3-62.3,140-138.7
		C1826.7,1303,1764.3,1240.7,1687.3,1240z M1752.2,1304.2c-2.7,2.1-6.2,1.4-9.1-1.4c-2.1-2.1-3.5-4.1-5.6-6.2
		c-4.1-5.6-10.5-6.2-15.3-1.4c-3.5,3.5-7,8.2-9.1,13.2c-4.9,14.6-8.2,29.9-13.2,45.1l38.1,5.4l-2.7,10.5l-36.9-5.6l-4.1,22.3
		l39.6,5.6l-2.7,10.5l-39-5.6c-2.7,9.1-4.1,18.8-7.6,27c-3.5,9.7-7,19.4-11.1,28.4c-5.6,11.7-15.3,20.2-28.4,22.3
		c-7.6,1.4-16.1,0.6-22.3-4.1c-2.1-1.4-4.1-4.1-4.1-6.2c0-3.3,0.2-4.9,2.5-7c2.1-1.9,4.9-1.9,7.8,0c2.9,1.6,4.1,4.9,5.6,7.6
		c4.1,5.6,9.7,6.2,15.3,2.1c6.2-5.6,9.7-13.2,11.7-20.8c4.1-16.7,8.2-32.6,11.7-49.3v-2.7l-36.9-5.6l1.4-10.5l38.3,5.4l4.9-21.4
		l-39.6-6.2l1.4-11.1l41,5.6c1.4-4.1,2.1-7.6,3.5-11.1c3.5-12.6,7-24.9,15.3-36.1c8.2-11.1,18.1-18.1,32.6-17.3
		c6.2,0,12.6,2.1,16.7,7c0.6,0.6,1.6,2.1,2.1,3.5C1755.1,1298.4,1755.5,1301.5,1752.2,1304.2z"/>
</g>
<g>
	<path d="M2073.4,1240c-77.2,0-140,62.8-140,140c0,15.5,2.4,30.4,7,44.2h41.8v-117.7l91.2,91l91-91v117.7h41.8c4.6-14,7-28.7,7-44.2
		C2213.7,1302.8,2150.7,1240,2073.4,1240z"/>
	<path d="M2134,1378.7l-60.6,60.6l-60.6-60.6v74.2h-59.1c24.5,40.2,68.9,67.2,119.7,67.2s95.2-26.9,119.7-67.4H2134V1378.7z"/>
</g>
<g>
	<polygon points="84.7,1348.1 84.7,1411.9 140,1443.9 195.3,1411.9 195.3,1348.1 140,1316.1 	"/>
	<path d="M140,1240c-77.2,0-140,62.8-140,140s62.8,140,140,140c77.2,0,140-62.8,140-140S217.4,1240,140,1240z M223.3,1428.1
		l-83.3,48.1l-83.3-48.1v-96.2l83.3-48.1l83.3,48.1V1428.1z"/>
</g>
<g>
	<path d="M913.3,1240c-77.2,0-140,62.8-140,140c0,77.2,62.8,140,140,140s140-62.8,140-140C1053.3,1302.8,990.6,1240,913.3,1240z
		 M928.9,1462c-3.7,7.2-9.2,11.6-17.1,11.6c-7.7,0-13.1-4.2-16.6-11.2c-23.2-46.6-46.6-93.4-70-140.2c-3.3-6.8-1.5-9.4,6.1-9.6
		c9.2-0.2,18.2,0.2,27.3-0.2c5.2-0.2,8.3,1.8,10.5,6.1c14.9,29.5,29.5,58.8,44.2,88.2c0.9,1.8,1.5,3.9,2.6,5.7
		c2.8,5,6.8,8.5,12.9,8.5c5.9-0.2,9.4-3.7,11.8-8.8c8.5-17.1,49-98.4,49-98.4l13.3-0.2C1003,1313.5,948.8,1422.2,928.9,1462z"/>
</g>
<g>
	<polygon points="2892.6,1332.8 2796.1,1315.3 2855.2,1363.6 	"/>
	<path d="M2846.7,1240c-77.2,0-140,62.8-140,140s62.8,140,140,140c77.2,0,140-62.8,140-140S2923.9,1240,2846.7,1240z M2841.6,1476.3
		l-70.4-175l133.7,24.3l34.8,32.6L2841.6,1476.3z"/>
	<polygon points="2867.4,1365.6 2923.4,1355.5 2902.9,1336.3 	"/>
	<polygon points="2789.4,1321.6 2841.2,1450.4 2850.8,1371.9 	"/>
	<polygon points="2850.6,1450.7 2921.7,1365.1 2859.8,1376.3 	"/>
</g>
<path d="M3233.3,1240c-77.2,0-140,62.8-140,140s62.8,140,140,140s140-62.8,140-140S3310.8,1240,3233.3,1240z M3327.3,1422.7
	l-29.9,29.9c-1.2,1.2-2.7,1.8-4.4,1.8h-151.5c-2.8,0-4.1-3.3-2.2-5.3l29.9-29.9c1.2-1.2,2.7-1.8,4.4-1.8h151.5
	C3327.9,1417.4,3329.3,1420.7,3327.3,1422.7z M3325.1,1398.2h-151.5c-1.6,0-3.2-0.7-4.4-1.8l-29.9-29.9c-2-2-0.6-5.3,2.2-5.3H3293
	c1.6,0,3.2,0.7,4.4,1.8l29.9,29.9C3329.3,1394.8,3327.9,1398.2,3325.1,1398.2z M3327.3,1310.9l-29.9,29.9c-1.2,1.2-2.7,1.8-4.4,1.8
	h-151.5c-2.8,0-4.1-3.3-2.2-5.3l29.9-29.9c1.2-1.2,2.7-1.8,4.4-1.8h151.5C3327.9,1305.6,3329.3,1309,3327.3,1310.9z"/>
<g>
	<path d="M1269.6,1362.7c-2.4-2.2-11.2-9.4-21.9-13.6c-0.7,0-1.3-0.2-1.8-0.2c-16.8,0.2-30.6,14-30.6,31.1s13.8,31.1,30.6,31.1
		c4.4,0,12.2-2.4,24.3-13.1c6.6-5.9,12-12.5,16-17.3C1286.4,1380.4,1278.1,1371,1269.6,1362.7z"/>
	<path d="M1354,1349.2c-4.6,0-12.2,2.2-24.3,13.1c-6.6,5.9-12,12.2-16,17.1c0.2,0.2,8.3,9.6,16.8,17.7c2.4,2.4,11.6,9.6,22.5,13.8
		c0.2,0,0.7,0,0.9,0c16.8-0.2,30.6-14,30.6-31.1C1384.7,1362.9,1370.9,1349.2,1354,1349.2z"/>
	<path d="M1300,1240c-77.2,0-140,62.8-140,140s62.8,140,140,140c77.2,0,140-62.8,140-140S1377.2,1240,1300,1240z M1403.2,1393.3
		c-5.9,21.9-25.6,38.1-49,38.1c-19.5,0-39.2-18.8-53.8-35.7c-4.2,5-9.8,11.4-16.2,17.1c-13.6,12.2-26.2,18.6-38.1,18.6
		c-28.4,0-51.2-23-51.2-51.6c0-4.2,0.4-8.1,1.3-12c0-0.2,0.4-1.3,0.9-2.6c6.3-21.2,25.8-36.8,48.8-36.8c19.5,0,39.2,18.8,53.8,35.7
		l0,0l0,0c4.2-5,9.6-11.2,16-17.1c13.6-12.2,26.2-18.6,38.1-18.6c28,0,51,23.2,51,51.6c0,4.2-0.4,8.1-1.5,12
		C1403.5,1392.3,1403.5,1392.7,1403.2,1393.3z"/>
</g>
</svg>
