<?xml version="1.0" encoding="utf-8"?>
<!-- Generator: Adobe Illustrator 26.0.3, SVG Export Plug-In . SVG Version: 6.00 Build 0)  -->
<svg version="1.1" id="레이어_1" xmlns="http://www.w3.org/2000/svg" xmlns:xlink="http://www.w3.org/1999/xlink" x="0px"
	 y="0px" viewBox="0 0 100 100.79" style="enable-background:new 0 0 100 100.79;" xml:space="preserve">
<style type="text/css">
	.st0{fill:#2E78BE;}
	.st1{fill:#FFFFFF;}
	.st2{fill:#3596D4;}
</style>
<path class="st0" d="M100,50c0,27.61-22.39,50-50,50S0,77.61,0,50S22.39,0,50,0C77.62,0,100,22.39,100,50z"/>
<path class="st1" d="M24.67,51.68l0.22-0.34l13.01-20.35c0.19-0.3,0.64-0.27,0.78,0.06c2.17,4.87,4.05,10.93,3.17,14.7
	c-0.38,1.55-1.4,3.65-2.56,5.59c-0.15,0.28-0.31,0.56-0.49,0.83c-0.08,0.12-0.22,0.2-0.37,0.2H25.05
	C24.69,52.36,24.48,51.97,24.67,51.68z"/>
<path class="st1" d="M82.64,55.46v3.22c0,0.18-0.11,0.35-0.28,0.42c-1.01,0.43-4.45,2.01-5.89,4.01
	c-3.66,5.09-6.45,12.37-12.7,12.37H37.72C28.48,75.48,21,67.97,21,58.7v-0.3c0-0.25,0.2-0.45,0.45-0.45h14.53
	c0.29,0,0.5,0.27,0.47,0.55c-0.1,0.95,0.07,1.91,0.52,2.79c0.86,1.75,2.65,2.85,4.58,2.85h7.19v-5.61h-7.11
	c-0.36,0-0.58-0.42-0.37-0.72c0.08-0.12,0.16-0.24,0.26-0.38c0.67-0.96,1.63-2.44,2.59-4.13c0.65-1.14,1.28-2.36,1.79-3.58
	c0.1-0.22,0.18-0.45,0.27-0.67c0.14-0.39,0.28-0.76,0.39-1.12c0.1-0.31,0.18-0.63,0.27-0.94c0.24-1.04,0.34-2.14,0.34-3.28
	c0-0.45-0.02-0.91-0.06-1.36c-0.02-0.49-0.08-0.98-0.14-1.46c-0.04-0.43-0.12-0.86-0.2-1.3c-0.1-0.65-0.25-1.3-0.41-1.95l-0.06-0.25
	c-0.12-0.45-0.23-0.87-0.37-1.32c-0.41-1.4-0.87-2.77-1.37-4.05c-0.18-0.51-0.39-1-0.59-1.48c-0.3-0.73-0.61-1.4-0.89-2.03
	c-0.14-0.29-0.27-0.55-0.39-0.82c-0.14-0.3-0.28-0.61-0.43-0.89c-0.1-0.22-0.22-0.43-0.3-0.63l-0.88-1.62
	c-0.12-0.22,0.08-0.48,0.32-0.42l5.5,1.49h0.02c0.01,0,0.02,0.01,0.02,0.01l0.72,0.2l0.8,0.23l0.29,0.08v-3.27
	c0-1.58,1.26-2.86,2.83-2.86c0.78,0,1.49,0.32,2,0.84c0.51,0.52,0.83,1.23,0.83,2.02v4.85l0.59,0.16c0.05,0.02,0.09,0.04,0.13,0.07
	c0.14,0.11,0.35,0.27,0.61,0.46c0.21,0.16,0.43,0.36,0.69,0.57c0.53,0.43,1.16,0.98,1.85,1.61c0.18,0.16,0.36,0.32,0.53,0.49
	c0.89,0.83,1.9,1.81,2.85,2.89c0.27,0.3,0.53,0.61,0.8,0.93c0.27,0.33,0.55,0.65,0.8,0.98c0.32,0.43,0.67,0.88,0.98,1.35
	c0.14,0.22,0.31,0.45,0.45,0.67c0.39,0.59,0.73,1.2,1.06,1.81c0.14,0.28,0.28,0.59,0.41,0.89c0.36,0.82,0.65,1.65,0.84,2.48
	c0.06,0.18,0.1,0.38,0.12,0.55v0.04c0.06,0.25,0.08,0.51,0.1,0.78c0.08,0.85,0.04,1.71-0.14,2.56c-0.08,0.36-0.18,0.71-0.3,1.07
	c-0.12,0.35-0.25,0.71-0.41,1.06c-0.31,0.71-0.67,1.43-1.1,2.1c-0.14,0.25-0.3,0.51-0.47,0.76c-0.18,0.26-0.36,0.51-0.53,0.75
	c-0.23,0.31-0.47,0.63-0.71,0.92c-0.22,0.3-0.45,0.61-0.69,0.87c-0.34,0.41-0.67,0.79-1.02,1.16c-0.21,0.24-0.43,0.49-0.65,0.71
	c-0.22,0.25-0.45,0.47-0.65,0.67c-0.34,0.34-0.63,0.61-0.87,0.83l-0.57,0.52c-0.08,0.07-0.19,0.11-0.3,0.11h-4.38v5.61h5.51
	c1.23,0,2.4-0.44,3.35-1.24c0.32-0.28,1.74-1.51,3.41-3.35c0.06-0.06,0.13-0.11,0.21-0.13l15.21-4.4
	C82.36,54.95,82.64,55.16,82.64,55.46z"/>
<g>
	<circle id="XMLID_3_" class="st2" cx="50" cy="50" r="49.61"/>
	<path id="XMLID_2_" class="st1" d="M38.73,73.69c21.74,0,33.63-18.22,33.63-34.02c0-0.52-0.01-1.03-0.03-1.55
		c2.31-1.69,4.31-3.79,5.9-6.19c-2.12,0.95-4.4,1.59-6.79,1.88c2.44-1.48,4.31-3.82,5.2-6.62c-2.28,1.37-4.81,2.37-7.5,2.9
		c-2.16-2.32-5.23-3.78-8.63-3.78c-6.53,0-11.82,5.36-11.82,11.96c0,0.94,0.1,1.85,0.31,2.73c-9.82-0.5-18.53-5.26-24.36-12.49
		c-1.02,1.77-1.6,3.82-1.6,6.01c0,4.15,2.09,7.81,5.26,9.95c-1.94-0.06-3.76-0.6-5.35-1.5c0,0.05,0,0.1,0,0.15
		c0,5.79,4.08,10.63,9.48,11.72c-0.99,0.27-2.04,0.42-3.12,0.42c-0.76,0-1.5-0.08-2.22-0.22c1.5,4.75,5.87,8.21,11.04,8.31
		c-4.05,3.21-9.14,5.12-14.68,5.12c-0.95,0-1.9-0.05-2.82-0.16C25.85,71.7,32.06,73.69,38.73,73.69"/>
</g>
</svg>
